<svg width="168" height="72" viewBox="0 0 168 72" fill="none" xmlns="http://www.w3.org/2000/svg">
<path d="M97.806 8.152L86.212 19.814L78.698 8.152H76.828L72.816 31H78.664L80.398 21.106L84.444 27.022H86.314L91.38 22.126L89.816 31H95.664L99.676 8.152H97.806ZM101.026 20.528C100.924 26.682 105.854 31.51 112.212 31.408C119.148 31.51 125.234 25.832 125.098 19.032C125.2 12.878 120.27 8.05 113.912 8.152C106.976 8.05 100.89 13.728 101.026 20.528ZM119.114 19.304C119.114 23.18 116.292 26.036 112.62 26.036C109.322 26.036 107.01 23.758 107.01 20.256C107.01 16.38 109.832 13.524 113.504 13.524C116.802 13.524 119.114 15.802 119.114 19.304ZM142.619 8.56L135.955 19.372L133.065 8.56H126.945L133.099 31.408H134.969L149.215 8.56H142.619ZM147.623 31H163.603L164.521 25.73H154.389L155.069 21.82H162.005L162.889 16.924H155.953L156.497 13.83H166.221L167.139 8.56H151.567L147.623 31Z" fill="white"/>
<path d="M5.644 62H11.492L14.518 44.83H21.25L22.168 39.56H2.856L1.938 44.83H8.67L5.644 62ZM21.6883 51.528C21.5863 57.682 26.5163 62.51 32.8743 62.408C39.8103 62.51 45.8963 56.832 45.7603 50.032C45.8623 43.878 40.9323 39.05 34.5743 39.152C27.6383 39.05 21.5523 44.728 21.6883 51.528ZM39.7763 50.304C39.7763 54.18 36.9543 57.036 33.2823 57.036C29.9843 57.036 27.6723 54.758 27.6723 51.256C27.6723 47.38 30.4943 44.524 34.1663 44.524C37.4643 44.524 39.7763 46.802 39.7763 50.304ZM56.7301 62H72.7101L73.6281 56.73H63.4961L64.1761 52.82H71.1121L71.9961 47.924H65.0601L65.6041 44.83H75.3281L76.2461 39.56H60.6741L56.7301 62ZM90.4275 62H96.5475L90.3935 39.152H88.5235L74.2775 62H80.8735L82.0295 60.13H89.9175L90.4275 62ZM88.6935 55.438H84.9195L87.7075 50.44L88.6935 55.438ZM114.029 53.942C117.157 52.548 119.061 49.862 119.061 46.7C119.061 42.416 115.729 39.56 110.629 39.56H102.809L98.8648 62H104.713L105.937 55.03H108.215L112.397 62H118.721L114.029 53.942ZM107.773 44.66H110.561C112.159 44.66 113.077 45.612 113.077 47.21C113.077 48.876 111.921 49.93 110.119 49.93H106.821L107.773 44.66ZM139.031 39.56L136.991 51.154L126.927 39.152H125.057L121.045 62H126.893L128.967 50.168L138.997 62.408H140.867L144.879 39.56H139.031Z" fill="white"/>
</svg>
