<svg width="366" height="335" viewBox="0 0 366 335" fill="none" xmlns="http://www.w3.org/2000/svg">
<path opacity="0.13" d="M152.332 36.9233C175.668 29.6437 204.178 31.1784 219.275 52.8531C223.926 59.5213 227.833 66.8461 233.69 72.5499C243.878 82.4312 258.344 85.8658 271.928 88.4264C291.301 92.0375 308.496 97.8932 324.193 110.852C343.242 126.589 354.157 156.471 341.66 178.092C325.643 205.737 284.809 203.78 265.352 229.251C250.746 248.426 260.066 291.369 239.527 303.524C224.421 312.478 196.846 294.435 179.443 293.676C165.209 293.088 151.059 296.182 138.293 302.674C130.159 306.819 122.712 312.141 114.21 315.211C96.8107 321.452 76.3034 316.852 61.6091 305.071C46.9147 293.29 37.8257 275.025 35.065 256.239C32.3642 237.773 35.2727 218.393 29.6715 200.37C26.735 190.932 21.4613 181.867 22.0446 171.941C23.0514 154.653 40.898 142.999 43.343 126.019C45.3406 112.264 36.731 98.4923 41.4413 85.5211C44.3778 77.4413 52.0126 71.9344 59.8991 69.0455C67.7856 66.1567 76.1676 65.3524 84.3617 63.4812C107.909 58.122 129.052 44.1824 152.332 36.9233Z" stroke="url(#paint0_linear_16103_1197)" stroke-width="2" stroke-linecap="round" stroke-linejoin="round"/>
<path opacity="0.19" d="M156.731 37.9664C180.245 31.2535 208.54 32.9348 224.029 53.5C228.814 59.8603 232.895 66.8398 238.791 72.3348C249.084 81.8895 263.396 85.5063 276.826 88.3769C295.939 92.412 312.867 98.6287 328.22 111.53C346.862 127.199 357.541 156.109 345.624 177.42C330.357 204.641 291.01 204.293 271.712 229.188C257.151 248.052 265.151 288.85 244.537 300.845C229.323 309.702 202.123 293.398 184.551 292.889C170.335 292.534 156.23 295.473 143.338 301.476C135.039 305.347 127.395 310.211 118.763 312.958C101.068 318.535 80.4864 313.844 65.572 302.296C50.6576 290.749 41.1849 273.005 37.933 254.662C34.7549 236.639 37.0882 217.628 31.5276 199.815C28.6161 190.51 23.5312 181.517 24.0848 171.72C25.0484 154.604 42.2552 142.761 44.9535 126.059C47.1597 112.526 39.3764 98.9937 44.3834 86.2814C47.5041 78.3752 55.1397 72.8802 63.05 69.8784C70.9604 66.8767 79.371 65.8023 87.6299 63.797C111.353 58.0642 132.984 44.745 156.731 37.9664Z" stroke="url(#paint1_linear_16103_1197)" stroke-width="2" stroke-linecap="round" stroke-linejoin="round"/>
<path opacity="0.25" d="M157.56 38.8196C180.602 32.6685 207.999 34.4811 223.442 53.9678C228.24 60.0205 232.386 66.6596 238.205 71.9619C248.33 81.1803 262.129 84.9899 275.017 88.1721C293.364 92.6296 309.57 99.2441 324.169 112.067C341.897 127.679 352.054 155.642 341.044 176.654C326.953 203.469 290.194 204.728 271.561 229.061C257.425 247.662 263.872 286.308 243.712 298.138C228.79 306.91 202.705 292.332 185.412 292.094C171.578 291.969 157.873 294.764 145.192 300.295C136.941 303.888 129.289 308.296 120.756 310.723C103.225 315.644 83.115 310.838 68.3687 299.524C53.6224 288.21 43.998 270.967 40.3278 253.042C36.7479 235.446 38.4333 216.804 33.0572 199.179C30.2482 189.998 25.4913 181.083 26.0039 171.405C26.8897 154.448 42.9892 142.409 45.8762 125.973C48.2382 112.613 41.5089 99.3507 46.6963 86.9255C49.9277 79.1874 57.3582 73.7088 65.0881 70.5471C72.818 67.3854 81.0277 66.0814 89.1431 63.9408C112.382 57.8348 133.952 45.1225 157.56 38.8196Z" stroke="url(#paint2_linear_16103_1197)" stroke-width="2" stroke-linecap="round" stroke-linejoin="round"/>
<path opacity="0.31" d="M158.384 39.6684C180.967 34.0668 207.425 36.027 222.852 54.4311C227.67 60.1721 231.874 66.4791 237.615 71.5804C247.575 80.4626 260.837 84.4977 273.213 87.9834C290.777 92.9043 306.269 99.8386 320.113 112.621C336.926 128.175 346.547 155.186 336.467 175.903C323.529 202.3 289.325 205.162 271.392 228.938C257.688 247.256 262.572 283.769 242.872 295.436C228.24 304.117 203.25 291.261 186.257 291.294C172.813 291.393 159.51 294.036 147.05 299.086C138.848 302.403 131.192 306.377 122.749 308.464C105.394 312.749 85.7436 307.812 71.1654 296.736C56.5176 285.61 46.8152 268.912 42.7268 251.402C38.745 234.228 39.7824 215.955 34.595 198.527C31.8844 189.464 27.4556 180.623 27.9231 171.052C28.7432 154.239 43.7274 142.023 46.7865 125.85C49.3126 112.678 43.633 99.6664 48.9804 87.5159C52.3143 79.9418 59.5562 74.4755 67.0934 71.1785C74.6306 67.8815 82.6557 66.3273 90.6194 64.0514C113.403 57.605 134.916 45.4915 158.384 39.6684Z" stroke="url(#paint3_linear_16103_1197)" stroke-width="2" stroke-linecap="round" stroke-linejoin="round"/>
<path opacity="0.38" d="M159.208 40.5211C181.332 35.4649 206.867 37.5727 222.266 54.9025C227.096 60.34 231.373 66.3025 236.995 71.2111C246.788 79.7571 259.521 83.9849 271.376 87.7658C288.169 93.0968 302.952 100.417 316.029 113.141C331.932 128.638 341.019 154.702 331.854 175.124C320.109 201.127 288.415 205.56 271.22 228.811C257.905 246.817 261.268 281.227 242.031 292.729C227.679 301.341 203.808 290.187 187.102 290.498C174.047 290.815 161.136 293.31 148.903 297.88C140.743 300.918 133.091 304.441 124.746 306.208C107.555 309.837 88.3763 304.785 73.9663 293.947C59.4701 283.051 49.6324 266.858 45.1298 249.77C40.742 233.018 41.1316 215.11 36.1082 197.879C33.5001 188.935 29.3953 180.168 29.8217 170.74C30.564 154.099 44.445 141.67 47.7051 125.763C50.387 112.784 45.7613 100.023 51.2768 88.1431C54.7215 80.733 61.7624 75.2832 69.111 71.8467C76.4595 68.4103 84.2837 66.606 92.1121 64.1989C114.453 57.3711 135.879 45.8562 159.208 40.5211Z" stroke="url(#paint4_linear_16103_1197)" stroke-width="2" stroke-linecap="round" stroke-linejoin="round"/>
<path opacity="0.44" d="M160.037 41.3735C181.693 36.8627 206.314 39.1181 221.675 55.3694C226.526 60.4994 230.865 66.1256 236.393 70.8374C246.017 79.0389 258.217 83.4718 269.551 87.5602C285.573 93.3381 299.626 101.007 311.957 113.678C326.949 129.117 335.508 154.23 327.257 174.369C316.685 199.966 287.553 206.002 271.052 228.7C258.163 246.423 259.98 278.7 241.195 290.039C227.141 298.548 204.366 289.12 187.946 289.715C175.281 290.244 162.758 292.591 150.761 296.686C142.637 299.437 134.989 302.521 126.743 303.961C109.712 306.934 91.0048 301.771 76.7629 291.166C62.4103 280.504 52.4537 264.815 47.5287 248.141C42.7391 231.812 42.4807 214.277 37.6623 197.235C35.1568 188.414 31.38 179.724 31.7655 170.416C32.4298 153.935 45.2077 141.3 48.6482 125.673C51.4942 112.882 47.9183 100.367 53.606 88.7658C57.1573 81.528 63.9973 76.0904 71.1613 72.5146C78.3253 68.9387 85.9732 66.8843 93.6334 64.3418C115.49 57.1409 136.839 46.2124 160.037 41.3735Z" stroke="url(#paint5_linear_16103_1197)" stroke-width="2" stroke-linecap="round" stroke-linejoin="round"/>
<path opacity="0.5" d="M160.861 42.2267C182.05 38.2408 205.76 40.6561 221.089 55.8371C225.956 60.6596 230.36 65.9454 235.786 70.4644C245.246 78.3338 256.917 82.9553 267.73 87.3554C282.977 93.5598 296.313 101.601 307.889 114.215C321.967 129.597 329.992 153.763 322.652 173.59C313.265 198.781 286.7 206.433 270.872 228.577C258.405 246.017 258.651 276.145 240.342 287.336C226.584 295.759 204.907 288.042 188.779 288.923C176.503 289.661 164.359 291.864 152.606 295.485C144.524 297.945 136.876 300.594 128.728 301.709C111.861 304.022 93.6252 298.753 79.5473 288.386C65.3588 277.942 55.2586 262.769 49.9154 246.509C44.7361 230.598 43.8299 213.429 39.1796 196.591C36.7766 187.889 33.3279 179.274 33.6682 170.088C34.2587 153.767 45.9294 140.944 49.5586 125.574C52.5603 112.973 50.0384 100.712 55.8943 89.3729C59.5562 82.2992 66.1953 76.8739 73.1748 73.1627C80.1543 69.4515 87.6094 67.1428 95.122 64.4691C116.528 56.9074 137.798 46.5612 160.861 42.2267Z" stroke="url(#paint6_linear_16103_1197)" stroke-width="2" stroke-linecap="round" stroke-linejoin="round"/>
<path opacity="0.56" d="M161.689 43.0801C182.41 39.6191 205.215 42.1944 220.498 56.3091C225.386 60.8199 229.852 65.7696 235.183 70.0917C244.475 77.6248 255.613 82.4391 265.91 87.1508C280.385 93.7817 292.995 102.192 303.817 114.753C316.984 130.077 324.481 153.3 318.063 172.824C309.841 197.608 285.843 206.86 270.712 228.438C258.676 245.595 257.36 273.608 239.513 284.618C226.046 292.951 205.477 286.939 189.636 288.108C177.747 289.048 165.974 291.108 154.472 294.259C146.43 296.436 138.787 298.634 130.737 299.43C114.03 301.07 96.2661 295.706 82.3482 285.573C68.3113 275.359 58.0758 260.69 52.3184 244.853C46.7332 229.397 45.179 212.584 40.7338 195.939C38.4292 187.357 35.3085 178.819 35.6038 169.752C36.1246 153.591 46.6758 140.571 50.5018 125.464C53.6634 113.055 52.1913 101.044 58.2194 89.9762C61.988 83.0665 68.4261 77.674 75.2211 73.807C82.016 69.94 89.2784 67.3975 96.6392 64.5926C117.565 56.6782 138.754 46.9143 161.689 43.0801Z" stroke="url(#paint7_linear_16103_1197)" stroke-width="2" stroke-linecap="round" stroke-linejoin="round"/>
<path opacity="0.63" d="M162.514 43.9287C182.767 40.9885 204.669 43.7319 219.924 56.7764C224.845 60.9755 229.356 65.5889 234.592 69.7183C243.721 76.9151 254.329 81.9221 264.118 86.9414C277.822 93.9906 289.715 102.779 299.794 115.282C312.047 130.545 319.01 152.816 313.511 172.048C306.466 196.427 285.036 207.286 270.589 228.302C258.984 245.181 256.105 271.057 238.718 281.903C225.542 290.15 206.08 285.84 190.526 287.304C179.025 288.452 167.615 290.379 156.375 293.069C148.37 294.952 140.73 296.719 132.779 297.17C116.237 298.158 98.9439 292.68 85.2105 282.785C71.3254 272.795 60.9587 258.635 54.783 243.213C48.7836 228.155 46.5815 211.723 42.3208 195.263C40.1187 186.803 37.322 178.339 37.5803 169.395C38.0232 153.402 47.4754 140.177 51.4778 125.341C54.7994 113.125 54.3811 101.36 60.5773 90.5624C64.4525 83.8208 70.6939 78.4242 77.3002 74.4383C83.9065 70.4524 90.9843 67.6434 98.1934 64.699C118.599 56.4442 139.709 47.2421 162.514 43.9287Z" stroke="url(#paint8_linear_16103_1197)" stroke-width="2" stroke-linecap="round" stroke-linejoin="round"/>
<path opacity="0.69" d="M163.338 44.7821C183.12 42.3503 204.128 45.2619 219.321 57.2442C224.242 61.1317 228.839 65.4129 233.973 69.3455C242.933 76.202 253.013 81.4017 262.268 86.745C275.202 94.2165 286.372 103.378 295.681 115.827C307.024 131.033 313.458 152.353 308.873 171.294C303.001 195.263 284.142 207.733 270.38 228.188C259.205 244.788 254.76 268.527 237.836 279.209C224.943 287.366 206.592 284.758 191.317 286.517C180.364 287.78 169.05 289.719 158.179 291.881C150.207 293.463 142.576 294.796 134.719 294.952C118.34 295.272 101.503 289.687 87.9456 280.029C74.2164 270.27 63.7185 256.614 57.1204 241.61C50.7191 226.974 47.865 210.911 43.793 194.648C41.6934 186.307 39.2247 177.917 39.438 169.1C39.807 153.255 48.152 139.841 52.343 125.271C55.8245 113.244 56.4437 101.733 62.8245 91.2066C66.8063 84.6454 72.8467 79.2488 79.2685 75.1235C85.6902 70.9981 92.5713 67.939 99.6328 64.8716C119.636 56.2149 140.661 47.5706 163.338 44.7821Z" stroke="url(#paint9_linear_16103_1197)" stroke-width="2" stroke-linecap="round" stroke-linejoin="round"/>
<path opacity="0.75" d="M164.166 45.6346C183.477 43.7073 203.595 46.7869 218.731 57.7113C223.688 61.2872 228.331 65.232 233.366 68.9719C242.162 75.4921 251.713 80.8641 260.431 86.5395C272.594 94.4294 283.043 103.972 291.597 116.364C302.037 131.512 307.938 151.893 304.272 170.527C299.577 194.09 283.289 208.172 270.203 228.06C259.463 244.385 253.456 265.984 236.987 276.506C224.394 284.573 207.142 283.65 192.166 285.717C181.607 287.177 170.67 288.964 160.041 290.679C152.106 291.958 144.458 292.864 136.72 292.7C120.506 292.356 104.156 286.668 90.7506 277.249C77.173 267.714 66.5562 254.567 59.5234 239.981C52.7121 225.768 49.2223 210.074 45.3307 194.004C43.3337 185.782 41.1931 177.469 41.3612 168.772C41.6606 153.086 48.8984 139.48 53.2534 125.173C56.8948 113.338 58.5843 102.077 65.1168 91.8213C69.2176 85.4118 75.0488 80.0398 81.286 75.7751C87.5233 71.5103 94.2116 68.2051 101.125 64.9983C120.674 55.9849 141.616 47.8859 164.166 45.6346Z" stroke="url(#paint10_linear_16103_1197)" stroke-width="2" stroke-linecap="round" stroke-linejoin="round"/>
<path opacity="0.81" d="M164.99 46.5044C183.854 45.0691 203.058 48.321 218.144 58.1956C223.123 61.4557 227.822 65.0725 232.763 68.6156C241.375 74.7995 250.417 80.3724 258.619 86.3513C270.019 94.6594 279.737 104.579 287.537 116.918C297.055 132.009 302.427 151.43 299.675 169.777C296.153 192.934 282.452 208.627 270.035 227.95C259.73 244 252.152 263.462 236.151 273.817C223.848 281.797 207.7 282.56 193.015 284.938C182.845 286.578 172.29 288.219 161.898 289.498C154 290.466 146.381 290.933 138.721 290.466C122.671 289.42 106.789 283.667 93.5514 274.473C80.1297 265.164 69.357 252.53 61.9306 238.358C54.7173 224.567 50.5715 209.242 46.8726 193.364C44.974 185.265 43.182 177.027 43.2886 168.452C43.51 152.927 49.6406 139.124 54.2007 125.083C58.002 113.441 60.7372 102.426 67.4461 92.4409C71.6452 86.1996 77.2878 80.844 83.3364 76.448C89.385 72.052 95.8847 68.4885 102.647 65.1464C121.707 55.7516 142.572 48.1939 164.99 46.5044Z" stroke="url(#paint11_linear_16103_1197)" stroke-width="2" stroke-linecap="round" stroke-linejoin="round"/>
<path opacity="0.88" d="M165.819 47.3244C184.19 46.373 202.529 49.7848 217.554 58.6301C222.561 61.5704 227.314 64.8592 232.156 68.2095C240.62 74.053 249.134 79.8023 256.798 86.1174C267.535 94.8213 276.572 105.435 283.453 117.422C292.064 132.456 296.899 150.93 295.062 168.977C292.716 191.728 281.616 209.058 269.846 227.794C260.005 243.582 250.835 260.887 235.294 271.081C223.282 278.971 208.229 281.411 193.843 284.11C183.886 286.004 173.838 287.39 163.74 288.264C156.075 288.959 148.361 288.931 140.702 288.182C124.78 286.401 109.542 280.728 96.3317 271.664C83.1581 262.574 72.212 250.621 64.3131 236.701C56.698 223.332 51.9042 208.377 48.3899 192.696C46.5938 184.716 45.1093 176.551 45.1913 168.091C45.3389 152.726 50.3624 138.726 55.1069 124.951C59.0682 113.502 62.8573 102.738 69.7384 93.0231C74.0441 86.9458 79.4858 81.6025 85.3458 77.063C91.2058 72.5235 97.5209 68.718 104.131 65.2405C122.745 55.5259 143.523 48.489 165.819 47.3244Z" stroke="url(#paint12_linear_16103_1197)" stroke-width="2" stroke-linecap="round" stroke-linejoin="round"/>
<path d="M251.201 251.201C297.446 204.956 297.445 129.978 251.201 83.7335C204.956 37.4887 129.978 37.4887 83.7336 83.7335C37.4888 129.978 37.4888 204.956 83.7336 251.201C129.978 297.445 204.956 297.445 251.201 251.201Z" stroke="url(#paint13_linear_16103_1197)" stroke-width="2" stroke-linecap="round" stroke-linejoin="round"/>
<path opacity="0.94" d="M166.643 48.1892C184.547 47.7217 202 51.3181 216.967 59.1136C221.981 61.7659 226.85 64.6829 231.554 67.8523C239.849 73.3596 247.834 79.3016 254.977 85.9284C264.938 95.0916 273.205 105.94 279.397 117.976C287.094 132.952 291.4 150.474 290.469 168.226C289.292 190.571 280.758 209.508 269.678 227.687C260.247 243.196 249.531 258.369 234.453 268.395C222.733 276.186 208.786 280.312 194.676 283.33C185.102 285.397 175.37 286.654 165.585 287.086C157.933 287.435 150.266 287.055 142.686 285.95C127.08 283.568 112.199 277.745 99.1202 268.904C86.0519 260.043 75.0036 248.522 66.6997 235.093C58.6827 222.147 53.2411 207.561 49.9112 192.072C48.2176 184.211 47.0407 176.124 47.1022 167.792C47.1761 152.586 51.0882 138.389 56.0214 124.881C60.1221 113.621 64.9815 103.106 72.0143 93.6665C76.4708 87.7666 81.6184 82.4222 87.3469 77.7474C93.0492 73.0928 99.1594 68.9617 105.603 65.4042C123.782 55.2876 144.483 48.7715 166.643 48.1892Z" stroke="url(#paint14_linear_16103_1197)" stroke-width="2" stroke-linecap="round" stroke-linejoin="round"/>
<defs>
<linearGradient id="paint0_linear_16103_1197" x1="55.86" y1="67.3057" x2="269.014" y2="274.838" gradientUnits="userSpaceOnUse">
<stop stop-color="#FF0DFF"/>
<stop offset="1" stop-color="#0070FE"/>
</linearGradient>
<linearGradient id="paint1_linear_16103_1197" x1="58.5925" y1="68.8163" x2="268.387" y2="278.61" gradientUnits="userSpaceOnUse">
<stop stop-color="#FF14FF"/>
<stop offset="1" stop-color="#0074FD"/>
</linearGradient>
<linearGradient id="paint2_linear_16103_1197" x1="60.3067" y1="70.1534" x2="266.804" y2="276.65" gradientUnits="userSpaceOnUse">
<stop stop-color="#FF1AFF"/>
<stop offset="1" stop-color="#0079FC"/>
</linearGradient>
<linearGradient id="paint3_linear_16103_1197" x1="62.029" y1="71.482" x2="265.233" y2="274.686" gradientUnits="userSpaceOnUse">
<stop stop-color="#FF21FF"/>
<stop offset="1" stop-color="#007DFB"/>
</linearGradient>
<linearGradient id="paint4_linear_16103_1197" x1="63.7595" y1="72.8022" x2="263.671" y2="272.713" gradientUnits="userSpaceOnUse">
<stop stop-color="#FF27FF"/>
<stop offset="1" stop-color="#0081FB"/>
</linearGradient>
<linearGradient id="paint5_linear_16103_1197" x1="65.5023" y1="74.1057" x2="262.125" y2="270.728" gradientUnits="userSpaceOnUse">
<stop stop-color="#FF2EFF"/>
<stop offset="1" stop-color="#0086FA"/>
</linearGradient>
<linearGradient id="paint6_linear_16103_1197" x1="67.2656" y1="75.3853" x2="260.607" y2="268.727" gradientUnits="userSpaceOnUse">
<stop stop-color="#FF34FF"/>
<stop offset="1" stop-color="#008AF9"/>
</linearGradient>
<linearGradient id="paint7_linear_16103_1197" x1="69.0658" y1="76.6365" x2="259.127" y2="266.698" gradientUnits="userSpaceOnUse">
<stop stop-color="#FF3BFF"/>
<stop offset="1" stop-color="#008EF8"/>
</linearGradient>
<linearGradient id="paint8_linear_16103_1197" x1="70.8989" y1="77.846" x2="257.692" y2="264.635" gradientUnits="userSpaceOnUse">
<stop stop-color="#FF41FF"/>
<stop offset="1" stop-color="#0093F8"/>
</linearGradient>
<linearGradient id="paint9_linear_16103_1197" x1="72.7852" y1="79.0028" x2="256.314" y2="262.536" gradientUnits="userSpaceOnUse">
<stop stop-color="#FF48FF"/>
<stop offset="1" stop-color="#0097F7"/>
</linearGradient>
<linearGradient id="paint10_linear_16103_1197" x1="74.729" y1="80.0973" x2="255.018" y2="260.386" gradientUnits="userSpaceOnUse">
<stop stop-color="#FF4EFF"/>
<stop offset="1" stop-color="#009BF6"/>
</linearGradient>
<linearGradient id="paint11_linear_16103_1197" x1="76.7507" y1="81.1106" x2="253.829" y2="258.189" gradientUnits="userSpaceOnUse">
<stop stop-color="#FF55FF"/>
<stop offset="1" stop-color="#00A0F5"/>
</linearGradient>
<linearGradient id="paint12_linear_16103_1197" x1="78.8707" y1="82.0167" x2="252.791" y2="255.937" gradientUnits="userSpaceOnUse">
<stop stop-color="#FF5BFF"/>
<stop offset="1" stop-color="#00A4F4"/>
</linearGradient>
<linearGradient id="paint13_linear_16103_1197" x1="83.4407" y1="83.4408" x2="251.489" y2="251.493" gradientUnits="userSpaceOnUse">
<stop stop-color="#FF68FF"/>
<stop offset="1" stop-color="#00ADF3"/>
</linearGradient>
<linearGradient id="paint14_linear_16103_1197" x1="81.0933" y1="82.7995" x2="251.967" y2="253.673" gradientUnits="userSpaceOnUse">
<stop stop-color="#FF62FF"/>
<stop offset="1" stop-color="#00A9F4"/>
</linearGradient>
</defs>
</svg>
