<svg width="366" height="335" viewBox="0 0 366 335" fill="none" xmlns="http://www.w3.org/2000/svg">
<g filter="url(#filter0_d_16103_1183)">
<path d="M251.201 251.201C297.446 204.956 297.445 129.978 251.201 83.7335C204.956 37.4887 129.978 37.4887 83.7336 83.7335C37.4888 129.978 37.4888 204.956 83.7336 251.201C129.978 297.445 204.956 297.445 251.201 251.201Z" stroke="url(#paint0_linear_16103_1183)" stroke-width="2" stroke-linecap="round" stroke-linejoin="round"/>
<path opacity="0.94" d="M166.643 48.1892C184.547 47.7217 202 51.3181 216.967 59.1136C221.981 61.7659 226.85 64.6829 231.554 67.8523C239.849 73.3596 247.834 79.3016 254.977 85.9284C264.938 95.0916 273.205 105.94 279.397 117.976C287.094 132.952 291.4 150.474 290.469 168.226C289.292 190.571 280.758 209.508 269.678 227.687C260.247 243.196 249.531 258.369 234.453 268.395C222.733 276.186 208.786 280.312 194.676 283.33C185.102 285.397 175.37 286.654 165.585 287.086C157.933 287.435 150.266 287.055 142.686 285.95C127.08 283.568 112.199 277.745 99.1202 268.904C86.0519 260.043 75.0036 248.522 66.6997 235.093C58.6827 222.147 53.2411 207.561 49.9112 192.072C48.2176 184.211 47.0407 176.124 47.1022 167.792C47.1761 152.586 51.0882 138.389 56.0214 124.881C60.1221 113.621 64.9815 103.106 72.0143 93.6665C76.4708 87.7666 81.6184 82.4222 87.3469 77.7474C93.0492 73.0928 99.1594 68.9617 105.603 65.4042C123.782 55.2876 144.483 48.7715 166.643 48.1892Z" stroke="url(#paint1_linear_16103_1183)" stroke-width="2" stroke-linecap="round" stroke-linejoin="round"/>
</g>
<defs>
<filter id="filter0_d_16103_1183" x="42.0999" y="47.1489" width="253.495" height="249.062" filterUnits="userSpaceOnUse" color-interpolation-filters="sRGB">
<feFlood flood-opacity="0" result="BackgroundImageFix"/>
<feColorMatrix in="SourceAlpha" type="matrix" values="0 0 0 0 0 0 0 0 0 0 0 0 0 0 0 0 0 0 127 0" result="hardAlpha"/>
<feOffset dy="4"/>
<feGaussianBlur stdDeviation="2"/>
<feComposite in2="hardAlpha" operator="out"/>
<feColorMatrix type="matrix" values="0 0 0 0 0 0 0 0 0 0 0 0 0 0 0 0 0 0 0.25 0"/>
<feBlend mode="normal" in2="BackgroundImageFix" result="effect1_dropShadow_16103_1183"/>
<feBlend mode="normal" in="SourceGraphic" in2="effect1_dropShadow_16103_1183" result="shape"/>
</filter>
<linearGradient id="paint0_linear_16103_1183" x1="83.4407" y1="83.4408" x2="251.489" y2="251.493" gradientUnits="userSpaceOnUse">
<stop stop-color="#FF68FF"/>
<stop offset="1" stop-color="#00ADF3"/>
</linearGradient>
<linearGradient id="paint1_linear_16103_1183" x1="81.0933" y1="82.7995" x2="251.967" y2="253.673" gradientUnits="userSpaceOnUse">
<stop stop-color="#FF62FF"/>
<stop offset="1" stop-color="#00A9F4"/>
</linearGradient>
</defs>
</svg>
