<svg width="366" height="335" viewBox="0 0 366 335" fill="none" xmlns="http://www.w3.org/2000/svg">
<path opacity="0.81" d="M164.99 46.5044C183.854 45.0691 203.058 48.321 218.144 58.1956C223.123 61.4557 227.822 65.0725 232.763 68.6156C241.375 74.7995 250.417 80.3724 258.619 86.3513C270.019 94.6594 279.737 104.579 287.537 116.918C297.055 132.009 302.427 151.43 299.675 169.777C296.153 192.934 282.452 208.627 270.035 227.95C259.73 244 252.152 263.462 236.151 273.817C223.848 281.797 207.7 282.56 193.015 284.938C182.845 286.578 172.29 288.219 161.898 289.498C154 290.466 146.381 290.933 138.721 290.466C122.671 289.42 106.789 283.667 93.5514 274.473C80.1297 265.164 69.357 252.53 61.9306 238.358C54.7173 224.567 50.5715 209.242 46.8726 193.364C44.974 185.265 43.182 177.027 43.2886 168.452C43.51 152.927 49.6406 139.124 54.2007 125.083C58.002 113.441 60.7372 102.426 67.4461 92.4409C71.6452 86.1996 77.2878 80.844 83.3364 76.448C89.385 72.052 95.8847 68.4885 102.647 65.1464C121.707 55.7516 142.572 48.1939 164.99 46.5044Z" stroke="url(#paint0_linear_16103_1185)" stroke-width="2" stroke-linecap="round" stroke-linejoin="round"/>
<path opacity="0.88" d="M165.819 47.3244C184.19 46.373 202.529 49.7848 217.554 58.6301C222.561 61.5704 227.314 64.8592 232.156 68.2095C240.62 74.053 249.134 79.8023 256.798 86.1174C267.535 94.8213 276.572 105.435 283.453 117.422C292.064 132.456 296.899 150.93 295.062 168.977C292.716 191.728 281.616 209.058 269.846 227.794C260.005 243.582 250.835 260.887 235.294 271.081C223.282 278.971 208.229 281.411 193.843 284.11C183.886 286.004 173.838 287.39 163.74 288.264C156.075 288.959 148.361 288.931 140.702 288.182C124.78 286.401 109.542 280.728 96.3317 271.664C83.1581 262.574 72.212 250.621 64.3131 236.701C56.698 223.332 51.9042 208.377 48.3899 192.696C46.5938 184.716 45.1093 176.551 45.1913 168.091C45.3389 152.726 50.3624 138.726 55.1069 124.951C59.0682 113.502 62.8573 102.738 69.7384 93.0231C74.0441 86.9458 79.4858 81.6025 85.3458 77.063C91.2058 72.5235 97.5209 68.718 104.131 65.2405C122.745 55.5259 143.523 48.489 165.819 47.3244Z" stroke="url(#paint1_linear_16103_1185)" stroke-width="2" stroke-linecap="round" stroke-linejoin="round"/>
<path d="M251.201 251.201C297.446 204.956 297.445 129.978 251.201 83.7335C204.956 37.4887 129.978 37.4887 83.7336 83.7335C37.4888 129.978 37.4888 204.956 83.7336 251.201C129.978 297.445 204.956 297.445 251.201 251.201Z" stroke="url(#paint2_linear_16103_1185)" stroke-width="2" stroke-linecap="round" stroke-linejoin="round"/>
<path opacity="0.94" d="M166.643 48.1892C184.547 47.7217 202 51.3181 216.967 59.1136C221.981 61.7659 226.85 64.6829 231.554 67.8523C239.849 73.3596 247.834 79.3016 254.977 85.9284C264.938 95.0916 273.205 105.94 279.397 117.976C287.094 132.952 291.4 150.474 290.469 168.226C289.292 190.571 280.758 209.508 269.678 227.687C260.247 243.196 249.531 258.369 234.453 268.395C222.733 276.186 208.786 280.312 194.676 283.33C185.102 285.397 175.37 286.654 165.585 287.086C157.933 287.435 150.266 287.055 142.686 285.95C127.08 283.568 112.199 277.745 99.1202 268.904C86.0519 260.043 75.0036 248.522 66.6997 235.093C58.6827 222.147 53.2411 207.561 49.9112 192.072C48.2176 184.211 47.0407 176.124 47.1022 167.792C47.1761 152.586 51.0882 138.389 56.0214 124.881C60.1221 113.621 64.9815 103.106 72.0143 93.6665C76.4708 87.7666 81.6184 82.4222 87.3469 77.7474C93.0492 73.0928 99.1594 68.9617 105.603 65.4042C123.782 55.2876 144.483 48.7715 166.643 48.1892Z" stroke="url(#paint3_linear_16103_1185)" stroke-width="2" stroke-linecap="round" stroke-linejoin="round"/>
<defs>
<linearGradient id="paint0_linear_16103_1185" x1="76.7507" y1="81.1106" x2="253.829" y2="258.189" gradientUnits="userSpaceOnUse">
<stop stop-color="#FF55FF"/>
<stop offset="1" stop-color="#00A0F5"/>
</linearGradient>
<linearGradient id="paint1_linear_16103_1185" x1="78.8707" y1="82.0167" x2="252.791" y2="255.937" gradientUnits="userSpaceOnUse">
<stop stop-color="#FF5BFF"/>
<stop offset="1" stop-color="#00A4F4"/>
</linearGradient>
<linearGradient id="paint2_linear_16103_1185" x1="83.4407" y1="83.4408" x2="251.489" y2="251.493" gradientUnits="userSpaceOnUse">
<stop stop-color="#FF68FF"/>
<stop offset="1" stop-color="#00ADF3"/>
</linearGradient>
<linearGradient id="paint3_linear_16103_1185" x1="81.0933" y1="82.7995" x2="251.967" y2="253.673" gradientUnits="userSpaceOnUse">
<stop stop-color="#FF62FF"/>
<stop offset="1" stop-color="#00A9F4"/>
</linearGradient>
</defs>
</svg>
