<?xml version="1.0" standalone="no"?>
<!DOCTYPE svg PUBLIC "-//W3C//DTD SVG 20010904//EN"
 "http://www.w3.org/TR/2001/REC-SVG-20010904/DTD/svg10.dtd">
<svg version="1.0" xmlns="http://www.w3.org/2000/svg"
 width="1187.000000pt" height="1625.000000pt" viewBox="0 0 1187.000000 1625.000000"
 preserveAspectRatio="xMidYMid meet">

<g transform="translate(0.000000,1625.000000) scale(0.100000,-0.100000)"
fill="#000000" stroke="none">
<path d="M4383 15751 c-2405 -191 -4375 -350 -4378 -353 -3 -2 -4 -3332 -3
-7399 l3 -7395 4450 352 c2448 194 4712 373 5031 399 704 56 795 71 1064 182
690 283 1170 1000 1170 1745 0 62 -146 1961 -325 4222 -179 2261 -375 4739
-435 5507 -61 767 -117 1435 -125 1485 -127 780 -727 1404 -1510 1570 -104 22
-151 26 -345 29 -221 4 -303 -2 -4597 -344z"/>
</g>
</svg>
