<svg xmlns="http://www.w3.org/2000/svg" viewBox="0 0 25.14 23"><defs><style>.a{opacity:0.5;}.b{fill:#8a8d9f;}</style></defs><g class="a" transform="translate(0 -2)"><path class="b" d="M19.9,25H5.238A5.518,5.518,0,0,1,0,19.25V7.75A5.518,5.518,0,0,1,5.238,2H19.9A5.518,5.518,0,0,1,25.14,7.75v11.5A5.518,5.518,0,0,1,19.9,25ZM5.238,4.3A3.307,3.307,0,0,0,2.1,7.75v11.5A3.307,3.307,0,0,0,5.238,22.7H19.9a3.307,3.307,0,0,0,3.143-3.45V7.75A3.307,3.307,0,0,0,19.9,4.3Z" transform="translate(0 0)"/><path class="b" d="M19.428,13.1h-8.38a1.048,1.048,0,0,1,0-2.1h8.38a1.048,1.048,0,0,1,0,2.1Z" transform="translate(0.475 1.452)"/><path class="b" d="M7.143,13.1h-2.1a1.048,1.048,0,0,1,0-2.1h2.1a1.048,1.048,0,0,1,0,2.1Z" transform="translate(0.19 1.452)"/><path class="b" d="M13.428,18.1H5.048a1.048,1.048,0,0,1,0-2.1h8.38a1.048,1.048,0,0,1,0,2.1Z" transform="translate(0.19 2.259)"/><path class="b" d="M19.143,18.1h-2.1a1.048,1.048,0,1,1,0-2.1h2.1a1.048,1.048,0,0,1,0,2.1Z" transform="translate(0.76 2.259)"/></g></svg>