<svg xmlns="http://www.w3.org/2000/svg" viewBox="0 0 18.571 24"><defs><style>.a{fill:#c4c6cf;}</style></defs><g transform="translate(-3)"><path class="a" d="M12.286,12a6.148,6.148,0,0,0,6.286-6,6.148,6.148,0,0,0-6.286-6A6.148,6.148,0,0,0,6,6a6.154,6.154,0,0,0,6.286,6Zm0-10a4.1,4.1,0,0,1,4.19,4,4.1,4.1,0,0,1-4.19,4A4.1,4.1,0,0,1,8.1,6a4.1,4.1,0,0,1,4.19-4Z"/><path class="a" d="M12.286,14A9.156,9.156,0,0,0,3,23a1.032,1.032,0,0,0,2.063,0,7.114,7.114,0,0,1,7.222-7,7.114,7.114,0,0,1,7.222,7,1.032,1.032,0,0,0,2.063,0A9.156,9.156,0,0,0,12.286,14Z"/></g></svg>