<svg id="Layer_1" data-name="Layer 1" xmlns="http://www.w3.org/2000/svg" viewBox="0 0 500 500">
  <defs>
    <style>
      .cls-1 {
        fill: #fff;
      }
    </style>
  </defs>
  <g>
    <g>
      <path class="cls-1" d="M231.42,182.63c9,2.89,13,11.62,9.79,21.37q-16.67,50.16-33.41,100.28c-3.05,9.09-9.49,14.08-17.87,14.06s-14.54-4.81-17.67-13.76q-17.56-50.25-35.07-100.53c-3.37-9.67.58-18.56,9.43-21.56,8.68-2.93,17.07,1.61,20.4,11.11q10.64,30.33,21.19,60.69c.38,1.06.79,2.09,1.51,4,2.06-6.11,3.88-11.42,5.66-16.74q7.92-23.75,15.84-47.49C214.42,184.49,222.73,179.81,231.42,182.63Z"/>
      <path class="cls-1" d="M330.55,280.63c2.57-3.24,2.41-6.22-.47-9.16-2.65-2.68-6-4.25-9.43-5.63-9.52-3.81-19.1-7.48-28.55-11.48-23.14-9.81-29.86-38.69-13.05-57.49,13.83-15.46,31.51-17.81,50.67-12.77,9.81,2.59,18.42,7.74,26.4,13.88a15.06,15.06,0,0,1,3.28,20.23,15.23,15.23,0,0,1-20.18,5.07c-4-2.2-7.56-5.27-11.83-7.11-6.23-2.69-12.58-3.77-19.24-1.89a9.7,9.7,0,0,0-5.28,3.26c-2.47,3.2-1.74,6.37,2,7.91,9.85,4.05,19.78,7.91,29.63,12,8.8,3.61,16.5,8.8,22.19,16.57,13.77,18.75,7.45,44.76-13.94,57.34-8.37,4.93-17.47,7.16-32,6.93-12.9-.34-28.36-6.29-41-18.9-7-7-7.5-16.93-1.29-23.32,6.47-6.67,16.14-6.35,23.51.82,7.77,7.56,17.09,10.62,27.77,9.61A15.27,15.27,0,0,0,330.55,280.63Z"/>
    </g>
    <path class="cls-1" d="M250,0C111.94,0,0,111.91,0,250S111.94,500,250,500,500,388,500,250,388.05,0,250,0Zm0,417A167.07,167.07,0,1,1,417.07,250,167.07,167.07,0,0,1,250,417Z"/>
  </g>
</svg>
