<svg width="65" height="64" viewBox="0 0 65 64" fill="none" xmlns="http://www.w3.org/2000/svg">
<path d="M32.9878 64C50.6609 64 64.9878 49.6731 64.9878 32C64.9878 14.3269 50.6609 0 32.9878 0C15.3147 0 0.987793 14.3269 0.987793 32C0.987793 49.6731 15.3147 64 32.9878 64Z" fill="url(#paint0_linear_103_15607)"/>
<path d="M53.1868 24.5715C53.0173 23.8868 52.4965 23.3912 51.7605 23.0847C50.8776 22.7185 49.9264 22.7247 48.973 22.8872C48.5678 22.9204 48.1837 23.0245 47.8065 23.1308C46.2462 23.5737 44.8726 24.2592 43.6508 25.1609C43.5798 25.2127 43.5496 25.2358 43.428 25.3168C43.416 25.3071 43.4025 25.2987 43.3877 25.292C41.2501 24.2885 39.1937 23.1556 36.8388 22.4917C36.0215 22.2583 35.2172 22.0834 34.3595 22.017C34.249 22.0046 34.1375 21.999 34.026 22.0001L33.5708 22.0041C33.4567 22.0063 33.4212 22.0086 33.3427 22.0125C32.0514 22.0604 30.864 22.3668 29.8143 22.9975C29.0374 23.4598 28.3826 24.0241 27.7601 24.6193C26.6141 25.7083 25.9948 27.0201 25.4358 28.3571C25.3282 28.6153 25.213 28.8691 25.1167 29.1313C24.477 30.8452 23.8443 32.5609 23.2019 34.2743C23.1823 34.3367 23.1553 34.3974 23.1212 34.4555C22.256 34.0932 21.2768 33.8478 20.3186 33.7912C18.6286 33.6911 17.1743 34.1596 15.9724 35.1485C15.9588 35.1566 15.9469 35.1665 15.9374 35.1778C14.7537 36.1813 13.8983 37.3222 13.5701 38.7208C13.4027 39.4515 13.3726 40.1614 13.6309 40.882C14.1393 42.2992 15.5253 43.4679 17.4272 43.4887C18.3101 43.4993 19.0768 43.289 19.7268 42.7974C20.5844 42.1459 21.1256 41.3213 21.5835 40.4502C21.6265 40.3855 21.6744 40.3173 21.7126 40.2504C22.2184 39.2943 22.6434 38.3138 23.0685 37.331C23.3084 36.777 23.4989 36.2066 23.7819 35.6654C24.3935 35.9793 24.9669 36.3412 25.4939 36.746C26.7464 37.7309 28.0162 38.6946 29.3795 39.5777C29.86 39.8877 30.3356 40.2044 30.8667 40.4541C31.4692 40.8139 32.1381 41.0915 32.8477 41.2766C34.507 41.7194 36.1232 41.6849 37.6205 40.8642C38.7617 40.2376 39.4498 39.3173 39.9303 38.2907C40.5146 37.0414 40.7271 35.7256 40.8939 34.4054H40.8912C40.9343 34.087 40.98 33.7686 41.0177 33.4497C41.1495 32.2486 41.2867 31.0471 41.5821 29.8624C41.8704 28.6986 42.4547 27.6866 43.335 26.7225C43.3881 26.6636 43.4473 26.6086 43.512 26.5582C44.2937 26.8496 45.0723 27.145 45.8567 27.4346C46.1628 27.5493 46.4485 27.695 46.7778 27.7699C46.985 27.8903 47.2276 27.955 47.4606 28.0356C48.5581 28.4103 49.6918 28.6623 50.8932 28.4785C52.0317 28.3053 52.8258 27.7747 53.1529 26.8332C53.4198 26.0834 53.3719 25.3212 53.1868 24.5715ZM22.6633 35.4572C22.0005 36.9998 21.3505 38.513 20.3336 39.9231C20.324 39.9427 20.3171 39.963 20.3132 39.9838C19.9872 40.3731 19.6859 40.781 19.2861 41.1247C19.1672 41.2327 19.0359 41.3328 18.9095 41.4347C17.9556 42.2008 16.7315 41.7137 16.3442 40.9347C16.0751 40.3873 16.0687 39.8146 16.0816 39.246C16.1069 38.2154 16.6379 37.3368 17.3535 36.5228C17.4073 36.4621 17.4611 36.3979 17.5149 36.3354C17.8793 35.9649 18.3214 35.6512 18.8202 35.409C20.0011 34.8509 21.2354 34.8487 22.4976 35.1778C22.5864 35.2004 22.6752 35.2221 22.7634 35.2442C22.729 35.3129 22.6908 35.3926 22.6633 35.4572ZM40.5695 29.35C40.0159 30.9178 39.5757 32.5086 38.9888 34.0684C38.985 34.0821 38.985 34.0963 38.9888 34.11C38.645 34.9555 38.3135 35.8049 37.8659 36.6189C37.5431 37.2061 37.1804 37.7703 36.6795 38.2699C36.0221 38.9258 35.173 39.1592 34.1702 39.0905C33.4368 39.0405 32.7411 38.8802 32.0605 38.6552C31.9895 38.6322 31.9164 38.6198 31.8453 38.6012C30.6843 38.2026 29.6093 37.6685 28.544 37.1269C27.2769 36.4772 25.9539 35.9005 24.7197 35.2092C24.5297 35.1051 24.335 35.0051 24.1429 34.9054C24.2188 34.6928 24.2462 34.6034 24.3124 34.4532C24.689 33.6038 25.0118 32.738 25.3976 31.8926C25.8377 30.9284 26.3311 29.9767 26.8546 29.0418C26.8717 29.0103 26.8852 28.9775 26.8949 28.9439C27.1682 28.5046 27.4362 28.0657 27.7122 27.6282C28.5163 26.3517 29.7352 25.2842 31.2331 24.5444C31.8911 24.2154 32.5781 23.9346 33.3502 23.8451C33.644 23.8097 33.942 23.8009 34.2358 23.7823C34.911 23.8265 35.5809 23.8992 36.2367 24.0511C37.57 24.3571 38.8322 24.811 40.0691 25.315C40.7976 25.614 40.9262 25.6583 41.6498 25.924C41.723 25.951 42.3913 26.211 42.4671 26.257C41.546 27.164 40.9719 28.2238 40.5695 29.35ZM51.6793 25.9683C51.5275 26.4306 51.1762 26.695 50.5967 26.7615C49.8225 26.8531 49.0591 26.7783 48.2924 26.6972C47.9254 26.6574 47.559 26.6011 47.1921 26.5515C46.3372 26.37 45.4925 26.1596 44.6903 25.8456C44.6095 25.8119 44.5235 25.7809 44.4401 25.7495C44.6246 25.5542 44.8775 25.4227 45.1126 25.2814C46.3092 24.5728 47.6171 24.0737 49.0843 23.8863C49.1016 23.8863 49.1145 23.8757 49.1322 23.8695C49.653 23.8527 50.1792 23.8133 50.6952 23.9381C51.4011 24.1109 51.7653 24.4962 51.7804 25.098C51.7879 25.3925 51.7729 25.6835 51.6793 25.9683Z" fill="white"/>
<g style="mix-blend-mode:multiply" opacity="0.45">
<path d="M42.4671 44.5358C42.7681 44.2065 43.0914 43.8914 43.4356 43.5921L42.777 43.271L41.1855 44.0349C41.6235 44.1895 42.0523 44.3551 42.4671 44.5358Z" fill="white"/>
</g>
<g style="mix-blend-mode:multiply" opacity="0.45">
<path d="M43.5167 44.8382L44.4427 44.0291L45.0662 44.2624L44.2237 45.1035L43.5167 44.8382Z" fill="white"/>
</g>
<g style="mix-blend-mode:multiply" opacity="0.45">
<path d="M23.1207 52.7349L22.7646 53.5236L22.4288 53.4395L22.4826 52.4922C22.7167 52.5768 22.9416 52.66 23.1207 52.7349Z" fill="white"/>
</g>
<g style="mix-blend-mode:multiply" opacity="0.45">
<path d="M24.1371 53.1785L23.782 53.9371C23.9972 54.0523 24.2124 54.1705 24.4142 54.2914L24.8812 53.574C24.6419 53.437 24.3939 53.3051 24.1371 53.1785Z" fill="white"/>
</g>
<defs>
<linearGradient id="paint0_linear_103_15607" x1="32.9878" y1="-32" x2="-31.0122" y2="32" gradientUnits="userSpaceOnUse">
<stop stop-color="#BD7AE3"/>
<stop offset="1" stop-color="#8461C9"/>
</linearGradient>
</defs>
</svg>
