<svg width="21" height="16" viewBox="0 0 21 16" fill="none" xmlns="http://www.w3.org/2000/svg">
<path d="M14.0247 8L11.202 5.17731C10.9326 4.90799 10.9326 4.47132 11.202 4.20199C11.4713 3.93267 11.908 3.93267 12.1773 4.20199L15.4876 7.51234C15.757 7.78167 15.757 8.21833 15.4876 8.48766L12.1773 11.798C11.908 12.0673 11.4713 12.0673 11.202 11.798C10.9326 11.5287 10.9326 11.092 11.202 10.8227L14.0247 8Z" fill="white"/>
<path d="M9.02466 8L6.20198 5.17731C5.93265 4.90799 5.93265 4.47132 6.20198 4.20199C6.4713 3.93267 6.90797 3.93267 7.1773 4.20199L10.4876 7.51234C10.757 7.78167 10.757 8.21833 10.4876 8.48766L7.1773 11.798C6.90797 12.0673 6.4713 12.0673 6.20198 11.798C5.93265 11.5287 5.93265 11.092 6.20198 10.8227L9.02466 8Z" fill="white"/>
</svg>
