<svg width="18" height="18" viewBox="0 0 18 18" fill="none" xmlns="http://www.w3.org/2000/svg">
<g clip-path="url(#clip0_103_16152)">
<path d="M17.5185 6.7095C17.2686 6.44519 17.021 6.17842 16.7646 5.92126C16.6697 5.82569 16.6576 5.74884 16.721 5.62568C16.9625 5.16842 17.087 4.65858 17.0834 4.14159C17.0777 4.02286 17.0797 3.9029 17.0649 3.78491C16.7787 1.51875 14.4119 0.270629 12.3698 1.31282C12.2577 1.37021 12.1926 1.35026 12.1095 1.26849C11.841 1.00467 11.5656 0.748003 11.2925 0.488872C11.146 0.349946 10.987 0.228759 10.7994 0.147719C10.1473 -0.135551 9.48337 -0.00229299 8.95258 0.527546C7.00756 2.46758 5.0636 4.40917 3.12072 6.35233C2.23762 7.2349 1.35057 8.11353 0.47339 9.00202C-0.132355 9.61536 -0.156762 10.5396 0.408797 11.1842C0.665197 11.4763 0.932692 11.7593 1.20807 12.0335C1.32937 12.1542 1.35279 12.2451 1.2665 12.403C1.03747 12.8217 0.929487 13.2819 0.921351 13.7578C0.875741 16.2079 3.41977 17.7999 5.60927 16.691C5.74166 16.624 5.81563 16.6395 5.9135 16.7424C6.16004 17.0021 6.41718 17.2499 6.67013 17.5028C6.81541 17.6512 6.98726 17.771 7.17676 17.8561C7.81456 18.1371 8.49278 18.0039 9.01002 17.4866C11.6933 14.8099 14.376 12.1332 17.058 9.45648C17.2266 9.28824 17.4032 9.12739 17.5622 8.9498C18.1637 8.27364 18.1438 7.37038 17.5185 6.7095ZM6.52023 9.26583C5.95566 9.26829 5.51115 8.83181 5.5109 8.27414C5.51009 8.1422 5.53538 8.0114 5.58532 7.88925C5.63525 7.76711 5.70885 7.65603 5.80189 7.56239C5.89492 7.46875 6.00556 7.3944 6.12744 7.34361C6.24932 7.29282 6.38004 7.26659 6.5121 7.26643C6.77564 7.26681 7.02838 7.37113 7.21536 7.5567C7.40234 7.74227 7.50843 7.99408 7.51058 8.25739C7.51452 8.82294 7.08308 9.26213 6.51925 9.2646L6.52023 9.26583ZM9.52652 11.6083C9.51986 12.3072 8.88872 12.6978 8.32538 12.3776C8.05123 12.2217 7.92032 11.9778 7.92057 11.6633C7.92057 10.8672 7.92057 10.0707 7.92057 9.27396C7.92057 8.46528 7.91638 7.65636 7.9223 6.84769C7.92501 6.46071 8.18806 6.16019 8.57168 6.07841C8.90894 6.00649 9.2716 6.1868 9.43653 6.50603C9.50803 6.64422 9.528 6.79423 9.52824 6.94424C9.53071 8.49755 9.53983 10.0523 9.52553 11.6071L9.52652 11.6083ZM10.936 11.2837C10.3904 11.2857 9.92517 10.8243 9.92394 10.2787C9.92271 9.7331 10.3798 9.27642 10.9347 9.27691C11.1982 9.27723 11.4509 9.38151 11.6377 9.56706C11.8246 9.75261 11.9305 10.0044 11.9325 10.2676C11.9372 10.8201 11.4845 11.2817 10.936 11.2837Z" fill="#D9D9D9"/>
</g>
<defs>
<clipPath id="clip0_103_16152">
<rect width="18" height="18" fill="white"/>
</clipPath>
</defs>
</svg>
