<svg xmlns="http://www.w3.org/2000/svg" width="61" height="61">
    <g transform="translate(2.5 2.5)">
        <circle cx="28" cy="28" r="28" fill="#50d1cb"/>
        <path d="M28-2.5a30.491 30.491 0 0 1 21.567 52.067A30.5 30.5 0 1 1 16.127-.1 30.311 30.311 0 0 1 28-2.5Zm0 56A25.5 25.5 0 1 0 2.5 28 25.529 25.529 0 0 0 28 53.5Z" fill="rgba(28,174,129,0.2)"/>
        <path d="M36.268 25.933h-6.2v-6.2a1.378 1.378 0 0 0-1.379-1.378h-1.378a1.378 1.378 0 0 0-1.378 1.378v6.2h-6.2a1.378 1.378 0 0 0-1.378 1.378v1.378a1.378 1.378 0 0 0 1.378 1.378h6.2v6.2a1.378 1.378 0 0 0 1.378 1.378h1.378a1.378 1.378 0 0 0 1.378-1.378v-6.2h6.2a1.378 1.378 0 0 0 1.378-1.378v-1.378a1.378 1.378 0 0 0-1.377-1.378Z" fill="#fff"/>
    </g>
</svg>
