<svg xmlns="http://www.w3.org/2000/svg" viewBox="0 0 22 22">
    <defs>
        <clipPath id="a">
            <path class="a" d="M6.86 22a1.006 1.006 0 0 1-.707-.293l-5.86-5.86A1.006 1.006 0 0 1 0 15.14V6.86a1.006 1.006 0 0 1 .293-.707l5.86-5.86A1.006 1.006 0 0 1 6.86 0h8.28a1.006 1.006 0 0 1 .707.293l5.86 5.861A1.006 1.006 0 0 1 22 6.86v8.28a1.006 1.006 0 0 1-.293.707l-5.86 5.86a1.006 1.006 0 0 1-.707.293ZM2 7.274v7.452L7.274 20h7.452L20 14.726V7.274L14.726 2H7.274Zm8.294 7.433A1 1 0 1 1 11 15a1 1 0 0 1-.707-.293ZM10 11V7a1 1 0 1 1 2 0v4a1 1 0 0 1-2 0Z" transform="translate(1 1)"/>
        </clipPath>
        <filter id="b" x="-61" y="-43" width="144" height="144" filterUnits="userSpaceOnUse">
            <feOffset dy="18"/>
            <feGaussianBlur stdDeviation="20" result="c"/>
            <feFlood flood-color="#6b67d2" flood-opacity=".349"/>
            <feComposite operator="in" in2="c"/>
            <feComposite in="SourceGraphic"/>
        </filter>
        <style>
            .a{fill:#fff}
        </style>
    </defs>
    <path class="a" d="M6.86 22a1.006 1.006 0 0 1-.707-.293l-5.86-5.86A1.006 1.006 0 0 1 0 15.14V6.86a1.006 1.006 0 0 1 .293-.707l5.86-5.86A1.006 1.006 0 0 1 6.86 0h8.28a1.006 1.006 0 0 1 .707.293l5.86 5.861A1.006 1.006 0 0 1 22 6.86v8.28a1.006 1.006 0 0 1-.293.707l-5.86 5.86a1.006 1.006 0 0 1-.707.293ZM2 7.274v7.452L7.274 20h7.452L20 14.726V7.274L14.726 2H7.274Zm8.294 7.433A1 1 0 1 1 11 15a1 1 0 0 1-.707-.293ZM10 11V7a1 1 0 1 1 2 0v4a1 1 0 0 1-2 0Z"/>
    <g style="clip-path:url(#a)" transform="translate(-1 -1)">
        <path class="a" d="M0 0h24v24H0z" style="filter:url(#b)"/>
    </g>
</svg>
