<svg xmlns="http://www.w3.org/2000/svg" viewBox="0 0 20 22">
    <defs>
        <clipPath id="a">
            <path data-name="Combined Shape" d="M3 22a3 3 0 0 1-3-3V5a3 3 0 0 1 3-3h2V1a1 1 0 0 1 2 0v1h6V1a1 1 0 0 1 2 0v1h2a3 3 0 0 1 3 3v14a3 3 0 0 1-3 3Zm-1-3a1 1 0 0 0 1 1h14a1 1 0 0 0 1-1v-9H2ZM18 8V5a1 1 0 0 0-1-1h-2v1a1 1 0 0 1-2 0V4H7v1a1 1 0 0 1-2 0V4H3a1 1 0 0 0-1 1v3Z" transform="translate(2 1)"/>
        </clipPath>
        <filter id="b" x="-62" y="-43" width="144" height="144" filterUnits="userSpaceOnUse">
            <feOffset dy="18"/>
            <feGaussianBlur stdDeviation="20" result="blur"/>
            <feFlood flood-color="#6b67d2" flood-opacity=".349"/>
            <feComposite operator="in" in2="blur"/>
            <feComposite in="SourceGraphic"/>
        </filter>
    </defs>
    <g data-name="Icon / calendar">
        <g data-name="Group 148">
            <path data-name="Combined Shape" d="M3 22a3 3 0 0 1-3-3V5a3 3 0 0 1 3-3h2V1a1 1 0 0 1 2 0v1h6V1a1 1 0 0 1 2 0v1h2a3 3 0 0 1 3 3v14a3 3 0 0 1-3 3Zm-1-3a1 1 0 0 0 1 1h14a1 1 0 0 0 1-1v-9H2ZM18 8V5a1 1 0 0 0-1-1h-2v1a1 1 0 0 1-2 0V4H7v1a1 1 0 0 1-2 0V4H3a1 1 0 0 0-1 1v3Z"/>
            <g style="clip-path:url(#a)" transform="translate(-2 -1)">
                <g style="filter:url(#b)" data-name="Mask Group 148">
                    <path data-name="↳ Icon Color" style="fill:#5933f1" d="M0 0h24v24H0z"/>
                </g>
            </g>
        </g>
    </g>
</svg>
