<svg width="25" height="17" viewBox="0 0 25 17" fill="none" xmlns="http://www.w3.org/2000/svg">
<path d="M23.9335 3.03681C23.9016 2.6336 23.7543 2.27235 23.4414 2.00129C22.9744 1.59783 22.4176 1.48304 21.8206 1.5537C21.1126 1.63763 20.4503 1.87082 19.8232 2.20482C19.3305 2.46925 18.8714 2.79173 18.4557 3.16535C18.3086 3.29654 18.2449 3.3016 18.0771 3.20249C17.7699 3.02114 17.463 2.83914 17.1563 2.65651C16.3305 2.1631 15.4851 1.70949 14.5793 1.37669C13.9807 1.15652 13.3674 1.00676 12.7253 1.00001C12.3738 0.999339 12.0234 1.03735 11.6802 1.11335C11.5619 1.14904 11.4414 1.17871 11.3252 1.22115C10.6776 1.45676 10.142 1.86118 9.67116 2.35145C9.19449 2.84654 8.78399 3.39083 8.47659 4.00915C8.18997 4.586 7.98689 5.19395 7.79033 5.80456C7.39093 7.04531 7.01761 8.29401 6.63584 9.53982C6.58924 9.69175 6.57837 9.69923 6.43446 9.63194C6.02039 9.43687 5.57787 9.3089 5.1235 9.25285C4.62486 9.19232 4.13346 9.21716 3.65897 9.39609C3.14873 9.58902 2.72809 9.91506 2.34608 10.2917C1.70762 10.9212 1.31257 11.6866 1.10587 12.5543C0.959058 13.1702 0.94819 13.7815 1.18049 14.3793C1.43259 15.0283 1.83657 15.5506 2.49965 15.821C3.18061 16.0985 3.84394 16.0662 4.45945 15.6333C4.75381 15.4264 4.96654 15.1416 5.16189 14.8448C5.51686 14.3068 5.76872 13.7183 6.0015 13.1212C6.31251 12.3237 6.59166 11.5144 6.8708 10.7053C6.93334 10.524 6.95604 10.5148 7.10623 10.6166C7.38368 10.8016 7.64667 11.0075 7.89295 11.2323C8.51112 11.805 9.10949 12.3997 9.76727 12.9293C10.4917 13.5119 11.2113 14.0998 12.0984 14.4297C12.1325 14.4384 12.1668 14.4459 12.2003 14.4565C12.6956 14.613 13.2013 14.6928 13.719 14.6198C14.54 14.5038 15.192 14.0986 15.6836 13.4369C16.0458 12.9502 16.2709 12.3978 16.4367 11.8212C16.6058 11.2356 16.6925 10.6349 16.7625 10.0306C16.8038 9.67463 16.8448 9.31868 16.8806 8.96225C16.953 8.24674 17.0124 7.53003 17.1319 6.82031C17.2841 5.91477 17.6149 5.08206 18.1613 4.33833C18.264 4.1987 18.3347 4.15553 18.5281 4.24332C19.2567 4.57322 19.9717 4.93302 20.714 5.23205C21.3324 5.48213 21.9643 5.62851 22.6344 5.49057C22.9684 5.42184 23.2622 5.27884 23.5003 5.02804C23.864 4.64556 23.9306 4.15698 23.9936 3.66816C24.0214 3.45473 23.9502 3.24782 23.9335 3.03681ZM6.3427 10.3197C5.99739 11.3164 5.63518 12.3076 5.13147 13.2406C4.86826 13.7285 4.5599 14.1811 4.15664 14.567C3.57348 15.1228 2.87683 14.7478 2.66675 14.2428C2.52187 13.8961 2.47961 13.5302 2.49289 13.1605C2.51704 12.5036 2.6938 11.8896 3.06542 11.341C3.37596 10.8828 3.76715 10.5076 4.26023 10.2476C4.53649 10.1019 4.84302 10.0227 5.15537 10.0163C5.53795 10.0146 5.91812 10.0768 6.28015 10.2003C6.34028 10.2201 6.36636 10.2508 6.3427 10.319V10.3197ZM17.6794 4.02555C17.0902 4.75432 16.7775 5.61139 16.5312 6.4986C16.2677 7.44828 16.0405 8.40832 15.7493 9.35051C15.5225 10.0846 15.2757 10.8119 14.9319 11.5016C14.7537 11.8583 14.5516 12.2024 14.2671 12.4872C13.915 12.8393 13.4775 12.9669 12.9897 12.9351C12.6364 12.9101 12.2885 12.8352 11.9562 12.7127C11.4421 12.5511 10.9609 12.3167 10.4984 12.0442C9.67019 11.5566 8.84395 11.0655 8.01973 10.5708C7.77994 10.4261 7.54765 10.2708 7.31366 10.1174C7.16877 10.0221 7.15042 9.96281 7.20548 9.7981C7.51481 8.87254 7.82679 7.94747 8.203 7.04699C8.56304 6.18486 8.92863 5.32128 9.42872 4.5286C9.97686 3.66044 10.7018 2.97098 11.644 2.53014C11.7444 2.48096 11.8483 2.43913 11.9548 2.40498C12.3464 2.24124 12.7555 2.18794 13.1757 2.22532C13.9368 2.29212 14.6498 2.53569 15.3489 2.82821C16.1289 3.15546 16.8786 3.54758 17.6456 3.90304C17.7059 3.93126 17.7262 3.96719 17.6794 4.02531V4.02555ZM23.0367 3.76559C22.9481 4.09766 22.7295 4.27032 22.3944 4.32483C22.087 4.3745 21.7818 4.34677 21.4768 4.32049C20.7444 4.25754 20.0311 4.10634 19.3472 3.83046C19.2265 3.78222 19.1084 3.72965 18.9906 3.67587C18.8409 3.60763 18.838 3.58207 18.9679 3.47644C19.2667 3.23065 19.5891 3.0149 19.9304 2.83231C20.4585 2.55281 21.0151 2.35892 21.6089 2.27765C21.7319 2.26231 21.856 2.25682 21.98 2.26125C22.1306 2.26092 22.2807 2.27873 22.427 2.31431C22.8512 2.42572 23.0789 2.69895 23.1031 3.13424C23.1146 3.34679 23.0921 3.55981 23.0367 3.76534V3.76559Z" fill="#FDFDFE" stroke="white" stroke-width="1.3" stroke-miterlimit="10"/>
</svg>
