<svg width="15" height="12" viewBox="0 0 15 12" fill="none" xmlns="http://www.w3.org/2000/svg">
<path d="M7.50417 11.9899H0.58028C0.504143 11.9914 0.427974 11.9884 0.352297 11.9809C0.251324 11.9678 0.159448 11.9223 0.0944518 11.8531C0.0294552 11.784 -0.00406676 11.6961 0.000394285 11.6065C0.00485533 11.5169 0.0469708 11.4319 0.118592 11.368C0.190212 11.3041 0.286275 11.2658 0.388163 11.2606C0.594369 11.2527 0.800554 11.2504 1.00676 11.2606C1.06445 11.2672 1.12303 11.2575 1.17411 11.2331C1.22519 11.2086 1.26614 11.1705 1.29109 11.1244C2.19447 9.8443 3.10169 8.56574 4.01275 7.28868C4.03581 7.25604 4.05758 7.22341 4.08064 7.19189C4.25354 6.95779 4.48536 6.9139 4.74536 7.07934C5.33025 7.441 5.91431 7.80566 6.49749 8.17333C6.59611 8.23635 6.63711 8.23298 6.70499 8.13844C7.56568 6.9199 8.43106 5.70287 9.30114 4.48734C9.34571 4.42231 9.36712 4.34705 9.36262 4.27124C9.36262 3.00618 9.36262 1.74151 9.36262 0.477208C9.36262 0.123803 9.5009 0 9.89538 0H13.2357C13.6135 0 13.7582 0.12718 13.7582 0.45695C13.7582 1.0197 13.7582 1.57344 13.7582 2.13168C13.7582 2.42319 13.602 2.5605 13.2703 2.5605C12.3033 2.5605 11.3363 2.5605 10.3693 2.5605C10.2348 2.5605 10.1964 2.59088 10.1977 2.71018C10.2054 3.24479 10.1977 3.7794 10.1977 4.31401C10.1971 4.39192 10.2168 4.46893 10.2553 4.53911C11.4276 6.73457 12.5979 8.93153 13.7659 11.13C13.7795 11.1751 13.8117 11.2142 13.8561 11.2398C13.9006 11.2653 13.9542 11.2755 14.0067 11.2684C14.1966 11.2594 14.3868 11.2594 14.5767 11.2684C14.6313 11.2676 14.6856 11.2763 14.7365 11.2939C14.7873 11.3115 14.8337 11.3378 14.8731 11.3712C14.9124 11.4046 14.9438 11.4444 14.9656 11.4885C14.9874 11.5326 14.999 11.58 14.9999 11.628C15.0009 11.6761 14.991 11.7238 14.971 11.7685C14.9509 11.8132 14.9211 11.8539 14.8831 11.8885C14.8451 11.923 14.7997 11.9507 14.7495 11.9698C14.6994 11.9889 14.6454 11.9992 14.5908 12C14.5254 12 14.4627 12 14.3948 12L7.50417 11.9899ZM2.18764 11.238H12.9257C11.8614 9.24029 10.8035 7.25942 9.74554 5.27293C9.69026 5.31026 9.64628 5.35896 9.61746 5.41474C8.79349 6.571 7.9708 7.72688 7.14939 8.88238C6.94703 9.16713 6.73186 9.20428 6.41935 9.00844C5.85709 8.65841 5.29356 8.30951 4.73641 7.95385C4.61986 7.87957 4.56863 7.87619 4.48026 7.99324C3.75662 9.02307 3.02272 10.0484 2.29267 11.0748C2.26321 11.1255 2.23118 11.1773 2.18764 11.238ZM11.5643 0.718065C11.1519 0.718065 10.7407 0.718065 10.3283 0.718065C10.2284 0.718065 10.2003 0.743951 10.2003 0.830614C10.2003 1.12662 10.2003 1.42149 10.2003 1.7175C10.2003 1.79741 10.2284 1.82442 10.3219 1.82442C11.1459 1.82442 11.9699 1.82442 12.7938 1.82442C12.8937 1.82442 12.9219 1.79741 12.9219 1.71187C12.9219 1.42149 12.9155 1.13112 12.9219 0.84074C12.9219 0.745073 12.8873 0.719186 12.7823 0.720311C12.3775 0.725938 11.9716 0.722564 11.5643 0.722564V0.718065Z" fill="white"/>
</svg>
