<svg width="16" height="9" viewBox="0 0 16 9" fill="none" xmlns="http://www.w3.org/2000/svg">
<g clip-path="url(#clip0_14582_2135)">
<path d="M16 8.6526C15.9009 8.91039 15.6992 8.99954 15.4166 8.99954C10.4703 8.99954 5.52405 8.99954 0.577772 8.99954C0.166406 8.99954 0.00113952 8.84272 0 8.45496C0 7.7482 0 7.04143 0 6.33466C0 5.9802 0.152713 5.82661 0.531034 5.79761C1.47684 5.73101 2.06597 4.90716 1.75374 4.06183C1.568 3.55915 1.16691 3.28096 0.608541 3.20792C0.54131 3.19933 0.472936 3.19932 0.406844 3.18965C0.294843 3.17797 0.191372 3.1276 0.116456 3.04826C0.0415402 2.96891 0.000484867 2.86622 0.00116845 2.76001C0.00116845 1.98879 0.00116845 1.2183 0.00116845 0.44852C-0.000649379 0.339361 0.0416835 0.233643 0.119572 0.152843C0.19746 0.0720442 0.305026 0.0222187 0.420476 0.0134984C0.472282 0.00775319 0.524447 0.00524723 0.576604 0.00598534C5.52288 0.00598534 10.4692 0.00598534 15.4155 0.00598534C15.6981 0.00598534 15.8997 0.0940606 15.9988 0.352922V2.87924C15.8849 3.11232 15.6787 3.19395 15.4109 3.20899C15.0698 3.23837 14.7526 3.38688 14.5217 3.62535C14.2908 3.86382 14.1627 4.17504 14.1627 4.49792C14.1627 4.8208 14.2908 5.13203 14.5217 5.3705C14.7526 5.60898 15.0698 5.75748 15.4109 5.78686C15.6787 5.8019 15.8803 5.88353 15.9988 6.11661L16 8.6526ZM10.2295 0.87494C8.66719 0.87494 7.10492 0.87494 5.54264 0.87494C5.41388 0.87494 5.37625 0.907164 5.37967 1.02961C5.38765 1.38729 5.37967 1.74605 5.37967 2.10373C5.38449 2.17616 5.37604 2.24884 5.35463 2.31855C5.31996 2.41188 5.25274 2.49137 5.16395 2.54404C5.07516 2.59672 4.97004 2.61946 4.86577 2.60856C4.75837 2.59773 4.65873 2.55068 4.58523 2.47607C4.51173 2.40145 4.46928 2.30431 4.46577 2.20254C4.45893 1.79975 4.46007 1.39696 4.46577 0.99524C4.46577 0.89857 4.43618 0.870646 4.33363 0.870646C3.24045 0.870646 2.14688 0.870646 1.05294 0.870646C0.951526 0.870646 0.919602 0.89857 0.920741 0.99524C0.926439 1.40663 0.927578 1.81909 0.920741 2.23155C0.920741 2.33896 0.953783 2.37441 1.05862 2.40126C1.54746 2.52555 1.97915 2.79836 2.28677 3.17741C2.5944 3.55647 2.76081 4.02059 2.76016 4.49784C2.75952 4.97508 2.59187 5.4388 2.28321 5.81711C1.97456 6.19542 1.54212 6.46719 1.05294 6.5903C0.958363 6.61501 0.918462 6.65045 0.920741 6.74819C0.926059 7.16065 0.926059 7.57312 0.920741 7.98558C0.920741 8.08654 0.948114 8.11876 1.05979 8.11876C2.14765 8.11447 3.23588 8.11447 4.3245 8.11876C4.44985 8.11876 4.46691 8.0758 4.46577 7.97376C4.46007 7.61071 4.46577 7.24658 4.46577 6.88353C4.46071 6.81491 4.46766 6.74597 4.4863 6.67945C4.51962 6.58293 4.58751 6.50033 4.67837 6.44585C4.76924 6.39137 4.87741 6.36839 4.98429 6.38085C5.09152 6.39277 5.19051 6.44091 5.26299 6.51634C5.33548 6.59177 5.37655 6.6894 5.37856 6.79116C5.38653 7.18858 5.38539 7.586 5.37856 7.98342C5.37856 8.08439 5.40362 8.11769 5.51643 8.11769C8.65695 8.11769 11.7971 8.11769 14.9368 8.11769C15.0451 8.11769 15.0781 8.08976 15.077 7.98665C15.0713 7.57849 15.0702 7.1714 15.077 6.76431C15.081 6.74345 15.0804 6.72202 15.0752 6.7014C15.07 6.68077 15.0602 6.6614 15.0466 6.64452C15.033 6.62764 15.0158 6.61362 14.9961 6.60336C14.9765 6.5931 14.9547 6.58683 14.9323 6.58493C14.4426 6.46197 14.0097 6.18997 13.7009 5.8112C13.3921 5.43243 13.2247 4.96811 13.2247 4.49041C13.2247 4.01271 13.3921 3.5484 13.7009 3.16963C14.0097 2.79086 14.4426 2.51885 14.9323 2.39589C15.0348 2.37011 15.0736 2.33252 15.0713 2.22833C15.0645 1.83091 15.0633 1.4324 15.0713 1.03498C15.0713 0.90394 15.0394 0.864201 14.8924 0.864201C13.3438 0.877091 11.7861 0.87494 10.2295 0.87494Z" fill="white"/>
<path d="M5.38198 4.5009C5.38198 4.69209 5.38198 4.88329 5.38198 5.0734C5.38153 5.12983 5.3693 5.18561 5.34598 5.23758C5.32265 5.28954 5.28869 5.33667 5.24605 5.37627C5.2034 5.41586 5.1529 5.44715 5.09743 5.46836C5.04196 5.48956 4.98263 5.50025 4.92277 5.49982C4.86292 5.4994 4.80375 5.48787 4.74862 5.46588C4.69349 5.4439 4.64346 5.4119 4.60145 5.37171C4.55944 5.33151 4.52624 5.28391 4.50374 5.23162C4.48125 5.17933 4.46991 5.12338 4.47036 5.06696C4.47036 4.6903 4.47036 4.31329 4.47036 3.93591C4.46976 3.87949 4.481 3.82351 4.50335 3.77117C4.52571 3.71883 4.55877 3.67115 4.60067 3.63085C4.64257 3.59055 4.69249 3.55843 4.74756 3.53632C4.80263 3.51421 4.86175 3.50254 4.92161 3.50197C4.98146 3.50141 5.0409 3.51197 5.09643 3.53304C5.15196 3.55411 5.20252 3.58528 5.24527 3.62477C5.28802 3.66427 5.32207 3.71132 5.34553 3.76323C5.36899 3.81514 5.38138 3.8709 5.38198 3.92732C5.38539 4.11636 5.38198 4.30756 5.38198 4.5009Z" fill="white"/>
</g>
<defs>
<clipPath id="clip0_14582_2135">
<rect width="16" height="9" fill="white"/>
</clipPath>
</defs>
</svg>
