<svg width="21" height="21" viewBox="0 0 21 21" fill="none" xmlns="http://www.w3.org/2000/svg">
<path d="M0 5.32915C0.100935 5.05158 0.210281 4.78242 0.445796 4.58476C0.609815 4.45018 0.790657 4.34083 1.00514 4.29878C1.93038 4.10952 2.83038 3.82354 3.743 3.57961C8.12526 2.41045 12.5075 1.23288 16.8898 0.0595075C17.6973 -0.159185 18.3786 0.236142 18.5973 1.06044C19.3543 3.88242 20.1029 6.7086 20.8725 9.52636C20.9945 9.96795 20.9903 10.3717 20.8725 10.8091C20.1071 13.631 19.3585 16.453 18.6015 19.275C18.3786 20.1035 17.7015 20.4904 16.873 20.2675C11.8514 18.9217 6.83414 17.5801 1.81262 16.2301C1.56449 16.1628 1.32477 16.0829 1.06823 16.0409C0.53832 15.9526 0.197664 15.6161 0.0462618 15.0946C0.0378506 15.061 0.0168225 15.0357 0.00420562 15.0021C0.00420562 11.7764 0.00420562 8.55486 0.00420562 5.32915H0ZM9.18508 15.4142C11.7589 15.4142 14.337 15.4142 16.9108 15.4142C17.4617 15.4142 17.7099 15.1661 17.7099 14.611C17.7099 11.646 17.7099 8.68103 17.7099 5.71607C17.7099 5.16934 17.4575 4.917 16.9066 4.917C11.7547 4.917 6.60283 4.917 1.45515 4.917C0.904209 4.917 0.656077 5.16513 0.656077 5.72027C0.656077 8.68524 0.656077 11.6502 0.656077 14.6152C0.656077 15.1661 0.904209 15.4142 1.45935 15.4142C4.03319 15.4142 6.61124 15.4142 9.18508 15.4142ZM3.91543 16.0703C3.91543 16.0703 3.91123 16.0955 3.90702 16.104C3.97011 16.1208 4.03319 16.1418 4.09628 16.1586C5.90469 16.6423 7.71311 17.1259 9.52153 17.6138C12.0281 18.2867 14.5304 18.9596 17.037 19.6325C17.4912 19.7544 17.8234 19.5778 17.9412 19.1446C18.7276 16.2259 19.5099 13.303 20.2879 10.3843C20.4057 9.95113 20.2206 9.6315 19.7832 9.50954C19.3837 9.39599 18.98 9.29926 18.5804 9.1815C18.4038 9.12683 18.3533 9.15206 18.3533 9.34972C18.3617 11.1203 18.3407 12.8867 18.3659 14.6572C18.3786 15.4521 17.7603 16.0829 16.9402 16.0787C12.6799 16.0619 8.41545 16.0703 4.15515 16.0703H3.91123H3.91543ZM3.90702 4.23148C3.90702 4.23148 3.90702 4.25672 3.91123 4.26934H4.14674C8.41545 4.26934 12.6842 4.27775 16.9529 4.26092C17.7561 4.26092 18.3996 4.87915 18.3702 5.68663C18.3365 6.54458 18.3702 7.40673 18.3575 8.26888C18.3575 8.40346 18.4038 8.45813 18.5258 8.48757C18.9463 8.59272 19.3711 8.70206 19.7875 8.82402C19.9725 8.8787 19.9893 8.83664 19.9431 8.66421C19.5183 7.09972 19.1019 5.53523 18.6856 3.96653C18.4417 3.05391 18.1977 2.13708 17.9496 1.22446C17.8276 0.770256 17.508 0.581004 17.0496 0.702967C16.772 0.774463 16.4987 0.85437 16.2211 0.930071C12.6715 1.88054 9.11779 2.83101 5.56824 3.78148C5.0131 3.92868 4.45796 4.08008 3.90282 4.23148H3.90702Z" fill="white"/>
<path d="M8.31873 7.54146C8.78134 7.54146 9.23135 7.54146 9.68135 7.54146C10.0893 7.54146 10.165 7.62136 10.165 8.03351C10.165 8.49613 10.165 8.96296 10.165 9.42557C10.165 9.72417 10.0556 9.84614 9.76125 9.82931C9.55518 9.8167 9.50471 9.87557 9.50471 10.0859C9.51733 11.3896 9.50892 12.6933 9.50892 14.0013C9.50892 14.3251 9.40798 14.4303 9.08415 14.4303C6.96872 14.4303 4.84909 14.4303 2.73366 14.4303C2.39721 14.4303 2.30048 14.3335 2.30048 13.9887C2.30048 12.6765 2.30048 11.3644 2.30048 10.0522C2.30048 9.8924 2.27945 9.82511 2.0944 9.83352C1.72852 9.84614 1.6402 9.74941 1.6402 9.37511C1.6402 8.89146 1.6402 8.40361 1.6402 7.91996C1.6402 7.65921 1.75375 7.54566 2.0145 7.54146C2.49814 7.54146 2.98179 7.54146 3.48226 7.54146C3.436 7.35641 3.38133 7.18818 3.38974 7.01155C3.41918 6.21248 4.15937 5.72463 4.99208 5.96435C5.28647 6.04846 5.55143 6.19566 5.74909 6.42697C5.86264 6.55734 5.91732 6.58257 6.0519 6.43538C6.41358 6.03584 6.8804 5.86341 7.41452 5.90967C8.09162 5.96855 8.56686 6.68772 8.3776 7.348C8.36078 7.40688 8.34396 7.46576 8.32293 7.54146H8.31873ZM4.92058 11.8228C4.92058 11.2214 4.91638 10.62 4.92058 10.0186C4.92058 9.86296 4.87432 9.82511 4.72712 9.82931C4.1888 9.83772 3.64628 9.83772 3.10796 9.82931C2.986 9.82931 2.94394 9.85875 2.94394 9.98913C2.94815 11.1961 2.94815 12.4074 2.94394 13.6144C2.94394 13.7447 2.986 13.7742 3.10796 13.7742C3.64628 13.77 4.1888 13.7658 4.72712 13.7742C4.87853 13.7742 4.92479 13.7405 4.92058 13.5849C4.91217 12.9961 4.92058 12.4116 4.92058 11.8228ZM6.88461 11.7807C6.88461 12.3821 6.88881 12.9835 6.88461 13.5849C6.88461 13.7405 6.93087 13.7784 7.07807 13.7742C7.61639 13.7658 8.15891 13.7658 8.69723 13.7742C8.81919 13.7742 8.86125 13.749 8.86125 13.6186C8.85704 12.4116 8.85704 11.2003 8.86125 9.99334C8.86125 9.86296 8.8234 9.83352 8.69723 9.83352C8.1505 9.83772 7.60377 9.84193 7.05704 9.83352C6.90143 9.83352 6.8804 9.8924 6.88461 10.0228C6.88881 10.6116 6.88461 11.1961 6.88461 11.7849V11.7807ZM6.22853 10.9901V8.63492C6.22853 8.18912 6.22853 8.19753 5.78274 8.18912C5.61451 8.18912 5.56825 8.22697 5.56825 8.3994C5.57666 10.0312 5.57245 11.663 5.57245 13.2947C5.57245 13.7742 5.57245 13.7658 6.04769 13.7742C6.21591 13.7742 6.23274 13.7111 6.23274 13.5723C6.22853 12.7102 6.23274 11.8522 6.23274 10.9901H6.22853ZM3.62525 8.19333C3.23413 8.19333 2.84721 8.19753 2.45609 8.19333C2.3173 8.19333 2.28366 8.23538 2.28786 8.36576C2.29627 8.58866 2.29627 8.81576 2.28786 9.04286C2.28786 9.148 2.3131 9.18585 2.42244 9.18585C3.20889 9.18165 3.99114 9.18165 4.77759 9.18585C4.88694 9.18585 4.91638 9.148 4.91638 9.04286C4.90797 8.81576 4.90797 8.59286 4.91638 8.36576C4.92058 8.23538 4.88694 8.18912 4.74815 8.19333C4.37385 8.20174 3.99535 8.19333 3.62105 8.19333H3.62525ZM8.17573 9.17744C8.56686 9.17744 8.95377 9.17324 9.3449 9.17744C9.48368 9.17744 9.51733 9.13539 9.51312 9.00501C9.50471 8.78211 9.50471 8.55501 9.51312 8.32791C9.51312 8.22277 9.48789 8.18492 9.37854 8.18492C8.59209 8.18912 7.80985 8.18912 7.02339 8.18492C6.91405 8.18492 6.88461 8.22277 6.88461 8.32791C6.89302 8.55501 6.89302 8.77791 6.88461 9.00501C6.8804 9.13539 6.91405 9.18165 7.05283 9.17744C7.42713 9.16903 7.80564 9.17744 8.17994 9.17744H8.17573ZM4.99628 7.53725C5.14769 7.53725 5.29488 7.53725 5.44629 7.53725C5.54722 7.53725 5.57245 7.51622 5.55143 7.40688C5.47152 6.96529 5.11404 6.62463 4.64722 6.55734C4.34862 6.51528 4.07946 6.70454 4.05002 6.98211C4.02058 7.28491 4.22666 7.51622 4.54208 7.53304C4.69348 7.54146 4.84068 7.53304 4.99208 7.53304L4.99628 7.53725ZM6.8005 7.53725C6.96452 7.53725 7.12853 7.54566 7.29255 7.53304C7.58695 7.50781 7.7762 7.2723 7.75097 6.98631C7.72573 6.72977 7.49442 6.54052 7.22106 6.55314C6.78788 6.57416 6.38834 6.88958 6.27479 7.30594C6.23274 7.46015 6.29302 7.53725 6.45564 7.53725C6.57339 7.53725 6.68694 7.53725 6.8047 7.53725H6.8005Z" fill="white"/>
<path d="M13.9458 6.55762C14.7365 6.55762 15.5271 6.55762 16.3178 6.55762C16.5785 6.55762 16.7215 6.67537 16.7215 6.88566C16.7215 7.09594 16.5785 7.2137 16.3178 7.2137C14.7281 7.2137 13.1383 7.2137 11.5486 7.2137C11.2879 7.2137 11.1449 7.09594 11.1491 6.88566C11.1491 6.67537 11.2879 6.56182 11.5528 6.56182C12.3519 6.56182 13.1467 6.56182 13.9458 6.56182V6.55762Z" fill="white"/>
<path d="M13.9374 8.19629C14.7281 8.19629 15.5187 8.19629 16.3094 8.19629C16.5785 8.19629 16.7131 8.30564 16.7215 8.51592C16.7257 8.73461 16.5827 8.85237 16.3052 8.85237C14.7239 8.85237 13.1425 8.85237 11.557 8.85237C11.2921 8.85237 11.1533 8.74302 11.1491 8.53274C11.1449 8.31405 11.2879 8.19629 11.5654 8.19629C12.3561 8.19629 13.1467 8.19629 13.9374 8.19629Z" fill="white"/>
<path d="M13.9332 10.4937C13.1425 10.4937 12.3519 10.4937 11.5612 10.4937C11.2963 10.4937 11.1575 10.3843 11.1533 10.174C11.1491 9.95535 11.2921 9.8418 11.5696 9.8418C13.151 9.8418 14.7323 9.8418 16.3178 9.8418C16.5827 9.8418 16.7215 9.95114 16.7257 10.1614C16.7299 10.3801 16.587 10.4979 16.3094 10.4979C15.5187 10.4979 14.7281 10.4979 13.9374 10.4979L13.9332 10.4937Z" fill="white"/>
<path d="M13.9332 11.4775C14.7449 11.4775 15.5566 11.4775 16.3683 11.4775C16.5113 11.4775 16.6206 11.528 16.6879 11.6542C16.7468 11.7677 16.7384 11.8771 16.6711 11.9822C16.6038 12.0874 16.5028 12.1294 16.3767 12.1294C14.7533 12.1294 13.1299 12.1294 11.5066 12.1294C11.2837 12.1294 11.1491 11.9948 11.1533 11.7972C11.1533 11.5995 11.2921 11.4775 11.5234 11.4775C12.3267 11.4775 13.1341 11.4775 13.9374 11.4775H13.9332Z" fill="white"/>
<path d="M13.9374 13.7694C13.1257 13.7694 12.3141 13.7694 11.5024 13.7694C11.3594 13.7694 11.25 13.7189 11.1827 13.5885C11.1239 13.475 11.1323 13.3656 11.1996 13.2605C11.2669 13.1553 11.3678 13.1133 11.494 13.1133C13.1173 13.1133 14.7407 13.1133 16.3641 13.1133C16.587 13.1133 16.7215 13.2479 16.7173 13.4455C16.7173 13.6432 16.5786 13.7652 16.3472 13.7652C15.544 13.7652 14.7365 13.7652 13.9332 13.7652L13.9374 13.7694Z" fill="white"/>
</svg>
