<?xml version="1.0" standalone="no"?>
<!DOCTYPE svg PUBLIC "-//W3C//DTD SVG 20010904//EN"
 "http://www.w3.org/TR/2001/REC-SVG-20010904/DTD/svg10.dtd">
<svg version="1.0" xmlns="http://www.w3.org/2000/svg"
 width="512.000000pt" height="512.000000pt" viewBox="0 0 512.000000 512.000000"
 preserveAspectRatio="xMidYMid meet">

<g transform="translate(0.000000,512.000000) scale(0.100000,-0.100000)"
fill="#000000" stroke="none">
<path d="M2480 4574 c-68 -18 -140 -64 -185 -117 -20 -23 -169 -306 -346 -656
-171 -339 -319 -624 -328 -634 -8 -10 -24 -17 -36 -15 -11 3 -202 141 -425
307 -222 167 -420 313 -440 326 -117 74 -265 86 -357 29 -60 -37 -108 -100
-128 -166 -35 -118 -31 -138 192 -1121 l207 -912 6 -330 c6 -325 6 -331 32
-399 51 -133 143 -236 263 -295 122 -59 35 -56 1635 -56 l1475 0 71 26 c164
60 275 171 336 335 20 55 22 83 28 389 l6 330 207 912 c223 983 227 1003 192
1121 -20 66 -68 129 -128 166 -87 53 -230 46 -337 -17 -19 -12 -222 -160 -450
-331 -228 -170 -424 -311 -435 -314 -12 -2 -28 5 -37 15 -8 10 -156 297 -329
637 -292 578 -317 624 -370 677 -89 89 -209 124 -319 93z m354 -1051 c147
-295 285 -562 306 -593 142 -210 439 -266 654 -124 22 15 173 126 333 245 161
120 293 214 293 209 0 -16 -321 -1433 -326 -1442 -7 -11 -3061 -10 -3068 0 -6
9 -326 1426 -326 1442 0 5 110 -72 245 -173 377 -280 411 -304 472 -327 183
-69 382 -26 516 113 54 56 79 102 340 624 155 309 284 563 287 563 3 0 126
-242 274 -537z m1216 -2308 c0 -114 -4 -183 -12 -200 -26 -58 56 -55 -1478
-55 -1299 0 -1414 1 -1440 17 -45 26 -50 50 -50 238 l0 175 1490 0 1490 0 0
-175z"/>
</g>
</svg>
