<?xml version="1.0" standalone="no"?>
<!DOCTYPE svg PUBLIC "-//W3C//DTD SVG 20010904//EN"
 "http://www.w3.org/TR/2001/REC-SVG-20010904/DTD/svg10.dtd">
<svg version="1.0" xmlns="http://www.w3.org/2000/svg"
 width="512.000000pt" height="512.000000pt" viewBox="0 0 512.000000 512.000000"
 preserveAspectRatio="xMidYMid meet">

<g transform="translate(0.000000,512.000000) scale(0.100000,-0.100000)"
fill="#000000" stroke="none">
<path d="M2192 3637 c-199 -342 -366 -628 -371 -636 -6 -10 -158 123 -592 517
-321 292 -584 530 -585 529 -1 -1 93 -526 210 -1167 l211 -1165 1495 0 1495 0
211 1165 c117 641 211 1166 211 1167 -1 1 -265 -237 -586 -529 -440 -400 -585
-527 -592 -517 -5 8 -172 294 -371 636 -200 343 -365 623 -368 623 -3 0 -168
-280 -368 -623z"/>
<path d="M1070 1142 c0 -126 2 -143 23 -183 16 -29 40 -54 72 -74 l48 -30
1347 0 1347 0 48 30 c32 20 56 45 72 74 21 40 23 57 23 183 l0 138 -1490 0
-1490 0 0 -138z"/>
</g>
</svg>
