<svg xmlns="http://www.w3.org/2000/svg" viewBox="0 0 15.541 17.095">
    <defs>
        <clipPath id="a">
            <path class="a" d="M3.886 17.1a2.331 2.331 0 0 1-2.332-2.331V4.663H.777a.777.777 0 0 1 0-1.555h3.109v-.777A2.331 2.331 0 0 1 6.217 0h3.108a2.331 2.331 0 0 1 2.332 2.331v.777h3.108a.777.777 0 0 1 0 1.555h-.777v10.1a2.331 2.331 0 0 1-2.332 2.337Zm-.778-2.331a.777.777 0 0 0 .778.777h7.771a.777.777 0 0 0 .777-.777V4.663H3.108ZM10.1 3.108v-.777a.777.777 0 0 0-.777-.777H6.217a.777.777 0 0 0-.777.777v.777Zm-1.552 9.325V7.771a.777.777 0 1 1 1.554 0v4.663a.777.777 0 1 1-1.554 0Zm-3.108 0V7.771a.777.777 0 1 1 1.554 0v4.663a.777.777 0 1 1-1.554 0Z"/>
        </clipPath>
        <filter id="b" x="-61.554" y="-42.777" width="138.65" height="138.65" filterUnits="userSpaceOnUse">
            <feOffset dy="18"/>
            <feGaussianBlur stdDeviation="20" result="c"/>
            <feFlood flood-color="#6b67d2" flood-opacity=".349"/>
            <feComposite operator="in" in2="c"/>
            <feComposite in="SourceGraphic"/>
        </filter>
        <style>
            .a{fill:#8c95b0}
        </style>
    </defs>
    <path class="a" d="M3.886 17.1a2.331 2.331 0 0 1-2.332-2.331V4.663H.777a.777.777 0 0 1 0-1.555h3.109v-.777A2.331 2.331 0 0 1 6.217 0h3.108a2.331 2.331 0 0 1 2.332 2.331v.777h3.108a.777.777 0 0 1 0 1.555h-.777v10.1a2.331 2.331 0 0 1-2.332 2.337Zm-.778-2.331a.777.777 0 0 0 .778.777h7.771a.777.777 0 0 0 .777-.777V4.663H3.108ZM10.1 3.108v-.777a.777.777 0 0 0-.777-.777H6.217a.777.777 0 0 0-.777.777v.777Zm-1.552 9.325V7.771a.777.777 0 1 1 1.554 0v4.663a.777.777 0 1 1-1.554 0Zm-3.108 0V7.771a.777.777 0 1 1 1.554 0v4.663a.777.777 0 1 1-1.554 0Z"/>
    <g style="clip-path:url(#a)">
        <path class="a" transform="translate(-1.55 -.78)" d="M0 0h18.65v18.65H0z" style="filter:url(#b)"/>
    </g>
</svg>
