<svg width="22" height="22" viewBox="0 0 22 22" fill="none" xmlns="http://www.w3.org/2000/svg">
<g clip-path="url(#clip0_13926_2037)">
<path d="M-3.1882e-05 4.57984C0.0876309 4.22622 0.161809 3.86696 0.352869 3.54723C0.9002 2.63777 1.70153 2.15535 2.76135 2.14858C4.35052 2.13728 5.93969 2.14858 7.52998 2.14858C7.89974 2.14858 8.14812 2.37453 8.15149 2.692C8.15486 3.00946 7.893 3.24445 7.51649 3.24445C5.95542 3.24445 4.39435 3.24445 2.8344 3.24445C1.98362 3.24445 1.37336 3.70992 1.14858 4.50528C1.10747 4.67335 1.08969 4.84634 1.09575 5.01932C1.09575 9.71766 1.09575 14.4171 1.09575 19.1177C1.09575 19.9989 1.53519 20.6101 2.31405 20.8361C2.49392 20.8846 2.67967 20.9074 2.86587 20.9039C7.90686 20.9039 12.9475 20.9039 17.9877 20.9039C19.0588 20.9039 19.7556 20.1989 19.7567 19.1143C19.7567 17.553 19.7567 15.9916 19.7567 14.4292C19.7567 14.1151 19.9208 13.8846 20.1737 13.827C20.2524 13.8085 20.3342 13.8079 20.4132 13.8252C20.4921 13.8425 20.5663 13.8773 20.6301 13.9271C20.694 13.977 20.746 14.0405 20.7823 14.1131C20.8187 14.1856 20.8384 14.2655 20.8401 14.3467C20.8514 14.785 20.8401 15.2245 20.8401 15.664C20.8401 16.9068 20.8559 18.1495 20.8289 19.399C20.7997 20.7751 19.6353 21.9331 18.2642 21.9975C18.1642 21.9975 18.0641 22.0065 17.9641 22.0065C12.9299 22.0065 7.89637 22.0065 2.86363 22.0065C1.7611 22.0065 0.920431 21.5546 0.347251 20.6056C0.156191 20.287 0.0808879 19.9278 -0.0067749 19.5741L-3.1882e-05 4.57984Z" fill="white"/>
<path d="M18.9115 0C19.5114 0.000156066 20.0895 0.225831 20.5322 0.632671C20.7862 0.865403 21.0278 1.11169 21.2661 1.36024C22.2247 2.3567 22.245 3.80054 21.3178 4.82524C21.2605 4.88964 21.1998 4.95065 21.1391 5.01166C17.9817 8.19309 14.8232 11.3708 11.6636 14.5447C11.4941 14.7191 11.281 14.8444 11.0466 14.9073C9.61928 15.2982 8.1942 15.6981 6.76912 16.097C6.57918 16.1501 6.39374 16.1896 6.20718 16.0823C5.9824 15.9501 5.88237 15.7094 5.96329 15.4112C6.28584 14.2261 6.65448 13.0522 6.92421 11.8558C7.11752 10.9972 7.54234 10.3487 8.16048 9.73635C11.1399 6.78765 14.0856 3.80393 17.0392 0.828121C17.2792 0.569816 17.5689 0.36322 17.8908 0.220868C18.2126 0.0785152 18.5599 0.00337365 18.9115 0ZM19.1296 5.45453C19.0925 5.41385 19.061 5.37544 19.0262 5.34155C18.2473 4.55749 17.4651 3.77569 16.6907 2.98711C16.5862 2.88204 16.5323 2.89899 16.4379 2.99389C13.8589 5.5916 11.277 8.18669 8.69208 10.7791C8.57969 10.8921 8.59655 10.9463 8.69882 11.048C9.46194 11.8072 10.2239 12.5687 10.9758 13.3392C11.1185 13.4861 11.1882 13.4669 11.3208 13.3335C13.8683 10.7644 16.4188 8.19874 18.9722 5.63642C19.0071 5.60027 19.043 5.56637 19.0779 5.52909C19.0965 5.50525 19.1138 5.48036 19.1296 5.45453ZM20.8986 3.22436C20.8986 2.80635 20.8098 2.51487 20.6007 2.27084C20.3336 1.95208 20.0387 1.65793 19.7196 1.39188C19.4822 1.20343 19.1879 1.10188 18.8854 1.10393C18.5829 1.10599 18.2901 1.21152 18.0551 1.40317C17.8416 1.58168 17.655 1.79294 17.4482 1.98049C17.355 2.06522 17.3696 2.11719 17.4482 2.19966C18.2395 2.98975 19.028 3.78058 19.814 4.57218C19.8859 4.64448 19.9343 4.67386 20.0163 4.58235C20.1714 4.41288 20.3411 4.2581 20.4985 4.09089C20.7359 3.86321 20.8788 3.55363 20.8986 3.22436ZM10.0531 14.0374L8.03798 12.0106C7.78848 12.9144 7.53223 13.8465 7.267 14.8135L10.0531 14.0374Z" fill="white"/>
</g>
<defs>
<clipPath id="clip0_13926_2037">
<rect width="22" height="22" fill="white"/>
</clipPath>
</defs>
</svg>
