<svg xmlns="http://www.w3.org/2000/svg" xmlns:xlink="http://www.w3.org/1999/xlink" width="16" height="18" viewBox="0 0 16 18">
  <defs>
    <clipPath id="clip-path">
      <rect width="16" height="18" fill="none"/>
    </clipPath>
    <clipPath id="clip-path-2">
      <path id="Combined_Shape" data-name="Combined Shape" d="M15.2,18H.8a.818.818,0,0,1,0-1.636H15.2A.818.818,0,0,1,15.2,18ZM4,13.909H.8a.81.81,0,0,1-.8-.818V9.818A.833.833,0,0,1,.234,9.24l8.8-9a.788.788,0,0,1,1.131,0l3.2,3.273a.832.832,0,0,1,0,1.157l-8.8,9A.794.794,0,0,1,4,13.909ZM9.6,1.975h0l-8,8.182v2.116H3.668l8-8.182L9.6,1.975Z" transform="translate(0 0)" fill="#8c95b0"/>
    </clipPath>
    <filter id="_Icon_Color" x="-61.6" y="-42.818" width="139.2" height="139.636" filterUnits="userSpaceOnUse">
      <feOffset dy="18" input="SourceAlpha"/>
      <feGaussianBlur stdDeviation="20" result="blur"/>
      <feFlood flood-color="#6b67d2" flood-opacity="0.349"/>
      <feComposite operator="in" in2="blur"/>
      <feComposite in="SourceGraphic"/>
    </filter>
  </defs>
  <g id="Icon_edit-3" data-name="Icon / edit-3" clip-path="url(#clip-path)">
    <g id="Group_67" data-name="Group 67" transform="translate(0 0)">
      <path id="Combined_Shape-2" data-name="Combined Shape" d="M.8,1.636H15.2A.809.809,0,0,0,16,.818.809.809,0,0,0,15.2,0H.8A.809.809,0,0,0,0,.818.809.809,0,0,0,.8,1.636Z" transform="translate(0 16.363)" fill="#8c95b0"/>
      <g id="Mask_Group_67" data-name="Mask Group 67" clip-path="url(#clip-path-2)">
        <g transform="matrix(1, 0, 0, 1, 0, 0)" filter="url(#_Icon_Color)">
          <rect id="_Icon_Color-2" data-name="↳ Icon Color" width="19.2" height="19.636" transform="translate(-1.6 -0.82)" fill="#8c95b0"/>
        </g>
      </g>
    </g>
  </g>
</svg>
