<svg xmlns="http://www.w3.org/2000/svg" viewBox="0 0 18 22">
    <defs>
        <clipPath id="a">
            <path class="a" d="M3 22a3 3 0 0 1-3-3V3a3 3 0 0 1 3-3h8a1 1 0 0 1 .574.181l.008.006a.985.985 0 0 1 .122.1l6 6a.985.985 0 0 1 .1.122l.007.009a1 1 0 0 1 .189.557V19a3 3 0 0 1-3 3ZM2 3v16a1 1 0 0 0 1 1h12a1 1 0 0 0 1-1V8h-5a1 1 0 0 1-1-1V2H3a1 1 0 0 0-1 1Zm10 3h2.587L12 3.414ZM8 17v-2H6a1 1 0 0 1 0-2h2v-2a1 1 0 1 1 2 0v2h2a1 1 0 0 1 0 2h-2v2a1 1 0 0 1-2 0Z" transform="translate(3 1)"/>
        </clipPath>
        <filter id="b" x="-63" y="-43" width="144" height="144" filterUnits="userSpaceOnUse">
            <feOffset dy="18"/>
            <feGaussianBlur stdDeviation="20" result="c"/>
            <feFlood flood-color="#6b67d2" flood-opacity=".349"/>
            <feComposite operator="in" in2="c"/>
            <feComposite in="SourceGraphic"/>
        </filter>
        <style>
            .a{fill:#8c95b0}
        </style>
    </defs>
    <path class="a" d="M3 22a3 3 0 0 1-3-3V3a3 3 0 0 1 3-3h8a1 1 0 0 1 .574.181l.008.006a.985.985 0 0 1 .122.1l6 6a.985.985 0 0 1 .1.122l.007.009a1 1 0 0 1 .189.557V19a3 3 0 0 1-3 3ZM2 3v16a1 1 0 0 0 1 1h12a1 1 0 0 0 1-1V8h-5a1 1 0 0 1-1-1V2H3a1 1 0 0 0-1 1Zm10 3h2.587L12 3.414ZM8 17v-2H6a1 1 0 0 1 0-2h2v-2a1 1 0 1 1 2 0v2h2a1 1 0 0 1 0 2h-2v2a1 1 0 0 1-2 0Z"/>
    <g style="clip-path:url(#a)" transform="translate(-3 -1)">
        <path class="a" d="M0 0h24v24H0z" style="filter:url(#b)"/>
    </g>
</svg>
