<svg xmlns="http://www.w3.org/2000/svg" viewBox="0 0 18.56 17.029">
  <defs>
    <style>
      .cls-1 {
        fill: #8c95b0;
      }
    </style>
  </defs>
  <path id="Icon_material-favorite-border" data-name="Icon material-favorite-border" class="cls-1" d="M16.456,4.5A5.557,5.557,0,0,0,12.28,6.44,5.557,5.557,0,0,0,8.1,4.5,5.054,5.054,0,0,0,3,9.6c0,3.508,3.155,6.366,7.934,10.709l1.346,1.216L13.626,20.3C18.4,15.97,21.56,13.112,21.56,9.6A5.054,5.054,0,0,0,16.456,4.5ZM12.373,18.93l-.093.093-.093-.093c-4.417-4-7.331-6.644-7.331-9.326A3.172,3.172,0,0,1,8.1,6.356a3.628,3.628,0,0,1,3.313,2.19h1.735a3.6,3.6,0,0,1,3.3-2.19A3.172,3.172,0,0,1,19.7,9.6C19.7,12.286,16.79,14.931,12.373,18.93Z" transform="translate(-3 -4.5)"/>
</svg>
