<svg xmlns="http://www.w3.org/2000/svg" xmlns:xlink="http://www.w3.org/1999/xlink" width="19.514" height="14.636" viewBox="0 0 19.514 14.636">
  <defs>
    <clipPath id="clip-path">
      <path id="Combined_Shape" data-name="Combined Shape" d="M9.757,14.636a9.8,9.8,0,0,1-7.2-3.51A16.7,16.7,0,0,1,.727,8.776,12.2,12.2,0,0,1,.085,7.682a.819.819,0,0,1,0-.727A12.2,12.2,0,0,1,.727,5.86,16.7,16.7,0,0,1,2.557,3.51,9.8,9.8,0,0,1,9.757,0a9.8,9.8,0,0,1,7.2,3.51,16.7,16.7,0,0,1,1.83,2.351,12.193,12.193,0,0,1,.641,1.094.815.815,0,0,1,0,.727,12.193,12.193,0,0,1-.641,1.094,16.7,16.7,0,0,1-1.83,2.351A9.8,9.8,0,0,1,9.757,14.636Zm0-13.01a8.251,8.251,0,0,0-6.013,3A15.072,15.072,0,0,0,2.092,6.743c-.131.2-.25.4-.352.575.1.173.218.367.352.575a15.072,15.072,0,0,0,1.651,2.122,8.251,8.251,0,0,0,6.013,3,8.252,8.252,0,0,0,6.014-3,14.989,14.989,0,0,0,1.65-2.122c.131-.2.25-.4.353-.575-.1-.18-.223-.374-.353-.575a14.989,14.989,0,0,0-1.65-2.122A8.252,8.252,0,0,0,9.757,1.626Zm0,8.944A3.252,3.252,0,1,1,13.01,7.318,3.256,3.256,0,0,1,9.757,10.57Zm0-4.878a1.626,1.626,0,1,0,1.627,1.626A1.628,1.628,0,0,0,9.757,5.692Z" fill="#8c95b0"/>
    </clipPath>
    <filter id="_Icon_Color" x="-60" y="-44.439" width="139.515" height="139.515" filterUnits="userSpaceOnUse">
      <feOffset dy="18" input="SourceAlpha"/>
      <feGaussianBlur stdDeviation="20" result="blur"/>
      <feFlood flood-color="#6b67d2" flood-opacity="0.349"/>
      <feComposite operator="in" in2="blur"/>
      <feComposite in="SourceGraphic"/>
    </filter>
  </defs>
  <g id="Mask_Group_60" data-name="Mask Group 60" transform="translate(0)" clip-path="url(#clip-path)">
    <g transform="matrix(1, 0, 0, 1, 0, 0)" filter="url(#_Icon_Color)">
      <rect id="_Icon_Color-2" data-name="↳ Icon Color" width="19.515" height="19.515" transform="translate(0 -2.44)" fill="#8c95b0"/>
    </g>
  </g>
</svg>
