<svg width="15" height="15" viewBox="0 0 15 15" fill="none" xmlns="http://www.w3.org/2000/svg">
<g clip-path="url(#clip0_14582_2139)">
<path d="M2.11082 4.95358L2.29628 4.79427C2.39652 4.70344 2.52679 4.65627 2.65981 4.66263C2.79283 4.669 2.91831 4.72839 3.01005 4.82841C3.10334 4.92771 3.15494 5.06123 3.15357 5.19982C3.1522 5.3384 3.09796 5.4708 3.00273 5.56811C2.54031 6.01951 2.07425 6.46712 1.59841 6.90208C1.53947 6.95845 1.46839 6.99942 1.39109 7.02158C1.31379 7.04375 1.2325 7.04647 1.15398 7.02953C1.07546 7.01259 1.00196 6.97647 0.939625 6.92417C0.877288 6.87188 0.827912 6.80492 0.795571 6.72886C0.55155 6.24711 0.307507 5.7603 0.0720263 5.27476C0.0360105 5.21379 0.0121905 5.14595 0.00196548 5.07525C-0.0082595 5.00456 -0.0046743 4.93245 0.0125103 4.86322C0.029695 4.79399 0.0601192 4.72904 0.101993 4.67224C0.143866 4.61543 0.19636 4.56792 0.256294 4.53253C0.507636 4.38207 0.784609 4.46172 0.967626 4.73737C0.978607 4.75381 0.991985 4.77025 1.01517 4.80186C1.13263 4.49381 1.26833 4.19357 1.42147 3.90284C2.53055 1.86583 4.18868 0.58876 6.39829 0.139885C7.74092 -0.127823 9.12927 0.00433457 10.4024 0.521037C11.6755 1.03774 12.7812 1.91782 13.5913 3.05924C14.4014 4.20066 14.8827 5.55667 14.9795 6.97004C15.0762 8.38342 14.7844 9.79627 14.1379 11.0448C13.4914 12.2933 12.5167 13.3263 11.3267 14.0241C10.1368 14.7219 8.7803 15.0558 7.41465 14.9872C6.04901 14.9186 4.73008 14.4503 3.61081 13.6365C2.49155 12.8227 1.61779 11.6969 1.09083 10.3894C0.968817 10.0746 1.06643 9.76603 1.33485 9.64211C1.60327 9.5182 1.90223 9.65223 2.03766 9.97593C2.76241 11.6994 3.96419 12.9107 5.67356 13.548C6.80526 13.9672 8.03014 14.0367 9.19924 13.7479C10.3683 13.4592 11.4313 12.8246 12.2588 11.9213C13.0863 11.0181 13.6428 9.88511 13.8605 8.66019C14.0783 7.43528 13.9478 6.1712 13.4851 5.02168C13.0224 3.87215 12.2475 2.88672 11.2544 2.18521C10.2613 1.4837 9.09285 1.09634 7.89126 1.07024C6.68967 1.04414 5.50668 1.38042 4.4861 2.03819C3.46551 2.69596 2.65133 3.64688 2.14257 4.7753C2.12061 4.82462 2.10228 4.87772 2.08276 4.92956C2.08276 4.9422 2.07177 4.96244 2.07543 4.9675C2.07909 4.97256 2.10472 4.96876 2.11082 4.95358Z" fill="white"/>
<path d="M7.23767 6.11327C7.23767 5.68463 7.23767 5.25472 7.23767 4.82608C7.23767 4.48594 7.45243 4.24443 7.75014 4.24317C7.82159 4.24298 7.89231 4.25807 7.95788 4.28748C8.02345 4.31689 8.08247 4.35999 8.13124 4.4141C8.18002 4.46821 8.21748 4.53216 8.24134 4.60195C8.2652 4.67175 8.27491 4.74589 8.26988 4.81975C8.26988 5.55565 8.26988 6.29155 8.26988 7.02746C8.26648 7.07896 8.27675 7.13046 8.29955 7.17636C8.32234 7.22227 8.3568 7.26085 8.39922 7.28793C8.97023 7.72542 9.53514 8.17304 10.1074 8.61053C10.1941 8.66823 10.2621 8.75171 10.3024 8.85006C10.3426 8.94841 10.3534 9.05707 10.3331 9.16182C10.3167 9.26467 10.2706 9.35995 10.2009 9.43512C10.1312 9.51028 10.0411 9.5618 9.94264 9.58288C9.86934 9.60271 9.79264 9.60456 9.71852 9.58832C9.6444 9.57208 9.57489 9.53819 9.5156 9.48932C8.82583 8.95572 8.1377 8.42044 7.45119 7.88348C7.38348 7.8322 7.32905 7.76442 7.29266 7.68612C7.25627 7.60783 7.23904 7.52144 7.24256 7.43461C7.2389 6.99458 7.23767 6.55456 7.23767 6.11327Z" fill="white"/>
<path d="M2.11077 4.95371C2.11077 4.96889 2.09372 4.98027 2.07908 4.96763C2.06444 4.95498 2.07909 4.94233 2.08641 4.92969L2.11077 4.95371Z" fill="white"/>
</g>
<defs>
<clipPath id="clip0_14582_2139">
<rect width="15" height="15" fill="white"/>
</clipPath>
</defs>
</svg>
