<svg xmlns="http://www.w3.org/2000/svg" viewBox="0 0 20.014 20.002">
    <path d="M19.281 7.566 12.956 1.24a4.176 4.176 0 0 0-5.9 0L.733 7.566A2.483 2.483 0 0 0 0 9.335v8.187a2.5 2.5 0 0 0 2.5 2.5h15.012a2.5 2.5 0 0 0 2.5-2.5V9.335a2.483 2.483 0 0 0-.731-1.769Zm-6.772 10.79h-5v-3.281a2.5 2.5 0 1 1 5 0Zm5.837-.834a.834.834 0 0 1-.834.834h-3.335v-3.281a4.17 4.17 0 1 0-8.339 0v3.281H2.5a.834.834 0 0 1-.834-.834V9.335a.841.841 0 0 1 .244-.59l6.327-6.323a2.508 2.508 0 0 1 3.539 0L18.1 8.748a.841.841 0 0 1 .244.587Z" transform="translate(0 -.021)" style="fill:#b691ff"/>
</svg>
