<svg xmlns="http://www.w3.org/2000/svg" viewBox="0 0 20 20">
    <defs>
        <clipPath id="a">
            <path class="a" d="M2.966 20A3 3 0 0 1 0 17V3a3 3 0 0 1 3-3h14a3 3 0 0 1 3 3v14a3 3 0 0 1-3 3H2.966ZM17 18a1 1 0 0 0 1-1v-3.586l-4-4L5.414 18ZM2 3v14a1 1 0 0 0 .649.936L13.293 7.293a1 1 0 0 1 1.414 0L18 10.586V3a1 1 0 0 0-1-1H3a1 1 0 0 0-1 1Zm2 3.5A2.5 2.5 0 1 1 6.5 9 2.5 2.5 0 0 1 4 6.5Zm2 0a.5.5 0 1 0 .5-.5.5.5 0 0 0-.5.5Z" transform="translate(2 2)"/>
        </clipPath>
        <filter id="b" x="-62" y="-44" width="144" height="144" filterUnits="userSpaceOnUse">
            <feOffset dy="18"/>
            <feGaussianBlur stdDeviation="20" result="c"/>
            <feFlood flood-color="#6b67d2" flood-opacity=".349"/>
            <feComposite operator="in" in2="c"/>
            <feComposite in="SourceGraphic"/>
        </filter>
        <style>
            .a{fill:none}
        </style>
    </defs>
    <path class="a" d="M2.966 20A3 3 0 0 1 0 17V3a3 3 0 0 1 3-3h14a3 3 0 0 1 3 3v14a3 3 0 0 1-3 3H2.966ZM17 18a1 1 0 0 0 1-1v-3.586l-4-4L5.414 18ZM2 3v14a1 1 0 0 0 .649.936L13.293 7.293a1 1 0 0 1 1.414 0L18 10.586V3a1 1 0 0 0-1-1H3a1 1 0 0 0-1 1Zm2 3.5A2.5 2.5 0 1 1 6.5 9 2.5 2.5 0 0 1 4 6.5Zm2 0a.5.5 0 1 0 .5-.5.5.5 0 0 0-.5.5Z"/>
    <g style="clip-path:url(#a)" transform="translate(-2 -2)">
        <g style="filter:url(#b)">
            <path style="fill:#8c95b0" d="M0 0h24v24H0z"/>
        </g>
    </g>
</svg>
