<svg width="21" height="16" viewBox="0 0 21 16" fill="none" xmlns="http://www.w3.org/2000/svg">
<path d="M13.5446 10.185C13.4655 10.2553 13.404 10.3124 13.3469 10.3651C12.7713 10.9144 12.5911 11.7272 12.8811 12.4698C13.1623 13.1904 13.8566 13.6693 14.6387 13.6825C15.1 13.6913 15.0956 13.6913 15.1088 14.1526C15.1176 14.5085 14.8979 14.7326 14.6475 14.9303C14.4366 15.0973 14.1861 15.1764 13.9137 15.1764C11.6377 15.1764 9.36167 15.1764 7.08566 15.1764C6.22447 15.1764 5.60494 14.3723 5.8466 13.5507C6.12341 12.6148 6.42219 11.6877 6.73415 10.765C6.9143 10.2333 7.4899 10.0092 8.01276 10.2597C8.87835 10.6771 9.79227 10.8528 10.7457 10.8133C11.4971 10.7825 12.2133 10.6156 12.8855 10.286C13.0876 10.1894 13.2898 10.1279 13.5402 10.185H13.5446Z" fill="white"/>
<path d="M7.76232 9.39337H7.53384C5.47752 9.39337 3.4256 9.39337 1.36929 9.39337C0.371885 9.39337 -0.221283 8.59369 0.0774977 7.64462C0.292796 6.9504 0.512488 6.26056 0.740967 5.57073C0.947478 4.94241 1.47474 4.70954 2.07669 4.97317C3.51348 5.59709 4.95026 5.59709 6.38266 4.95999C6.86598 4.74469 7.39324 4.92044 7.61293 5.35543C7.65247 5.43452 7.66566 5.50482 7.61293 5.5927C6.88355 6.85813 6.94067 8.10158 7.74035 9.31428C7.74914 9.32747 7.74914 9.34065 7.76672 9.38898L7.76232 9.39337Z" fill="white"/>
<path d="M13.1843 9.394C13.4963 8.94143 13.7028 8.49326 13.7951 7.99676C13.9445 7.17072 13.817 6.393 13.3908 5.67241C13.303 5.52302 13.3117 5.41758 13.3996 5.28576C13.6457 4.91228 14.1202 4.76728 14.5508 4.96061C15.0078 5.16712 15.4779 5.32091 15.9744 5.38682C16.9542 5.52303 17.9077 5.42636 18.8172 5.01774C19.5071 4.71017 20.0167 4.92986 20.2452 5.65045C20.4649 6.33589 20.6846 7.01693 20.8955 7.70237C21.1679 8.59432 20.5792 9.394 19.6521 9.39839C19.4807 9.39839 19.3093 9.38961 19.138 9.39839C18.9974 9.40718 18.9403 9.36764 18.9271 9.21825C18.848 8.3966 18.2724 7.74191 17.4683 7.54858C16.3435 7.28056 15.2187 8.07145 15.1132 9.21825C15.1 9.37203 15.0517 9.40279 14.9111 9.39839C14.3487 9.38961 13.7863 9.39839 13.1799 9.39839L13.1843 9.394Z" fill="white"/>
<path d="M15.9569 9.92972C15.9569 9.73639 15.9481 9.54307 15.9569 9.34974C15.992 8.76096 16.4665 8.31718 17.0377 8.33036C17.6089 8.33915 18.0791 8.80051 18.0967 9.38489C18.1098 9.76276 18.1054 10.1406 18.0967 10.5185C18.0967 10.6503 18.1318 10.6899 18.2636 10.6899C18.6195 10.6811 18.9754 10.6855 19.3357 10.6899C19.9509 10.6899 20.4298 11.138 20.4561 11.7268C20.4825 12.3112 20.0343 12.7989 19.4148 12.834C19.0369 12.856 18.6591 12.8472 18.2812 12.8428C18.145 12.8428 18.0967 12.8824 18.101 13.023C18.1098 13.3921 18.1098 13.7655 18.101 14.1346C18.0879 14.6663 17.6968 15.1145 17.2003 15.1804C16.6379 15.2551 16.1502 14.9475 15.992 14.4202C15.9349 14.2313 15.9525 14.038 15.9525 13.8446C15.9525 13.5722 15.9437 13.2998 15.9525 13.0318C15.9569 12.878 15.8997 12.8384 15.7547 12.8384C15.3637 12.8428 14.9682 12.8472 14.5772 12.8253C14.1642 12.8033 13.8654 12.5836 13.694 12.2101C13.5227 11.8366 13.5578 11.472 13.7951 11.138C14.006 10.8392 14.3092 10.6942 14.6739 10.6899C15.0385 10.6855 15.4032 10.6811 15.7635 10.6899C15.9041 10.6899 15.9525 10.6459 15.9437 10.5097C15.9349 10.3164 15.9437 10.1231 15.9437 9.92972C15.9437 9.92972 15.9437 9.92972 15.9481 9.92972H15.9569Z" fill="white"/>
<path d="M10.4909 4.84181C11.8882 4.84181 13.013 5.97542 13.0086 7.37706C13.0086 8.75672 11.8706 9.89033 10.4865 9.89472C9.09367 9.89472 7.95128 8.74793 7.95567 7.34191C7.95567 5.96224 9.09807 4.83742 10.4865 4.84181H10.4909Z" fill="white"/>
<path d="M16.7609 0.0039204C18.0307 0.00831424 19.0545 1.04087 19.0501 2.30629C19.0457 3.56733 17.9956 4.59988 16.7345 4.59109C15.4779 4.57791 14.4629 3.54974 14.4629 2.29311C14.4629 1.01889 15.4867 -0.000473438 16.7609 0.0039204Z" fill="white"/>
<path d="M4.22967 0.00440558C5.50828 0.0131933 6.51886 1.03696 6.51008 2.31117C6.50129 3.58099 5.46434 4.60476 4.19892 4.59158C2.93788 4.57839 1.91412 3.53266 1.92291 2.26723C1.9317 1.01499 2.96864 -0.00437969 4.22967 1.41512e-05V0.00440558Z" fill="white"/>
</svg>
