<svg xmlns="http://www.w3.org/2000/svg" viewBox="0 0 23 11">
    <defs>
        <clipPath id="a">
            <path class="a" d="M14.375 11a.918.918 0 1 1 0-1.833h2.875A3.752 3.752 0 0 0 21.083 5.5a3.588 3.588 0 0 0-1.122-2.593 3.923 3.923 0 0 0-2.711-1.074h-2.875a.938.938 0 0 1-.958-.917.938.938 0 0 1 .958-.916h2.875a5.882 5.882 0 0 1 4.066 1.611A5.383 5.383 0 0 1 23 5.5a5.629 5.629 0 0 1-5.75 5.5ZM5.75 11a5.885 5.885 0 0 1-4.066-1.61A5.381 5.381 0 0 1 0 5.5 5.63 5.63 0 0 1 5.75 0h2.875a.938.938 0 0 1 .958.917.938.938 0 0 1-.958.917H5.75A3.753 3.753 0 0 0 1.916 5.5a3.585 3.585 0 0 0 1.123 2.593A3.921 3.921 0 0 0 5.75 9.167h2.875a.918.918 0 1 1 0 1.833Zm1.917-4.583a.918.918 0 1 1 0-1.833h7.667a.918.918 0 1 1 0 1.833Z"/>
        </clipPath>
        <filter id="b" x="-60" y="-47" width="143" height="141" filterUnits="userSpaceOnUse">
            <feOffset dy="18"/>
            <feGaussianBlur stdDeviation="20" result="c"/>
            <feFlood flood-color="#6b67d2" flood-opacity=".349"/>
            <feComposite operator="in" in2="c"/>
            <feComposite in="SourceGraphic"/>
        </filter>
        <style>
            .a{fill:#8c95b0}
        </style>
    </defs>
    <path class="a" d="M14.375 11a.918.918 0 1 1 0-1.833h2.875A3.752 3.752 0 0 0 21.083 5.5a3.588 3.588 0 0 0-1.122-2.593 3.923 3.923 0 0 0-2.711-1.074h-2.875a.938.938 0 0 1-.958-.917.938.938 0 0 1 .958-.916h2.875a5.882 5.882 0 0 1 4.066 1.611A5.383 5.383 0 0 1 23 5.5a5.629 5.629 0 0 1-5.75 5.5ZM5.75 11a5.885 5.885 0 0 1-4.066-1.61A5.381 5.381 0 0 1 0 5.5 5.63 5.63 0 0 1 5.75 0h2.875a.938.938 0 0 1 .958.917.938.938 0 0 1-.958.917H5.75A3.753 3.753 0 0 0 1.916 5.5a3.585 3.585 0 0 0 1.123 2.593A3.921 3.921 0 0 0 5.75 9.167h2.875a.918.918 0 1 1 0 1.833Zm1.917-4.583a.918.918 0 1 1 0-1.833h7.667a.918.918 0 1 1 0 1.833Z"/>
    <g style="clip-path:url(#a)">
        <path class="a" transform="translate(0 -5)" d="M0 0h23v21H0z" style="filter:url(#b)"/>
    </g>
</svg>
