<svg xmlns="http://www.w3.org/2000/svg" width="14" height="16" viewBox="0 0 14 16">
  <path id="Combined_Shape" data-name="Combined Shape" d="M6.5,15a.663.663,0,0,1-.36-.105c-.059-.037-.156-.1-.272-.183-.233-.162-.464-.331-.687-.5A20,20,0,0,1,3.1,12.383C1.044,10.293,0,8.23,0,6.25A6.386,6.386,0,0,1,6.5,0,6.386,6.386,0,0,1,13,6.25c0,1.981-1.044,4.045-3.1,6.134A19.994,19.994,0,0,1,7.819,14.21c-.226.172-.457.341-.688.5-.144.1-.237.161-.271.183A.666.666,0,0,1,6.5,15ZM6.5,4.25a2,2,0,1,0,2,2A2,2,0,0,0,6.5,4.25Z" transform="translate(0.5 0.5)" fill="none" stroke="#8c95b0" stroke-width="1"/>
</svg>
