<svg width="27" height="27" viewBox="0 0 27 27" fill="none" xmlns="http://www.w3.org/2000/svg">
<path d="M19.6312 8.64573C19.5546 8.63479 19.4779 8.63479 19.4013 8.64573C17.7042 8.59099 16.3575 7.20048 16.3575 5.49245C16.3575 3.75157 17.7699 2.32822 19.5217 2.32822C21.2626 2.32822 22.6859 3.74063 22.6859 5.49245C22.675 7.20048 21.3283 8.59099 19.6312 8.64573Z" fill="white" fill-opacity="0.7"/>
<path d="M23.2008 16.2333C21.9745 17.0545 20.2556 17.3611 18.668 17.153C19.084 16.2552 19.303 15.2589 19.3139 14.2078C19.3139 13.1129 19.0731 12.0727 18.6132 11.164C20.2337 10.945 21.9526 11.2516 23.1899 12.0727C24.9198 13.2114 24.9198 15.0837 23.2008 16.2333Z" fill="white" fill-opacity="0.7"/>
<path d="M7.48899 8.64573C7.56563 8.63479 7.64227 8.63479 7.71891 8.64573C9.416 8.59099 10.7627 7.20048 10.7627 5.49245C10.7627 3.74063 9.3503 2.32822 7.59848 2.32822C5.8576 2.32822 4.44519 3.74063 4.44519 5.49245C4.44519 7.20048 5.79191 8.59099 7.48899 8.64573Z" fill="white" fill-opacity="0.7"/>
<path d="M7.60954 14.2078C7.60954 15.2698 7.83946 16.2771 8.25552 17.1859C6.71173 17.3501 5.10224 17.0216 3.91976 16.2443C2.18983 15.0946 2.18983 13.2224 3.91976 12.0727C5.09129 11.2844 6.74458 10.9669 8.29932 11.1421C7.85041 12.0618 7.60954 13.1019 7.60954 14.2078Z" fill="white" fill-opacity="0.7"/>
<path d="M13.708 17.5143C13.6204 17.5034 13.5218 17.5034 13.4233 17.5143C11.4087 17.4486 9.79919 15.7954 9.79919 13.7589C9.81014 11.6786 11.4853 9.99243 13.5766 9.99243C15.6569 9.99243 17.343 11.6786 17.343 13.7589C17.332 15.7954 15.7335 17.4486 13.708 17.5143Z" fill="white" fill-opacity="0.7"/>
<path d="M10.1496 19.7808C8.49635 20.8866 8.49635 22.7041 10.1496 23.799C12.0328 25.0581 15.1204 25.0581 17.0036 23.799C18.6569 22.6932 18.6569 20.8757 17.0036 19.7808C15.1314 18.5216 12.0438 18.5216 10.1496 19.7808Z" fill="white" fill-opacity="0.7"/>
</svg>
