<svg width="22" height="19" viewBox="0 0 22 19" fill="none" xmlns="http://www.w3.org/2000/svg">
<path d="M0.962402 8.53785C1.07139 8.07255 1.33549 7.6827 1.56604 7.28027C2.12776 6.30355 2.70206 5.33102 3.2554 4.34591C3.65363 3.63747 4.16924 3.02964 4.80222 2.52242C5.76218 1.7511 6.71375 0.967204 7.66532 0.183311C7.86234 0.0198253 8.07613 -0.0514378 8.32765 0.040785C8.58336 0.1372 8.69235 0.334221 8.73427 0.602505C8.94386 2.01519 9.9625 3.04222 11.3668 3.2602C11.589 3.29373 11.8153 3.28535 12.0417 3.27697C12.4902 3.25601 12.6537 3.3608 12.8256 3.77161C13.3286 4.9747 13.8275 6.17779 14.3305 7.38088C14.582 7.98033 14.8713 8.17315 15.5168 8.17315C16.0744 8.17315 16.6319 8.17315 17.1936 8.17315C19.5076 8.17315 21.482 9.84993 21.8341 12.1387C21.9515 12.9059 21.9557 13.6898 21.8425 14.4569C21.7167 15.3204 20.9412 15.9283 20.0651 15.9324C17.4451 15.9324 14.821 15.9324 12.201 15.9324C11.6644 15.9324 11.1698 15.7773 10.7087 15.5091C7.78689 13.8239 4.8651 12.1387 1.94751 10.4494C1.44867 10.1643 1.1217 9.74933 1.00851 9.17922C1.00432 9.15407 0.983362 9.13311 0.970786 9.10796C0.970786 8.91932 0.970786 8.72649 0.970786 8.53785H0.962402ZM14.4605 12.2561C15.106 12.2561 15.7516 12.2561 16.4013 12.2561C16.5061 12.2561 16.5774 12.2561 16.5732 12.1094C16.5648 11.25 16.569 10.3949 16.5732 9.53554C16.5732 9.41816 16.5355 9.38463 16.4223 9.38882C16.0702 9.39301 15.7139 9.38882 15.3617 9.38882C14.8252 9.39301 14.3431 9.23372 13.9281 8.89417C13.8317 8.81452 13.7604 8.81452 13.6598 8.8774C13.4292 9.01993 13.1903 9.15407 12.9556 9.28821C12.6076 9.48104 12.2513 9.39301 12.0752 9.07442C11.9034 8.76422 12.0082 8.41629 12.3393 8.21927C12.5657 8.08512 12.7963 7.95098 13.031 7.82522C13.1316 7.77073 13.1442 7.71623 13.0981 7.61563C12.9723 7.33057 12.8508 7.04133 12.7376 6.75209C12.6957 6.6389 12.6495 6.62633 12.5489 6.68921C12.2806 6.85269 12.0124 7.00779 11.7399 7.1587C11.392 7.35153 11.0315 7.2677 10.8554 6.95749C10.6751 6.6431 10.7841 6.29097 11.1279 6.08976C11.4381 5.90531 11.7483 5.72087 12.0669 5.55319C12.1884 5.49031 12.1926 5.42743 12.1423 5.31425C12.0459 5.10465 11.9579 4.89086 11.8782 4.67288C11.8363 4.55132 11.7692 4.51359 11.6393 4.50521C11.0482 4.48005 10.4823 4.3501 9.94993 4.0902C8.96901 3.61232 8.25638 2.87454 7.82461 1.87266C7.79527 1.80559 7.80365 1.65468 7.64855 1.78044C6.86466 2.43019 6.07238 3.07994 5.2843 3.7255C5.17531 3.81773 5.15015 3.86803 5.27172 3.9854C6.58799 5.28071 6.96527 6.81497 6.40354 8.57558C6.36163 8.70134 6.39097 8.75164 6.49577 8.81033C8.44083 9.92958 10.3817 11.0488 12.3226 12.1723C12.4106 12.2226 12.4944 12.2435 12.5909 12.2435C13.2155 12.2435 13.8442 12.2435 14.4688 12.2435L14.4605 12.2561ZM16.1205 14.7084C17.399 14.7084 18.6817 14.7084 19.9603 14.7084C20.4046 14.7084 20.652 14.4569 20.6562 14.0125C20.6562 13.9245 20.6478 13.8323 20.6562 13.7484C20.6855 13.543 20.6184 13.4802 20.4004 13.4802C17.7302 13.4885 15.0641 13.4802 12.3938 13.4885C12.18 13.4885 11.9998 13.4382 11.8153 13.3292C8.88098 11.6315 5.94243 9.93796 3.00388 8.24023C2.86974 8.16058 2.71883 8.01386 2.59726 8.03482C2.45054 8.05578 2.41281 8.28215 2.33317 8.41629C2.07327 8.85644 2.15711 9.15826 2.60564 9.41397C5.49389 11.0824 8.38633 12.7508 11.2746 14.4192C11.6141 14.6162 11.9746 14.7084 12.3645 14.7084C13.6179 14.7084 14.8713 14.7084 16.1205 14.7084ZM17.7931 10.8686C17.7931 11.2752 17.7972 11.686 17.7931 12.0926C17.7931 12.231 17.835 12.2603 17.9649 12.2603C18.7824 12.2561 19.5956 12.2561 20.413 12.2603C20.5639 12.2603 20.6017 12.2268 20.5597 12.0759C20.1908 10.7219 19.3273 9.85832 17.9733 9.48942C17.814 9.44751 17.7889 9.502 17.7931 9.64034C17.8014 10.047 17.7931 10.4578 17.7931 10.8644V10.8686ZM5.41425 7.18805C5.38909 6.3287 5.11243 5.59511 4.51298 4.98728C4.44591 4.91602 4.39141 4.84056 4.30757 4.98728C3.96383 5.59511 3.61171 6.20294 3.25959 6.80658C3.20509 6.903 3.22186 6.94072 3.31408 6.99103C3.92191 7.33896 4.52975 7.68689 5.13339 8.03901C5.25076 8.11028 5.27591 8.06416 5.30526 7.95517C5.37652 7.69527 5.40167 7.43537 5.41844 7.18386L5.41425 7.18805Z" fill="white"/>
<path d="M0.962402 15.1569C1.1175 14.809 1.38579 14.7 1.76306 14.7042C3.19671 14.721 4.63454 14.7084 6.06819 14.7126C6.38678 14.7126 6.63829 14.9348 6.68021 15.2324C6.72213 15.5468 6.53769 15.836 6.22748 15.9157C6.15203 15.9366 6.06819 15.9366 5.98435 15.9366C4.57586 15.9366 3.16736 15.9283 1.76306 15.945C1.38998 15.945 1.1175 15.8402 0.962402 15.4923V15.1653L0.962402 15.1569Z" fill="white"/>
<path d="M0.962402 17.6045C1.11331 17.265 1.36902 17.1434 1.7421 17.1518C2.61822 17.1685 3.49434 17.156 4.37045 17.156C4.78126 17.156 5.04955 17.4075 5.04536 17.7764C5.04116 18.1369 4.77288 18.38 4.37045 18.38C3.49434 18.38 2.61822 18.3674 1.7421 18.3842C1.37321 18.3926 1.11331 18.2668 0.962402 17.9315L0.962402 17.6045Z" fill="white"/>
<path d="M12.4651 17.1562C14.0287 17.1562 15.5965 17.1562 17.1601 17.1562C17.4912 17.1562 17.7511 17.3742 17.7889 17.6761C17.8308 17.9821 17.6505 18.2545 17.3529 18.3551C17.2774 18.3803 17.2062 18.3803 17.1307 18.3803C13.9993 18.3803 10.8721 18.3803 7.74077 18.3803C7.3593 18.3803 7.09101 18.1288 7.08682 17.7767C7.08682 17.412 7.35092 17.1562 7.74496 17.1562C9.31694 17.1562 10.8889 17.1562 12.4609 17.1562H12.4651Z" fill="white"/>
<path d="M20.4508 18.381C20.1783 18.381 19.9058 18.381 19.6375 18.381C19.2812 18.3768 19.0213 18.1085 19.0255 17.7606C19.0255 17.4252 19.2896 17.1611 19.6417 17.1611C20.1867 17.1611 20.7274 17.1611 21.2724 17.1611C21.6203 17.1611 21.8802 17.4252 21.8844 17.7606C21.8844 18.1085 21.6287 18.3768 21.2682 18.381C20.9957 18.381 20.7232 18.381 20.455 18.381H20.4508Z" fill="white"/>
</svg>
