<svg width="21" height="21" viewBox="0 0 21 21" fill="none" xmlns="http://www.w3.org/2000/svg">
<path d="M0 20.1651C0.156699 19.7193 0.235048 19.2479 0.344738 18.785C0.720815 17.1949 1.09297 15.6005 1.46122 14.0061C1.51998 13.7489 1.64142 13.5646 1.85688 13.4274C2.5346 12.9903 3.20449 12.5317 3.88222 12.0902C4.01933 12.0002 4.10943 11.8887 4.17994 11.7302C4.75581 10.4144 5.33952 9.10282 5.91538 7.78701C6.0094 7.56842 6.14651 7.41841 6.34631 7.31555C6.87908 7.04124 7.40794 6.74979 7.94072 6.4712C8.03474 6.41977 8.10917 6.35547 8.16793 6.2569C8.46958 5.77686 8.77906 5.29682 9.08462 4.82107C9.11204 4.77821 9.14338 4.73535 9.19823 4.6582C9.26874 5.13395 9.33142 5.56684 9.3941 6.00402C9.52729 6.93838 9.64874 7.87273 9.78976 8.80709C9.91904 9.6643 9.62131 10.4058 8.94751 10.8515C8.62236 11.0658 8.28937 11.2716 7.95639 11.4773C7.33743 11.8716 7.02795 12.4631 7.07496 13.2431C7.12196 14.0275 7.50588 14.5761 8.17577 14.8718C9.15122 15.3047 10.1267 15.7376 11.106 16.1662C11.4155 16.3034 11.6153 16.5305 11.6427 16.9034C11.6741 17.3192 11.4625 17.6449 11.0747 17.7821C10.1502 18.1078 9.22565 18.425 8.30112 18.7464C6.24445 19.4579 4.18778 20.1694 2.13502 20.8851C2.0841 20.9023 2.0175 20.898 1.98616 20.9623H0.41917C0.223296 20.868 0.0901019 20.7094 0 20.5037V20.1694V20.1651Z" fill="white"/>
<path d="M6.21109 20.9623C6.86316 20.7081 7.53195 20.5185 8.19656 20.2988C9.56757 19.842 10.9428 19.4025 12.318 18.9501C13.1623 18.6744 13.6848 17.9591 13.7433 17.0328C13.7935 16.1926 13.3128 15.3868 12.5144 15.0378C11.4527 14.5768 10.3827 14.1459 9.31678 13.6978C8.98238 13.5557 8.8528 13.3661 8.86116 13.0343C8.86952 12.793 8.99074 12.6336 9.1872 12.5173C9.55921 12.2975 9.93122 12.0821 10.2949 11.8537C11.064 11.3711 11.5489 10.6774 11.7411 9.764C11.8456 9.25989 11.7829 8.76439 11.7077 8.26458C11.5238 7.06676 11.3399 5.86464 11.1559 4.6582C11.2521 4.67544 11.2772 4.75299 11.319 4.80901C12.3138 6.07576 13.3044 7.34683 14.2992 8.61358C14.4037 8.74715 14.4832 8.88503 14.5417 9.04445C14.8468 9.86741 15.1603 10.6818 15.4654 11.5047C15.5156 11.634 15.5867 11.7288 15.6995 11.8063C16.4937 12.3794 17.2879 12.9567 18.0821 13.5298C18.2493 13.6504 18.3663 13.7969 18.4457 13.9951C19.2441 15.9685 20.0425 17.9376 20.845 19.9067C21.0624 20.4409 20.9913 20.6736 20.519 20.9623H6.21109Z" fill="white"/>
<path d="M10.097 2.13383C10.097 1.62216 10.097 1.11429 10.097 0.602626C10.097 0.216036 10.328 0 10.7342 0C11.6065 0 12.4787 0 13.3509 0C13.8289 0 14.0917 0.36764 13.9244 0.792131C13.8089 1.08397 13.5979 1.37581 13.5939 1.66765C13.5939 1.9519 13.805 2.23616 13.9205 2.52421C14.0957 2.96007 13.8328 3.32392 13.343 3.32392C12.7017 3.32392 12.0645 3.32392 11.4233 3.32392C11.2958 3.32392 11.26 3.35803 11.26 3.47931C11.26 3.88107 11.256 3.88106 10.8378 3.88106C10.6426 3.88106 10.4515 3.87348 10.2563 3.88106C10.1289 3.88865 10.093 3.84695 10.093 3.72567C10.101 3.19506 10.093 2.66823 10.093 2.13762L10.097 2.13383Z" fill="white"/>
</svg>
