<svg xmlns="http://www.w3.org/2000/svg" viewBox="0 0 24 18">
    <defs>
        <clipPath id="a">
            <path style="fill:none" d="M0 0h24v18H0z"/>
        </clipPath>
        <clipPath id="b">
            <path class="a" d="M22 18H2a2 2 0 0 1-2-2v-4a.5.5 0 0 1 .5-.5 2.5 2.5 0 0 0 0-5A.5.5 0 0 1 0 6V2a2 2 0 0 1 2-2h20a2 2 0 0 1 2 2v4a.5.5 0 0 1-.5.5 2.5 2.5 0 1 0 0 5 .5.5 0 0 1 .5.5v4a2 2 0 0 1-2 2ZM6.5 14a.5.5 0 0 0-.5.5v1a.5.5 0 1 0 1 0v-1a.5.5 0 0 0-.5-.5ZM16 9a2.3 2.3 0 0 0-2 2.5 2.3 2.3 0 0 0 2 2.5 2.3 2.3 0 0 0 2-2.5A2.3 2.3 0 0 0 16 9Zm.5-5a.5.5 0 0 0-.416.223l-6 9a.5.5 0 1 0 .832.554l6-9a.5.5 0 0 0-.139-.693A.507.507 0 0 0 16.5 4Zm-10 6a.5.5 0 0 0-.5.5v1a.5.5 0 0 0 1 0v-1a.5.5 0 0 0-.5-.5ZM11 4a2.3 2.3 0 0 0-2 2.5A2.3 2.3 0 0 0 11 9a2.3 2.3 0 0 0 2-2.5A2.3 2.3 0 0 0 11 4ZM6.5 6a.5.5 0 0 0-.5.5v1a.5.5 0 1 0 1 0v-1a.5.5 0 0 0-.5-.5Zm0-4.126a.5.5 0 0 0-.5.5V3.5a.5.5 0 0 0 1 0V2.375a.5.5 0 0 0-.5-.5Z"/>
        </clipPath>
        <style>
            .a{fill:#fff}
        </style>
    </defs>
    <g style="clip-path:url(#a)">
        <g style="clip-path:url(#b)">
            <path class="a" d="M-3-6h30v30H-3z"/>
            <path class="a" d="M-3-6h30v30H-3z"/>
        </g>
    </g>
</svg>
