<svg xmlns="http://www.w3.org/2000/svg" width="13.676" height="16.606" viewBox="0 0 13.676 16.606">
  <g id="Path_18513" data-name="Path 18513" fill="none">
    <path d="M2.931,0h7.815a2.931,2.931,0,0,1,2.931,2.931V16.606L6.838,11.164,0,16.606V2.931A2.931,2.931,0,0,1,2.931,0Z" stroke="none"/>
    <path d="M 2.930548667907715 1.500002861022949 C 2.141737937927246 1.500002861022949 1.499998092651367 2.141742706298828 1.499998092651367 2.93055248260498 L 1.499998092651367 13.4954080581665 L 5.903818130493164 9.990262985229492 L 6.837948322296143 9.246763229370117 L 7.772078514099121 9.990262985229492 L 12.17589855194092 13.4954080581665 L 12.17589855194092 2.93055248260498 C 12.17589855194092 2.141742706298828 11.53415870666504 1.500002861022949 10.74534797668457 1.500002861022949 L 2.930548667907715 1.500002861022949 M 2.930548667907715 1.9073486328125e-06 L 10.74534797668457 1.9073486328125e-06 C 12.36384868621826 1.9073486328125e-06 13.67589855194092 1.312052726745605 13.67589855194092 2.93055248260498 L 13.67589855194092 13.67589282989502 C 13.67589855194092 15.29439258575439 13.67589855194092 15.07129287719727 13.67589855194092 16.60644340515137 L 6.837948322296143 11.16389274597168 L -1.9073486328125e-06 16.60644340515137 C -1.9073486328125e-06 15.07129287719727 -1.9073486328125e-06 15.29439258575439 -1.9073486328125e-06 13.67589282989502 L -1.9073486328125e-06 2.93055248260498 C -1.9073486328125e-06 1.312052726745605 1.312047958374023 1.9073486328125e-06 2.930548667907715 1.9073486328125e-06 Z" stroke="none" fill="#8c95b0"/>
  </g>
</svg>
