<svg xmlns="http://www.w3.org/2000/svg" width="24" height="24">
    <defs>
        <clipPath id="a">
            <path fill="none" d="M0 0h24v24H0z"/>
        </clipPath>
        <clipPath id="b">
            <path d="M12.08 24a3 3 0 0 1-3-3 .7.7 0 0 0-.484-.685.652.652 0 0 0-.265-.056.64.64 0 0 0-.445.178l-.059.059a3 3 0 0 1-4.244 0 3.022 3.022 0 0 1-.883-2.121 2.982 2.982 0 0 1 .879-2.122l.052-.052a.655.655 0 0 0 .126-.727.648.648 0 0 0-.591-.393H3a3 3 0 0 1 0-6 .7.7 0 0 0 .686-.481.648.648 0 0 0-.122-.709L3.5 7.827a3 3 0 1 1 4.247-4.244l.052.052a.647.647 0 0 0 .454.185.639.639 0 0 0 .262-.056 1.053 1.053 0 0 1 .2-.064A.646.646 0 0 0 9 3.17V3a3 3 0 0 1 6 0v.086a.671.671 0 0 0 .668.655.637.637 0 0 0 .445-.178l.059-.059a2.983 2.983 0 0 1 2.123-.88 3.018 3.018 0 0 1 2.121.879 3 3 0 0 1 0 4.244l-.052.052a.646.646 0 0 0-.13.716 1 1 0 0 1 .064.2.646.646 0 0 0 .532.285H21a3 3 0 1 1 0 6h-.086a.663.663 0 0 0-.477 1.112l.059.059a2.983 2.983 0 0 1 .88 2.123 3 3 0 0 1-3 3 2.982 2.982 0 0 1-2.122-.879l-.052-.052a.644.644 0 0 0-.453-.184.68.68 0 0 0-.274.059.645.645 0 0 0-.393.59V21a3 3 0 0 1-3.002 3Zm-3.737-5.747a2.455 2.455 0 0 1 1 .209 2.65 2.65 0 0 1 1.737 2.448V21a1 1 0 1 0 2 0v-.174a2.662 2.662 0 0 1 4.527-1.883l.061.06a1 1 0 0 0 1.416 0 1 1 0 0 0 0-1.416l-.067-.067A2.664 2.664 0 0 1 20.91 13H21a1 1 0 1 0 0-2h-.174A2.649 2.649 0 0 1 18.4 9.394a1 1 0 0 1-.072-.265 2.641 2.641 0 0 1 .615-2.737l.06-.06a1.008 1.008 0 0 0 .293-.707 1 1 0 0 0-1.71-.708l-.067.068a2.642 2.642 0 0 1-1.856.757 2.606 2.606 0 0 1-1.057-.223A2.652 2.652 0 0 1 13 3.09V3a1 1 0 1 0-2 0v.175A2.647 2.647 0 0 1 9.394 5.6a.955.955 0 0 1-.265.073 2.653 2.653 0 0 1-2.737-.615L6.332 5a1 1 0 0 0-.707-.3.993.993 0 0 0-.708.3 1 1 0 0 0 0 1.415l.068.068a2.621 2.621 0 0 1 .553 2.865A2.65 2.65 0 0 1 3.09 11.08H3a1 1 0 1 0 0 2h.175a2.663 2.663 0 0 1 1.883 4.527L5 17.668a1 1 0 1 0 1.416 1.415l.068-.067a2.686 2.686 0 0 1 1.859-.763ZM12 16a4 4 0 1 1 4-4 4 4 0 0 1-4 4Zm0-6a2 2 0 1 0 2 2 2 2 0 0 0-2-2Z" fill="#c4c6cf"/>
        </clipPath>
        <filter id="c" x="-60" y="-42" width="144" height="144" filterUnits="userSpaceOnUse">
            <feOffset dy="18"/>
            <feGaussianBlur stdDeviation="20" result="d"/>
            <feFlood flood-color="#6b67d2" flood-opacity=".349"/>
            <feComposite operator="in" in2="d"/>
            <feComposite in="SourceGraphic"/>
        </filter>
    </defs>
    <g clip-path="url(#a)">
        <path d="M12.08 24a3 3 0 0 1-3-3 .7.7 0 0 0-.484-.685.651.651 0 0 0-.264-.056.641.641 0 0 0-.445.178l-.059.059a3 3 0 0 1-4.244 0 3.022 3.022 0 0 1-.884-2.121 2.982 2.982 0 0 1 .879-2.122l.052-.052a.656.656 0 0 0 .126-.727.648.648 0 0 0-.591-.393H3a3 3 0 0 1 0-6 .7.7 0 0 0 .686-.481.648.648 0 0 0-.122-.709L3.5 7.827a3.002 3.002 0 1 1 4.247-4.244l.052.052a.648.648 0 0 0 .716.13 1.058 1.058 0 0 1 .2-.064A.647.647 0 0 0 9 3.17V3a3 3 0 0 1 6 0v.086a.671.671 0 0 0 .668.655.639.639 0 0 0 .445-.178l.059-.059a2.983 2.983 0 0 1 2.123-.88 3.018 3.018 0 0 1 2.121.879 3 3 0 0 1 0 4.244l-.052.052a.646.646 0 0 0-.13.716.986.986 0 0 1 .064.2.647.647 0 0 0 .532.285H21a3 3 0 1 1 0 6h-.086a.663.663 0 0 0-.477 1.112l.059.059a2.983 2.983 0 0 1 .88 2.123 3 3 0 0 1-3 3 2.982 2.982 0 0 1-2.122-.879l-.052-.052a.643.643 0 0 0-.453-.185.676.676 0 0 0-.274.059.645.645 0 0 0-.393.59V21a3 3 0 0 1-3.002 3Zm-3.737-5.747a2.456 2.456 0 0 1 1 .209 2.65 2.65 0 0 1 1.737 2.448V21a1 1 0 1 0 2 0v-.174a2.661 2.661 0 0 1 4.527-1.883l.061.06a1 1 0 0 0 1.416 0 1 1 0 0 0 0-1.416l-.067-.067A2.664 2.664 0 0 1 20.91 13H21a1 1 0 1 0 0-2h-.174A2.649 2.649 0 0 1 18.4 9.394a1 1 0 0 1-.072-.265 2.641 2.641 0 0 1 .615-2.737l.06-.06a1.008 1.008 0 0 0 .293-.707 1 1 0 0 0-1.71-.708l-.067.068a2.642 2.642 0 0 1-1.856.757 2.6 2.6 0 0 1-1.058-.223A2.652 2.652 0 0 1 13 3.09V3a1 1 0 1 0-2 0v.175A2.647 2.647 0 0 1 9.394 5.6a.972.972 0 0 1-.265.073 2.652 2.652 0 0 1-2.737-.615L6.332 5a1 1 0 0 0-.707-.3.993.993 0 0 0-.708.3 1 1 0 0 0 0 1.415l.068.068a2.621 2.621 0 0 1 .553 2.865A2.651 2.651 0 0 1 3.09 11.08H3a1 1 0 1 0 0 2h.175a2.663 2.663 0 0 1 1.883 4.527L5 17.668a1 1 0 1 0 1.416 1.415l.068-.067a2.685 2.685 0 0 1 1.859-.763Z" fill="#c4c6cf"/>
        <g clip-path="url(#b)">
            <g filter="url(#c)">
                <path fill="#c4c6cf" d="M0 0h24v24H0z"/>
            </g>
        </g>
    </g>
</svg>
