<svg width="21" height="21" viewBox="0 0 21 21" fill="none" xmlns="http://www.w3.org/2000/svg">
<path d="M9.56443 18.2815C9.58307 17.9956 9.52715 17.6313 9.59549 17.2782C9.66383 16.8859 9.86263 16.544 10.1732 16.2638C11.7326 14.8571 13.2981 13.4447 14.8574 12.038C15.137 11.7858 15.4165 11.5392 15.6899 11.287C16.541 10.5191 17.8891 10.5135 18.7402 11.287C19.2807 11.7746 19.815 12.2566 20.3554 12.7386C21.2065 13.5064 21.219 14.6777 20.3679 15.4456C18.5228 17.1101 16.6777 18.7691 14.8388 20.4336C14.4226 20.8091 13.9131 20.9997 13.3167 20.9997C12.7638 20.9997 12.2109 20.9997 11.658 20.9997C10.5025 20.9997 9.57685 20.1702 9.57064 19.1278C9.57064 18.87 9.57064 18.6121 9.57064 18.2871L9.56443 18.2815ZM12.4967 19.38C12.7576 19.38 13.0123 19.38 13.2733 19.38C13.4099 19.38 13.5093 19.3463 13.6025 19.2623C14.6524 18.3095 15.7085 17.3623 16.7646 16.4152C16.833 16.3535 16.8454 16.3199 16.7646 16.2526C16.1186 15.6753 15.4725 15.0925 14.8326 14.5096C14.7642 14.4479 14.7208 14.4423 14.6462 14.5096C13.5901 15.4624 12.534 16.4151 11.4779 17.3679C11.3909 17.4464 11.3474 17.5305 11.3474 17.6426C11.3474 18.1189 11.3474 18.5953 11.3474 19.0717C11.3474 19.2903 11.453 19.3856 11.6953 19.3856C11.9562 19.3856 12.2234 19.3856 12.4843 19.3856L12.4967 19.38ZM17.2244 12.3126C17.1312 12.3126 17.0566 12.3406 17.0007 12.3967C16.6963 12.6713 16.3857 12.9515 16.0813 13.2262C16.0316 13.271 16.0316 13.3046 16.0813 13.3495C16.7398 13.9435 17.3983 14.532 18.0568 15.1261C18.1065 15.1709 18.1376 15.1821 18.1935 15.1261C18.5041 14.8459 18.8148 14.5656 19.1254 14.2854C19.2558 14.1677 19.2496 14.022 19.1192 13.8987C18.5663 13.3943 18.0071 12.8955 17.4542 12.3967C17.3921 12.3406 17.3238 12.307 17.2368 12.307L17.2244 12.3126Z" fill="white"/>
<path d="M10.4528 10.2283C7.31553 10.2283 4.78085 7.93606 4.78085 5.10576C4.78085 2.29226 7.33416 0 10.459 0C13.5901 0 16.131 2.29787 16.1248 5.12257C16.1248 7.94167 13.5839 10.2227 10.4528 10.2227V10.2283ZM14.3418 5.11698C14.3418 3.1834 12.5961 1.61972 10.4404 1.62532C8.29709 1.62532 6.57004 3.1946 6.57625 5.12818C6.57625 7.05615 8.32194 8.61983 10.4652 8.61983C12.5961 8.61983 14.348 7.03934 14.3418 5.11698Z" fill="white"/>
<path d="M4.99205 20.9999C4.42672 20.9999 3.86139 20.9999 3.30227 20.9999C1.60627 20.9999 0.196047 19.8734 0.0283111 18.3546C-0.0835128 17.3514 0.140135 16.393 0.618493 15.485C1.68703 13.473 3.45137 12.2792 5.89907 11.9093C6.19726 11.8645 6.50788 11.8477 6.81229 11.8477C7.63234 11.8477 8.44617 11.8477 9.26621 11.8477C9.71972 11.8477 10.0925 12.1503 10.1546 12.5538C10.2105 12.9349 9.94336 13.3105 9.52713 13.4281C9.41531 13.4562 9.30348 13.4674 9.19166 13.4674C8.40889 13.4674 7.62612 13.4674 6.84957 13.4674C4.32732 13.4786 2.18403 15.1768 1.84856 17.4298C1.80507 17.7269 1.76779 18.0239 1.83613 18.3209C1.97902 18.9374 2.57541 19.3802 3.27742 19.3858C4.46399 19.3858 5.65057 19.3858 6.83093 19.3858C7.3652 19.3858 7.76901 19.7333 7.76901 20.1873C7.76901 20.6412 7.38384 20.9999 6.87442 20.9999C6.24696 20.9999 5.61951 20.9999 4.99826 20.9999H4.99205Z" fill="white"/>
</svg>
