<svg width="16" height="12" viewBox="0 0 16 12" fill="none" xmlns="http://www.w3.org/2000/svg">
<path d="M0 8.63114C0.108182 8.43529 0.151998 8.21426 0.240596 8.01095C0.5325 7.33948 1.05102 6.98509 1.77472 6.98509C2.23176 6.9914 2.68448 6.89583 3.09996 6.70531C3.6017 6.47776 4.11556 6.27818 4.62755 6.07301C4.67175 6.06337 4.71039 6.03676 4.73516 5.99891C4.75993 5.96106 4.76884 5.91499 4.75998 5.87063C4.67231 4.46241 4.59118 3.05418 4.50818 1.64595C4.50678 1.61986 4.50678 1.59371 4.50818 1.56761C4.50818 1.36058 4.62475 1.22162 4.80474 1.21509C4.98473 1.20856 5.11716 1.33074 5.13022 1.53777C5.17311 2.22168 5.21447 2.90776 5.25426 3.59602C5.29902 4.35982 5.34753 5.12362 5.38577 5.88742C5.38557 5.92794 5.39856 5.96742 5.42279 5.99989C5.44702 6.03237 5.48116 6.05607 5.52006 6.06741C6.07973 6.29738 6.67946 6.41404 7.28453 6.41061C7.4151 6.41061 7.44774 6.37424 7.44774 6.24648C7.44307 4.71514 7.44774 3.18475 7.44774 1.65342C7.44372 1.58062 7.45095 1.50764 7.46919 1.43705C7.4887 1.37094 7.52991 1.31333 7.58617 1.27349C7.64243 1.23366 7.71045 1.21393 7.77929 1.21749C7.84813 1.22104 7.91375 1.24768 7.96561 1.29309C8.01746 1.33851 8.05253 1.40006 8.06513 1.46783C8.0726 1.52439 8.07539 1.58147 8.07351 1.63849V9.82393C8.07351 10.1485 7.96907 10.252 7.64173 10.252H1.52759C1.24781 10.252 0.989486 10.1419 0.719032 10.0907C0.596861 10.0673 0.477474 10.0291 0.355304 10.0049C0.280212 9.9964 0.208444 9.96927 0.146539 9.92593C0.0846327 9.8826 0.0345576 9.82444 0.000910743 9.75678L0 8.63114ZM3.05891 7.40104C3.15217 7.49989 3.23799 7.58196 3.31073 7.67522C3.35984 7.73379 3.38466 7.80891 3.38015 7.88521C3.37565 7.9615 3.34214 8.03318 3.28648 8.08556C3.23359 8.13642 3.16415 8.16657 3.09088 8.17051C3.01761 8.17444 2.94537 8.1519 2.88733 8.10701C2.83897 8.07608 2.7961 8.03732 2.76048 7.9923C2.52267 7.65004 2.20094 7.56517 1.79339 7.59408C1.26927 7.63232 0.869162 7.92702 0.746991 8.43902C0.737665 8.48192 0.719958 8.52109 0.782442 8.53228C1.03145 8.58451 1.26833 8.69828 1.52852 8.69921C3.45434 8.69921 5.3811 8.69921 7.31065 8.69921C7.42069 8.69921 7.45147 8.66751 7.4496 8.55932C7.44401 8.09302 7.44308 7.63232 7.4496 7.16975C7.4496 7.04851 7.41322 7.02426 7.29945 7.02426C6.57936 7.03921 5.86484 6.89528 5.20669 6.60273C5.17841 6.58971 5.14947 6.57818 5.11997 6.56822C5.0836 6.55703 5.0435 6.55516 5.02671 6.59247C5.00992 6.62977 5.04629 6.64563 5.06587 6.66615C5.12276 6.72676 5.18339 6.78365 5.24215 6.84334C5.41281 7.01867 5.42866 7.19959 5.28691 7.33669C5.14515 7.47378 4.97261 7.45233 4.80474 7.28912C4.71148 7.19586 4.61357 7.1026 4.51751 7.00188C4.35058 6.83401 4.29647 6.83308 4.08477 7.00188C4.17803 7.08861 4.27131 7.16975 4.35711 7.26021C4.4998 7.41129 4.50352 7.59222 4.37576 7.71998C4.24799 7.84775 4.07173 7.84122 3.91599 7.69946C3.84325 7.63232 3.77517 7.55957 3.70522 7.48963C3.42544 7.22477 3.42542 7.22477 3.05891 7.40104ZM0.625771 9.14873C0.650952 9.25038 0.553948 9.39587 0.682647 9.42851C0.982012 9.50778 1.27951 9.62249 1.59473 9.62342C3.48543 9.62342 5.37581 9.62342 7.26588 9.62342C7.30226 9.62342 7.33862 9.62342 7.37499 9.62342C7.38766 9.62459 7.40038 9.62182 7.4114 9.61547C7.42242 9.60913 7.43122 9.59952 7.43656 9.58798C7.45354 9.56045 7.46243 9.52871 7.46224 9.49636C7.46205 9.46402 7.45277 9.43238 7.43546 9.40506C7.41816 9.37773 7.39352 9.35583 7.36436 9.34183C7.3352 9.32784 7.3027 9.32232 7.27055 9.32592C5.5098 9.32592 3.74997 9.32592 1.98922 9.32592C1.56955 9.32592 1.15921 9.30727 0.760061 9.16831C0.715893 9.15819 0.670989 9.15165 0.625771 9.14873Z" fill="white"/>
<path d="M8.37476 9.17425C8.41579 8.51584 8.68439 8.03275 9.22623 7.74365C9.61941 7.52928 9.95722 7.22626 10.2129 6.85861C10.5514 6.39231 10.9124 5.93813 11.2677 5.48302C11.2951 5.45377 11.3123 5.41648 11.3168 5.37667C11.3214 5.33686 11.313 5.29666 11.2929 5.262C10.7706 4.09998 10.2512 2.93671 9.7345 1.7722C9.61512 1.50361 9.65335 1.31709 9.84454 1.23689C10.0357 1.15669 10.1868 1.24808 10.3043 1.51667C10.8173 2.66563 11.3289 3.81584 11.8394 4.96729C11.8443 4.98898 11.8536 5.00941 11.8668 5.02729C11.8801 5.04517 11.8968 5.06011 11.9161 5.07116C11.9354 5.08221 11.9568 5.08913 11.9789 5.09148C12.001 5.09383 12.0234 5.09155 12.0445 5.0848C12.6585 4.99362 13.2477 4.77985 13.7773 4.45623C13.8836 4.39374 13.8566 4.33779 13.8258 4.25665C13.3682 3.02935 12.9109 1.80205 12.454 0.574745C12.4286 0.511844 12.4075 0.447357 12.3905 0.381695C12.3732 0.310467 12.3816 0.23538 12.4144 0.1698C12.4472 0.10422 12.5022 0.0524008 12.5696 0.0235743C12.6376 -0.00493064 12.7136 -0.00767898 12.7835 0.0158387C12.8534 0.0393563 12.9123 0.0875272 12.9492 0.15134C12.9824 0.210901 13.0102 0.273325 13.0322 0.33786C13.5209 1.64723 14.0089 2.95754 14.4964 4.26877C14.5286 4.35654 14.5682 4.4414 14.6148 4.52245C15.0245 5.22811 15.433 5.93534 15.8402 6.64411C16.1368 7.15891 16.0184 7.59816 15.5026 7.89566L10.6531 10.6991C10.4106 10.8399 10.1346 10.8791 9.87439 10.9667C9.7261 11.0161 9.57688 11.06 9.42673 11.101C9.22716 11.1551 9.10685 11.1085 9.00333 10.9341C8.85115 10.698 8.71169 10.4539 8.58552 10.2029C8.42885 9.85878 8.41393 9.4904 8.37476 9.17425ZM10.5412 7.47226C10.641 7.4993 10.7277 7.52169 10.821 7.54966C11.0289 7.61401 11.1269 7.76883 11.0756 7.94695C11.0243 8.12508 10.8611 8.20435 10.6484 8.15026C10.4824 8.10829 10.3183 8.057 10.1523 8.0169C10.124 8.00423 10.0931 7.99815 10.0621 7.99912C10.0311 8.00009 10.0007 8.00808 9.97325 8.02249C9.81004 8.12415 9.63844 8.20901 9.4771 8.31719C9.27968 8.4428 9.13069 8.63164 9.05447 8.85286C8.97824 9.07409 8.97929 9.31462 9.05743 9.53517C9.06955 9.57248 9.07328 9.60605 9.12644 9.58926C9.36332 9.51279 9.6235 9.496 9.83987 9.37104C11.5185 8.40766 13.1972 7.43402 14.8815 6.46692C14.9626 6.42029 14.9748 6.38578 14.9281 6.30091C14.6838 5.8887 14.446 5.4737 14.211 5.05776C14.1643 4.97569 14.127 4.9645 14.0431 5.01019C13.8076 5.15353 13.5613 5.27826 13.3064 5.38323C12.8766 5.55603 12.4249 5.66869 11.9643 5.71803C11.9046 5.72456 11.8375 5.71803 11.8235 5.81129C11.9578 5.85046 12.0949 5.88124 12.2255 5.9288C12.2642 5.94091 12.3001 5.96053 12.3313 5.98654C12.3624 6.01255 12.3881 6.04444 12.4069 6.08038C12.4257 6.11632 12.4372 6.15562 12.4408 6.19602C12.4444 6.23642 12.44 6.27713 12.4278 6.31583C12.4025 6.39344 12.3479 6.45806 12.2756 6.49588C12.2032 6.5337 12.119 6.54172 12.0408 6.51821C11.8829 6.48548 11.7272 6.44312 11.5745 6.39138C11.5476 6.37761 11.5182 6.36938 11.488 6.36719C11.4579 6.36501 11.4276 6.36891 11.399 6.37865C11.3704 6.38839 11.344 6.40378 11.3214 6.42391C11.2989 6.44404 11.2806 6.4685 11.2677 6.49583C11.2033 6.58909 11.2276 6.61333 11.3237 6.63292C11.4204 6.65257 11.5158 6.67875 11.609 6.71126C11.6495 6.72169 11.6875 6.74017 11.7207 6.7656C11.7539 6.79103 11.7816 6.82288 11.8023 6.85926C11.8229 6.89564 11.836 6.9358 11.8408 6.97735C11.8455 7.01889 11.8419 7.06097 11.83 7.10108C11.8174 7.14099 11.7971 7.17801 11.7701 7.21002C11.7432 7.24204 11.7102 7.26842 11.673 7.28765C11.6358 7.30689 11.5952 7.3186 11.5535 7.32211C11.5118 7.32562 11.4698 7.32087 11.43 7.30812C11.3236 7.28294 11.2192 7.25123 11.1138 7.22325C10.766 7.12999 10.766 7.12999 10.5589 7.42843C10.5515 7.44237 10.5455 7.45706 10.5412 7.47226ZM15.3739 7.11694C15.3708 7.06414 15.3479 7.01448 15.3096 6.97798C15.2574 6.93601 15.2163 6.99477 15.1744 7.01715C13.6729 7.88261 12.1705 8.74526 10.6736 9.61817C10.2763 9.85039 9.87811 10.0686 9.42113 10.1591C9.38196 10.1665 9.28777 10.1535 9.32787 10.2384C9.36424 10.3064 9.37545 10.4435 9.4883 10.4127C9.78766 10.3288 10.101 10.2803 10.3752 10.1236C11.2285 9.63589 12.0791 9.14161 12.9305 8.65013L15.2051 7.34076C15.2881 7.29133 15.3693 7.2475 15.3739 7.11694Z" fill="white"/>
</svg>
