<svg width="199" height="199" viewBox="0 0 199 199" fill="none" xmlns="http://www.w3.org/2000/svg">
<g filter="url(#filter0_d_13572_1639)">
<rect x="4" width="191" height="191" rx="15" fill="white"/>
</g>
<g filter="url(#filter1_d_13572_1639)">
<rect x="4" y="122.839" width="191" height="68.1608" rx="15" fill="url(#paint0_linear_13572_1639)" shape-rendering="crispEdges"/>
</g>
<g opacity="0.2">
<path fill-rule="evenodd" clip-rule="evenodd" d="M138.782 118.562C143.5 121.124 143.5 125.303 138.849 127.865L108.379 144.583C103.66 147.145 96.0425 147.145 91.3237 144.583L60.6513 127.865C55.9325 125.303 55.9325 121.124 60.5839 118.562L91.0541 101.844C95.7729 99.2824 103.39 99.2824 108.109 101.844L138.782 118.562Z" fill="#606060"/>
</g>
<path fill-rule="evenodd" clip-rule="evenodd" d="M140.332 116.675V117.349C140.332 117.417 140.332 117.484 140.265 117.484C140.197 117.484 140.265 117.551 140.197 117.619C140.19 117.67 140.166 117.717 140.13 117.754C140.13 117.821 140.062 117.821 140.062 117.888C140.062 117.956 139.995 118.023 139.995 118.091C139.995 118.158 139.928 118.158 139.928 118.225C139.928 118.293 139.86 118.36 139.86 118.428C139.86 118.495 139.793 118.495 139.793 118.563C139.793 118.63 139.725 118.697 139.658 118.765C139.591 118.832 139.591 118.832 139.591 118.9C139.591 118.967 139.456 119.034 139.456 119.102L139.388 119.169C139.321 119.304 139.186 119.371 139.119 119.506L139.051 119.574C138.984 119.641 138.916 119.776 138.782 119.843L138.647 119.978C138.579 120.046 138.512 120.046 138.512 120.113C138.512 120.18 138.377 120.18 138.377 120.248C138.377 120.315 138.242 120.315 138.175 120.383C138.107 120.45 138.04 120.45 137.973 120.517C137.905 120.585 137.838 120.585 137.77 120.652C137.703 120.72 137.636 120.72 137.568 120.787C137.501 120.855 137.433 120.855 137.366 120.922C137.292 120.993 137.198 121.04 137.096 121.057L108.338 137.775C108.069 137.91 107.867 138.045 107.597 138.179C107.529 138.179 107.462 138.247 107.395 138.247C107.125 138.382 106.923 138.449 106.653 138.584C106.616 138.584 106.586 138.614 106.586 138.651C106.327 138.771 106.056 138.862 105.777 138.921C105.583 138.998 105.378 139.043 105.17 139.056C105.015 139.11 104.858 139.155 104.698 139.191C104.496 139.258 104.294 139.258 104.091 139.325C103.889 139.393 103.754 139.393 103.62 139.393H103.417C103.148 139.46 102.878 139.46 102.608 139.528H102.406C102.246 139.517 102.085 139.54 101.934 139.595C101.665 139.595 101.395 139.662 101.193 139.662H98.9682C98.7858 139.673 98.603 139.65 98.4289 139.595C98.2267 139.595 98.0244 139.528 97.8896 139.528C97.7548 139.528 97.5525 139.46 97.3503 139.46C97.1422 139.448 96.9374 139.402 96.7436 139.325C96.6088 139.325 96.4065 139.258 96.2717 139.258C96.0021 139.191 95.7998 139.123 95.5976 139.056C95.3954 138.988 95.2605 138.988 95.1257 138.921C94.9909 138.853 94.9909 138.853 94.8561 138.853C94.6207 138.793 94.3941 138.702 94.1819 138.584C94.1145 138.584 94.0471 138.516 93.9797 138.516C93.7659 138.455 93.5617 138.364 93.373 138.247C93.3056 138.179 93.1708 138.179 93.1034 138.112L92.2944 137.707L63.3074 120.989C61.0828 119.709 59.9368 118.023 59.9368 116.271V119.371C59.9368 121.057 61.0828 122.742 63.3074 124.09L92.2944 140.808L93.1034 141.213C93.1708 141.28 93.3056 141.28 93.373 141.348C93.5752 141.415 93.7101 141.483 93.9123 141.55H93.9797C94.0471 141.55 94.1145 141.617 94.1819 141.617C94.4173 141.678 94.6439 141.768 94.8561 141.887C94.9235 141.887 94.9909 141.954 95.1257 141.954C95.1768 141.962 95.2242 141.985 95.2605 142.022C95.3279 142.022 95.4628 142.089 95.5302 142.089C95.7324 142.157 96.0021 142.224 96.2043 142.291C96.2784 142.283 96.3526 142.307 96.4065 142.359C96.5016 142.349 96.5971 142.373 96.6762 142.426C96.8784 142.494 97.0807 142.494 97.2829 142.561C97.3773 142.558 97.4706 142.582 97.5525 142.629H97.8222C98.0244 142.629 98.2267 142.696 98.3615 142.696H101.125C101.375 142.71 101.624 142.687 101.867 142.629H102.541C102.815 142.617 103.087 142.571 103.35 142.494H103.62C103.733 142.478 103.846 142.455 103.957 142.426C104.159 142.359 104.361 142.359 104.563 142.291C104.718 142.238 104.876 142.193 105.035 142.157C105.229 142.08 105.434 142.034 105.642 142.022C105.709 142.022 105.709 142.022 105.777 141.954C106.012 141.894 106.239 141.803 106.451 141.685C106.488 141.685 106.518 141.655 106.518 141.617C106.777 141.533 107.026 141.42 107.26 141.28C107.327 141.28 107.395 141.213 107.462 141.213C107.717 141.092 107.964 140.957 108.204 140.808L136.988 124.09C137.056 124.09 137.056 124.023 137.123 124.023C137.191 124.023 137.191 123.955 137.258 123.955C137.325 123.955 137.393 123.888 137.46 123.821C137.528 123.753 137.595 123.753 137.663 123.686C137.73 123.618 137.797 123.618 137.865 123.551C137.932 123.484 138 123.484 138.067 123.416C138.134 123.349 138.202 123.349 138.269 123.281C138.337 123.214 138.404 123.214 138.404 123.147C138.404 123.079 138.539 123.079 138.539 123.012L138.606 122.944L138.674 122.877L138.943 122.607L139.011 122.54C139.121 122.445 139.212 122.331 139.28 122.203L139.348 122.135C139.415 122.068 139.483 122.001 139.483 121.933C139.483 121.866 139.55 121.866 139.55 121.798C139.55 121.731 139.617 121.663 139.685 121.596C139.73 121.551 139.775 121.506 139.82 121.461C139.82 121.394 139.887 121.326 139.887 121.259C139.887 121.192 139.954 121.192 139.954 121.124C139.954 121.057 140.022 120.989 140.022 120.922V120.787C140.029 120.736 140.053 120.689 140.089 120.652C140.089 120.585 140.089 120.585 140.157 120.518C140.224 120.45 140.157 120.383 140.224 120.383V116.473C140.332 116.54 140.332 116.608 140.332 116.675Z" fill="url(#paint1_linear_13572_1639)"/>
<path fill-rule="evenodd" clip-rule="evenodd" d="M137.029 111.754C141.478 114.315 141.545 118.495 137.096 121.056L108.338 137.775C103.889 140.336 96.6762 140.336 92.227 137.775L63.2399 121.056C58.7907 118.495 58.7233 114.315 63.1725 111.754L91.9573 95.0355C96.4065 92.4738 103.62 92.4738 108.069 95.0355L137.029 111.754Z" fill="url(#paint2_linear_13572_1639)"/>
<path fill-rule="evenodd" clip-rule="evenodd" d="M119.367 115.866C118.828 118.293 116.94 120.585 113.772 122.472C106.02 126.989 93.481 126.989 85.6612 122.472C82.4255 120.585 80.5379 118.225 79.9986 115.798C79.1897 112.36 81.0772 108.787 85.5938 106.158C93.3462 101.642 105.952 101.642 113.705 106.158C118.289 108.787 120.176 112.428 119.367 115.866Z" fill="url(#paint3_linear_13572_1639)"/>
<path fill-rule="evenodd" clip-rule="evenodd" d="M119.367 115.866C118.828 118.293 116.94 120.585 113.772 122.472C106.019 126.989 93.4809 126.989 85.6611 122.472C82.4254 120.585 80.5378 118.225 79.9985 115.798C80.5378 113.372 82.4254 111.08 85.5937 109.192C93.3461 104.676 105.952 104.676 113.704 109.192C116.94 111.08 118.828 113.439 119.367 115.866Z" fill="url(#paint4_linear_13572_1639)"/>
<path opacity="0.6" fill-rule="evenodd" clip-rule="evenodd" d="M106.019 25.7363C106.032 33.2255 104.941 40.6757 102.784 47.8474C100.664 55.031 97.5075 61.8667 93.4134 68.1383L90.9866 71.846C88.9456 71.0462 87.019 69.9809 85.2566 68.6776C83.2611 67.1556 81.5105 65.3369 80.0659 63.2847C77.3853 59.4017 75.9595 54.7903 75.9807 50.072V43.0612C80.478 43.9362 85.033 41.8485 87.3059 37.8704L90.9461 31.5337C92.4426 32.4004 94.1379 32.8649 95.8672 32.882C99.1027 32.9019 102.136 31.3095 103.957 28.635L106.019 25.7363Z" fill="url(#paint5_linear_13572_1639)"/>
<path fill-rule="evenodd" clip-rule="evenodd" d="M111.035 28.6353C111.047 36.1245 109.957 43.5747 107.799 50.7463C105.68 57.9299 102.523 64.7656 98.429 71.0373L96.0022 74.7449C93.9612 73.9452 92.0346 72.8799 90.2722 71.5765C88.2767 70.0545 86.5261 68.2358 85.0814 66.1836C82.3913 62.3038 80.9561 57.6921 80.9693 52.9709V45.9601C85.4666 46.8352 90.0216 44.7475 92.2945 40.7694L95.9347 34.4327C97.4312 35.2993 99.1266 35.7638 100.856 35.7809C104.091 35.8008 107.124 34.2085 108.945 31.534L111.035 28.6353Z" fill="url(#paint6_linear_13572_1639)"/>
<g opacity="0.75">
<path fill-rule="evenodd" clip-rule="evenodd" d="M109.08 31.4665L111.035 28.6353C111.002 36.0673 109.959 43.4604 107.934 50.6115C105.786 57.7842 102.631 64.616 98.5637 70.9024L96.1368 74.6101C94.0889 73.8254 92.1603 72.759 90.4068 71.4417C84.5455 67.0537 81.0976 60.1579 81.104 52.8361V45.8253C81.7698 45.9593 82.4472 46.027 83.1264 46.0275C86.956 46.0417 90.5023 44.0116 92.4292 40.702L96.0694 34.3653C97.5531 35.2622 99.2569 35.729 100.99 35.7135C104.222 35.718 107.248 34.1292 109.08 31.4665ZM110.4 30.4277C110.401 30.4144 110.401 30.4012 110.401 30.388H110.428L110.4 30.4277ZM110.4 30.4277L109.484 31.7362C107.552 34.5632 104.348 36.2536 100.923 36.2528C99.2826 36.2414 97.6672 35.8491 96.2042 35.1068L92.7393 41.039C90.7303 44.4992 87.0331 46.6303 83.032 46.6342C82.5367 46.6454 82.0412 46.6229 81.5489 46.5668V52.9709C81.5291 57.5891 82.9164 62.1038 85.5262 65.914C88.082 69.5817 91.639 72.4366 95.7728 74.1382L97.93 70.7676C101.987 64.5329 105.121 57.7439 107.233 50.6115C109.189 44.056 110.255 37.2672 110.4 30.4277Z" fill="url(#paint7_linear_13572_1639)"/>
</g>
<path fill-rule="evenodd" clip-rule="evenodd" d="M111.035 28.6351L109.08 31.4664C107.249 34.129 104.222 35.7178 100.991 35.7133C99.257 35.7288 97.5532 35.262 96.0696 34.3651L92.4293 40.7018C90.1362 44.6576 85.5979 46.7377 81.1042 45.8925V52.9033C81.0978 60.2251 84.5457 67.1209 90.407 71.5089C81.7771 67.8481 76.1752 59.3789 76.1831 50.0046V42.9938C80.6804 43.8689 85.2354 41.7812 87.5083 37.8031L91.1485 31.4664C95.5933 34.0347 101.267 32.7413 104.159 28.5002L106.114 25.6689L111.035 28.6351Z" fill="url(#paint8_linear_13572_1639)"/>
<path opacity="0.6" fill-rule="evenodd" clip-rule="evenodd" d="M96.5144 58.6332C96.5144 58.6332 96.8515 55.9367 101.503 52.9032C103.641 54.3405 105.362 56.3172 106.491 58.6332C106.491 58.6332 109.013 42.5892 116.468 38.4771L123.951 42.7914C117.682 45.2182 111.345 55.8019 107.233 69.6887C105.211 64.498 101.503 60.3185 96.5144 58.6332Z" fill="#6BE726"/>
<g opacity="0.95">
<path fill-rule="evenodd" clip-rule="evenodd" d="M123.951 42.7914L120.176 40.6343C112.693 44.7464 110.199 60.7904 110.199 60.7904C109.418 59.0946 108.293 57.5795 106.896 56.3412C107.907 51.7572 110.671 41.578 116.468 38.4097L123.951 42.7914Z" fill="url(#paint9_linear_13572_1639)"/>
<path fill-rule="evenodd" clip-rule="evenodd" d="M105.211 54.9931L101.503 52.8359C98.6042 54.8583 96.9863 56.7458 96.5144 58.5659L100.249 60.7231C101.23 58.3207 102.973 56.3073 105.211 54.9931Z" fill="url(#paint10_linear_13572_1639)"/>
<path fill-rule="evenodd" clip-rule="evenodd" d="M101.031 61.0601C103.39 62.8802 105.548 65.5092 107.233 69.6888L110.941 71.8459C108.783 66.2508 105.278 63.015 101.031 61.0601Z" fill="#FF9418"/>
</g>
<path fill-rule="evenodd" clip-rule="evenodd" d="M100.249 60.7904C100.249 60.7904 100.586 58.0939 105.237 55.0604C107.376 56.4977 109.097 58.4744 110.226 60.7904C110.226 60.7904 112.72 44.7464 120.203 40.6343L127.686 44.9486C121.416 47.3755 115.08 57.9591 110.967 71.8459C109.013 66.6552 105.211 62.4757 100.249 60.7904Z" fill="url(#paint11_linear_13572_1639)"/>
<g opacity="0.91">
<path fill-rule="evenodd" clip-rule="evenodd" d="M110.199 60.7904C110.199 60.7904 112.693 44.7464 120.176 40.6343L127.726 44.9486C121.457 47.308 115.12 57.9591 111.008 71.8459C108.986 66.6552 105.211 62.4757 100.222 60.7904C100.222 60.7904 100.559 58.1613 105.211 55.0604C107.364 56.4802 109.089 58.4616 110.199 60.7904ZM127.052 44.8812L120.176 40.9039C113.565 44.7086 110.935 58.3817 110.525 60.5115C110.492 60.6836 110.474 60.7803 110.469 60.7904L110.334 61.6667L109.929 60.8578C108.877 58.6279 107.248 56.7196 105.211 55.33C101.638 57.7569 100.761 59.914 100.559 60.5882C105.008 62.206 108.783 65.9811 110.941 71.037C115.08 57.4872 121.147 47.5777 127.052 44.8812Z" fill="url(#paint12_linear_13572_1639)"/>
</g>
<g opacity="0.75">
<path opacity="0.9" fill-rule="evenodd" clip-rule="evenodd" d="M81.0772 52.6338V52.9034C81.0749 54.3734 81.2103 55.8404 81.4816 57.2852L97.1886 72.9921L98.4694 71.0372L98.8739 70.4305L81.0772 52.6338Z" fill="url(#paint13_linear_13572_1639)"/>
<path opacity="0.9" fill-rule="evenodd" clip-rule="evenodd" d="M87.441 45.2188C85.4531 46.1038 83.2428 46.3625 81.1042 45.9603V47.3759L100.856 67.1276C101.867 65.3075 102.878 63.4199 103.755 61.5324L87.441 45.2188Z" fill="url(#paint14_linear_13572_1639)"/>
<path opacity="0.9" fill-rule="evenodd" clip-rule="evenodd" d="M107.166 52.6339C107.368 52.0271 107.57 51.353 107.772 50.6789C108.109 49.4655 108.446 48.2521 108.716 47.0387L95.9753 34.2979L93.3462 38.8144L107.166 52.6339Z" fill="url(#paint15_linear_13572_1639)"/>
<path opacity="0.9" fill-rule="evenodd" clip-rule="evenodd" d="M105.817 56.4089C105.952 56.0044 106.087 55.6 106.222 55.2629L92.0652 41.1064C91.8796 41.4472 91.6532 41.7641 91.3911 42.0502L105.817 56.4089Z" fill="url(#paint16_linear_13572_1639)"/>
<path opacity="0.9" fill-rule="evenodd" clip-rule="evenodd" d="M102.986 35.5112L109.795 42.3198C109.997 41.1064 110.199 39.893 110.334 38.6796L106.02 34.3652C105.075 34.9036 104.051 35.2903 102.986 35.5112Z" fill="url(#paint17_linear_13572_1639)"/>
</g>
<path opacity="0.75" d="M76.0212 43.061L81.4142 46.3642" stroke="url(#paint18_linear_13572_1639)" stroke-width="0.8"/>
<path opacity="0.75" d="M90.8518 31.8032L96.0425 34.8368" stroke="url(#paint19_linear_13572_1639)" stroke-width="0.8"/>
<path opacity="0.75" d="M105.885 26.0732L110.806 28.9045" stroke="url(#paint20_linear_13572_1639)" stroke-width="0.8"/>
<path fill-rule="evenodd" clip-rule="evenodd" d="M106.896 13.1304L134.265 39.758L125.097 76.8345L97.7278 50.2068L106.896 13.1304V13.1304Z" stroke="#B5BDFC" stroke-width="0.28"/>
<path fill-rule="evenodd" clip-rule="evenodd" d="M97.7278 50.207L125.097 76.8347L88.2227 87.3509L60.8535 60.7233L97.7278 50.207V50.207Z" stroke="#B5BDFC" stroke-width="0.28"/>
<path fill-rule="evenodd" clip-rule="evenodd" d="M106.896 13.1304L97.7278 50.2068L60.8535 60.7231L69.9541 23.6466L106.896 13.1304V13.1304Z" stroke="#B5BDFC" stroke-width="0.28"/>
<path fill-rule="evenodd" clip-rule="evenodd" d="M60.5166 61.9365C61.1495 61.9365 61.6626 61.4234 61.6626 60.7905C61.6626 60.1576 61.1495 59.6445 60.5166 59.6445C59.8837 59.6445 59.3706 60.1576 59.3706 60.7905C59.3706 61.4234 59.8837 61.9365 60.5166 61.9365Z" fill="#B6BDFC"/>
<path fill-rule="evenodd" clip-rule="evenodd" d="M69.9541 24.7925C70.587 24.7925 71.1001 24.2794 71.1001 23.6465C71.1001 23.0136 70.587 22.5005 69.9541 22.5005C69.3212 22.5005 68.8081 23.0136 68.8081 23.6465C68.8081 24.2794 69.3212 24.7925 69.9541 24.7925Z" fill="#B6BDFC"/>
<path fill-rule="evenodd" clip-rule="evenodd" d="M97.5256 51.1504C98.1586 51.1504 98.6716 50.6373 98.6716 50.0044C98.6716 49.3715 98.1586 48.8584 97.5256 48.8584C96.8927 48.8584 96.3796 49.3715 96.3796 50.0044C96.3796 50.6373 96.8927 51.1504 97.5256 51.1504Z" fill="#B6BDFC"/>
<path fill-rule="evenodd" clip-rule="evenodd" d="M125.164 77.9131C125.797 77.9131 126.31 77.4 126.31 76.7671C126.31 76.1342 125.797 75.6211 125.164 75.6211C124.531 75.6211 124.018 76.1342 124.018 76.7671C124.018 77.4 124.531 77.9131 125.164 77.9131Z" fill="#B6BDFC"/>
<path fill-rule="evenodd" clip-rule="evenodd" d="M106.896 14.2764C107.529 14.2764 108.042 13.7633 108.042 13.1304C108.042 12.4975 107.529 11.9844 106.896 11.9844C106.263 11.9844 105.75 12.4975 105.75 13.1304C105.75 13.7633 106.263 14.2764 106.896 14.2764Z" fill="#B6BDFC"/>
<path fill-rule="evenodd" clip-rule="evenodd" d="M88.0879 88.564C88.7208 88.564 89.2339 88.0509 89.2339 87.418C89.2339 86.7851 88.7208 86.272 88.0879 86.272C87.455 86.272 86.9419 86.7851 86.9419 87.418C86.9419 88.0509 87.455 88.564 88.0879 88.564Z" fill="#B6BDFC"/>
<path fill-rule="evenodd" clip-rule="evenodd" d="M134.4 40.9038C135.033 40.9038 135.546 40.3907 135.546 39.7578C135.546 39.1249 135.033 38.6118 134.4 38.6118C133.767 38.6118 133.254 39.1249 133.254 39.7578C133.254 40.3907 133.767 40.9038 134.4 40.9038Z" fill="#B6BDFC"/>
<path fill-rule="evenodd" clip-rule="evenodd" d="M91.9979 105.282C91.9979 104.945 91.818 104.633 91.526 104.465C91.234 104.296 90.8742 104.296 90.5822 104.465C90.2902 104.633 90.1104 104.945 90.1104 105.282C90.112 105.617 90.2918 105.925 90.5822 106.091L91.0541 135.752L91.526 106.091C91.8164 105.925 91.9963 105.617 91.9979 105.282Z" fill="url(#paint21_linear_13572_1639)"/>
<path fill-rule="evenodd" clip-rule="evenodd" d="M101.638 89.9122C101.638 89.1304 101.004 88.4966 100.222 88.4966C99.4402 88.4966 98.8064 89.1304 98.8064 89.9122C98.8029 90.4248 99.0902 90.895 99.548 91.1256L100.249 134H100.182L100.856 91.1256C101.329 90.9065 101.634 90.4339 101.638 89.9122Z" fill="url(#paint22_linear_13572_1639)"/>
<path fill-rule="evenodd" clip-rule="evenodd" d="M110.132 101.642C110.132 101.121 109.709 100.698 109.188 100.698C108.667 100.698 108.244 101.121 108.244 101.642C108.246 101.977 108.426 102.285 108.716 102.451L109.188 132.112L109.66 102.451C109.95 102.285 110.13 101.977 110.132 101.642Z" fill="url(#paint23_linear_13572_1639)"/>
<path fill-rule="evenodd" clip-rule="evenodd" d="M130.962 57.5547H68.4038L79.7964 114.585C79.808 114.97 79.8531 115.354 79.9312 115.731C80.4705 118.158 82.358 120.517 85.5938 122.405C93.4136 126.921 105.952 126.921 113.705 122.405C116.873 120.585 118.76 118.225 119.3 115.798C119.378 115.398 119.423 114.993 119.435 114.585L130.962 57.5547Z" fill="url(#paint24_linear_13572_1639)"/>
<g opacity="0.2">
<path fill-rule="evenodd" clip-rule="evenodd" d="M138.782 118.562C143.5 121.124 143.5 125.303 138.849 127.865L108.379 144.583C103.66 147.145 96.0425 147.145 91.3237 144.583L60.6513 127.865C55.9325 125.303 55.9325 121.124 60.5839 118.562L91.0541 101.844C95.7729 99.2824 103.39 99.2824 108.109 101.844L138.782 118.562Z" fill="#606060"/>
</g>
<path fill-rule="evenodd" clip-rule="evenodd" d="M140.332 116.675V117.349C140.332 117.417 140.332 117.484 140.265 117.484C140.197 117.484 140.265 117.551 140.197 117.619C140.19 117.67 140.166 117.717 140.13 117.754C140.13 117.821 140.062 117.821 140.062 117.888C140.062 117.956 139.995 118.023 139.995 118.091C139.995 118.158 139.928 118.158 139.928 118.225C139.928 118.293 139.86 118.36 139.86 118.428C139.86 118.495 139.793 118.495 139.793 118.563C139.793 118.63 139.725 118.697 139.658 118.765C139.591 118.832 139.591 118.832 139.591 118.9C139.591 118.967 139.456 119.034 139.456 119.102L139.388 119.169C139.321 119.304 139.186 119.371 139.119 119.506L139.051 119.574C138.984 119.641 138.916 119.776 138.782 119.843L138.647 119.978C138.579 120.046 138.512 120.046 138.512 120.113C138.512 120.18 138.377 120.18 138.377 120.248C138.377 120.315 138.242 120.315 138.175 120.383C138.107 120.45 138.04 120.45 137.973 120.517C137.905 120.585 137.838 120.585 137.77 120.652C137.703 120.72 137.636 120.72 137.568 120.787C137.501 120.855 137.433 120.855 137.366 120.922C137.292 120.993 137.198 121.04 137.096 121.057L108.338 137.775C108.069 137.91 107.867 138.045 107.597 138.179C107.529 138.179 107.462 138.247 107.395 138.247C107.125 138.382 106.923 138.449 106.653 138.584C106.616 138.584 106.586 138.614 106.586 138.651C106.327 138.771 106.056 138.862 105.777 138.921C105.583 138.998 105.378 139.043 105.17 139.056C105.015 139.11 104.858 139.155 104.698 139.191C104.496 139.258 104.294 139.258 104.091 139.325C103.889 139.393 103.754 139.393 103.62 139.393H103.417C103.148 139.46 102.878 139.46 102.608 139.528H102.406C102.246 139.517 102.085 139.54 101.934 139.595C101.665 139.595 101.395 139.662 101.193 139.662H98.9682C98.7858 139.673 98.603 139.65 98.4289 139.595C98.2267 139.595 98.0244 139.528 97.8896 139.528C97.7548 139.528 97.5525 139.46 97.3503 139.46C97.1422 139.448 96.9374 139.402 96.7436 139.325C96.6088 139.325 96.4065 139.258 96.2717 139.258C96.0021 139.191 95.7998 139.123 95.5976 139.056C95.3954 138.988 95.2605 138.988 95.1257 138.921C94.9909 138.853 94.9909 138.853 94.8561 138.853C94.6207 138.793 94.3941 138.702 94.1819 138.584C94.1145 138.584 94.0471 138.516 93.9797 138.516C93.7659 138.455 93.5617 138.364 93.373 138.247C93.3056 138.179 93.1708 138.179 93.1034 138.112L92.2944 137.707L63.3074 120.989C61.0828 119.709 59.9368 118.023 59.9368 116.271V119.371C59.9368 121.057 61.0828 122.742 63.3074 124.09L92.2944 140.808L93.1034 141.213C93.1708 141.28 93.3056 141.28 93.373 141.348C93.5752 141.415 93.7101 141.483 93.9123 141.55H93.9797C94.0471 141.55 94.1145 141.617 94.1819 141.617C94.4173 141.678 94.6439 141.768 94.8561 141.887C94.9235 141.887 94.9909 141.954 95.1257 141.954C95.1768 141.962 95.2242 141.985 95.2605 142.022C95.3279 142.022 95.4628 142.089 95.5302 142.089C95.7324 142.157 96.0021 142.224 96.2043 142.291C96.2784 142.283 96.3526 142.307 96.4065 142.359C96.5016 142.349 96.5971 142.373 96.6762 142.426C96.8784 142.494 97.0807 142.494 97.2829 142.561C97.3773 142.558 97.4706 142.582 97.5525 142.629H97.8222C98.0244 142.629 98.2267 142.696 98.3615 142.696H101.125C101.375 142.71 101.624 142.687 101.867 142.629H102.541C102.815 142.617 103.087 142.571 103.35 142.494H103.62C103.733 142.478 103.846 142.455 103.957 142.426C104.159 142.359 104.361 142.359 104.563 142.291C104.718 142.238 104.876 142.193 105.035 142.157C105.229 142.08 105.434 142.034 105.642 142.022C105.709 142.022 105.709 142.022 105.777 141.954C106.012 141.894 106.239 141.803 106.451 141.685C106.488 141.685 106.518 141.655 106.518 141.617C106.777 141.533 107.026 141.42 107.26 141.28C107.327 141.28 107.395 141.213 107.462 141.213C107.717 141.092 107.964 140.957 108.204 140.808L136.988 124.09C137.056 124.09 137.056 124.023 137.123 124.023C137.191 124.023 137.191 123.955 137.258 123.955C137.325 123.955 137.393 123.888 137.46 123.821C137.528 123.753 137.595 123.753 137.663 123.686C137.73 123.618 137.797 123.618 137.865 123.551C137.932 123.484 138 123.484 138.067 123.416C138.134 123.349 138.202 123.349 138.269 123.281C138.337 123.214 138.404 123.214 138.404 123.147C138.404 123.079 138.539 123.079 138.539 123.012L138.606 122.944L138.674 122.877L138.943 122.607L139.011 122.54C139.121 122.445 139.212 122.331 139.28 122.203L139.348 122.135C139.415 122.068 139.483 122.001 139.483 121.933C139.483 121.866 139.55 121.866 139.55 121.798C139.55 121.731 139.617 121.663 139.685 121.596C139.73 121.551 139.775 121.506 139.82 121.461C139.82 121.394 139.887 121.326 139.887 121.259C139.887 121.192 139.954 121.192 139.954 121.124C139.954 121.057 140.022 120.989 140.022 120.922V120.787C140.029 120.736 140.053 120.689 140.089 120.652C140.089 120.585 140.089 120.585 140.157 120.518C140.224 120.45 140.157 120.383 140.224 120.383V116.473C140.332 116.54 140.332 116.608 140.332 116.675Z" fill="url(#paint25_linear_13572_1639)"/>
<path fill-rule="evenodd" clip-rule="evenodd" d="M137.029 111.754C141.478 114.315 141.545 118.495 137.096 121.056L108.338 137.775C103.889 140.336 96.6762 140.336 92.227 137.775L63.2399 121.056C58.7907 118.495 58.7233 114.315 63.1725 111.754L91.9573 95.0355C96.4065 92.4738 103.62 92.4738 108.069 95.0355L137.029 111.754Z" fill="url(#paint26_linear_13572_1639)"/>
<path fill-rule="evenodd" clip-rule="evenodd" d="M119.367 115.866C118.828 118.293 116.94 120.585 113.772 122.472C106.02 126.989 93.481 126.989 85.6612 122.472C82.4255 120.585 80.5379 118.225 79.9986 115.798C79.1897 112.36 81.0772 108.787 85.5938 106.158C93.3462 101.642 105.952 101.642 113.705 106.158C118.289 108.787 120.176 112.428 119.367 115.866Z" fill="url(#paint27_linear_13572_1639)"/>
<path fill-rule="evenodd" clip-rule="evenodd" d="M119.367 115.866C118.828 118.293 116.94 120.585 113.772 122.472C106.019 126.989 93.4809 126.989 85.6611 122.472C82.4254 120.585 80.5378 118.225 79.9985 115.798C80.5378 113.372 82.4254 111.08 85.5937 109.192C93.3461 104.676 105.952 104.676 113.704 109.192C116.94 111.08 118.828 113.439 119.367 115.866Z" fill="url(#paint28_linear_13572_1639)"/>
<path opacity="0.6" fill-rule="evenodd" clip-rule="evenodd" d="M106.019 25.7363C106.032 33.2255 104.941 40.6757 102.784 47.8474C100.664 55.031 97.5075 61.8667 93.4134 68.1383L90.9866 71.846C88.9456 71.0462 87.019 69.9809 85.2566 68.6776C83.2611 67.1556 81.5105 65.3369 80.0659 63.2847C77.3853 59.4017 75.9595 54.7903 75.9807 50.072V43.0612C80.478 43.9362 85.033 41.8485 87.3059 37.8704L90.9461 31.5337C92.4426 32.4004 94.1379 32.8649 95.8672 32.882C99.1027 32.9019 102.136 31.3095 103.957 28.635L106.019 25.7363Z" fill="url(#paint29_linear_13572_1639)"/>
<path fill-rule="evenodd" clip-rule="evenodd" d="M111.035 28.6353C111.047 36.1245 109.957 43.5747 107.799 50.7463C105.68 57.9299 102.523 64.7656 98.429 71.0373L96.0022 74.7449C93.9612 73.9452 92.0346 72.8799 90.2722 71.5765C88.2767 70.0545 86.5261 68.2358 85.0814 66.1836C82.3913 62.3038 80.9561 57.6921 80.9693 52.9709V45.9601C85.4666 46.8352 90.0216 44.7475 92.2945 40.7694L95.9347 34.4327C97.4312 35.2993 99.1266 35.7638 100.856 35.7809C104.091 35.8008 107.124 34.2085 108.945 31.534L111.035 28.6353Z" fill="url(#paint30_linear_13572_1639)"/>
<g opacity="0.75">
<path fill-rule="evenodd" clip-rule="evenodd" d="M109.08 31.4665L111.035 28.6353C111.002 36.0673 109.959 43.4604 107.934 50.6115C105.786 57.7842 102.631 64.616 98.5637 70.9024L96.1368 74.6101C94.0889 73.8254 92.1603 72.759 90.4068 71.4417C84.5455 67.0537 81.0976 60.1579 81.104 52.8361V45.8253C81.7698 45.9593 82.4472 46.027 83.1264 46.0275C86.956 46.0417 90.5023 44.0116 92.4292 40.702L96.0694 34.3653C97.5531 35.2622 99.2569 35.729 100.99 35.7135C104.222 35.718 107.248 34.1292 109.08 31.4665ZM110.4 30.4277C110.401 30.4144 110.401 30.4012 110.401 30.388H110.428L110.4 30.4277ZM110.4 30.4277L109.484 31.7362C107.552 34.5632 104.348 36.2536 100.923 36.2528C99.2826 36.2414 97.6672 35.8491 96.2042 35.1068L92.7393 41.039C90.7303 44.4992 87.0331 46.6303 83.032 46.6342C82.5367 46.6454 82.0412 46.6229 81.5489 46.5668V52.9709C81.5291 57.5891 82.9164 62.1038 85.5262 65.914C88.082 69.5817 91.639 72.4366 95.7728 74.1382L97.93 70.7676C101.987 64.5329 105.121 57.7439 107.233 50.6115C109.189 44.056 110.255 37.2672 110.4 30.4277Z" fill="url(#paint31_linear_13572_1639)"/>
</g>
<path fill-rule="evenodd" clip-rule="evenodd" d="M111.035 28.6351L109.08 31.4664C107.249 34.129 104.222 35.7178 100.991 35.7133C99.257 35.7288 97.5532 35.262 96.0696 34.3651L92.4293 40.7018C90.1362 44.6576 85.5979 46.7377 81.1042 45.8925V52.9033C81.0978 60.2251 84.5457 67.1209 90.407 71.5089C81.7771 67.8481 76.1752 59.3789 76.1831 50.0046V42.9938C80.6804 43.8689 85.2354 41.7812 87.5083 37.8031L91.1485 31.4664C95.5933 34.0347 101.267 32.7413 104.159 28.5002L106.114 25.6689L111.035 28.6351Z" fill="url(#paint32_linear_13572_1639)"/>
<path opacity="0.6" fill-rule="evenodd" clip-rule="evenodd" d="M96.5144 58.6332C96.5144 58.6332 96.8515 55.9367 101.503 52.9032C103.641 54.3405 105.362 56.3172 106.491 58.6332C106.491 58.6332 109.013 42.5892 116.468 38.4771L123.951 42.7914C117.682 45.2182 111.345 55.8019 107.233 69.6887C105.211 64.498 101.503 60.3185 96.5144 58.6332Z" fill="#6BE726"/>
<g opacity="0.95">
<path fill-rule="evenodd" clip-rule="evenodd" d="M123.951 42.7914L120.176 40.6343C112.693 44.7464 110.199 60.7904 110.199 60.7904C109.418 59.0946 108.293 57.5795 106.896 56.3412C107.907 51.7572 110.671 41.578 116.468 38.4097L123.951 42.7914Z" fill="url(#paint33_linear_13572_1639)"/>
<path fill-rule="evenodd" clip-rule="evenodd" d="M105.211 54.9931L101.503 52.8359C98.6042 54.8583 96.9863 56.7458 96.5144 58.5659L100.249 60.7231C101.23 58.3207 102.973 56.3073 105.211 54.9931Z" fill="url(#paint34_linear_13572_1639)"/>
<path fill-rule="evenodd" clip-rule="evenodd" d="M101.031 61.0601C103.39 62.8802 105.548 65.5092 107.233 69.6888L110.941 71.8459C108.783 66.2508 105.278 63.015 101.031 61.0601Z" fill="#FF9418"/>
</g>
<path fill-rule="evenodd" clip-rule="evenodd" d="M100.249 60.7904C100.249 60.7904 100.586 58.0939 105.237 55.0604C107.376 56.4977 109.097 58.4744 110.226 60.7904C110.226 60.7904 112.72 44.7464 120.203 40.6343L127.686 44.9486C121.416 47.3755 115.08 57.9591 110.967 71.8459C109.013 66.6552 105.211 62.4757 100.249 60.7904Z" fill="url(#paint35_linear_13572_1639)"/>
<g opacity="0.91">
<path fill-rule="evenodd" clip-rule="evenodd" d="M110.199 60.7904C110.199 60.7904 112.693 44.7464 120.176 40.6343L127.726 44.9486C121.457 47.308 115.12 57.9591 111.008 71.8459C108.986 66.6552 105.211 62.4757 100.222 60.7904C100.222 60.7904 100.559 58.1613 105.211 55.0604C107.364 56.4802 109.089 58.4616 110.199 60.7904ZM127.052 44.8812L120.176 40.9039C113.565 44.7086 110.935 58.3817 110.525 60.5115C110.492 60.6836 110.474 60.7803 110.469 60.7904L110.334 61.6667L109.929 60.8578C108.877 58.6279 107.248 56.7196 105.211 55.33C101.638 57.7569 100.761 59.914 100.559 60.5882C105.008 62.206 108.783 65.9811 110.941 71.037C115.08 57.4872 121.147 47.5777 127.052 44.8812Z" fill="url(#paint36_linear_13572_1639)"/>
</g>
<g opacity="0.75">
<path opacity="0.9" fill-rule="evenodd" clip-rule="evenodd" d="M81.0772 52.6338V52.9034C81.0749 54.3734 81.2103 55.8404 81.4816 57.2852L97.1886 72.9921L98.4694 71.0372L98.8739 70.4305L81.0772 52.6338Z" fill="url(#paint37_linear_13572_1639)"/>
<path opacity="0.9" fill-rule="evenodd" clip-rule="evenodd" d="M87.441 45.2188C85.4531 46.1038 83.2428 46.3625 81.1042 45.9603V47.3759L100.856 67.1276C101.867 65.3075 102.878 63.4199 103.755 61.5324L87.441 45.2188Z" fill="url(#paint38_linear_13572_1639)"/>
<path opacity="0.9" fill-rule="evenodd" clip-rule="evenodd" d="M107.166 52.6339C107.368 52.0271 107.57 51.353 107.772 50.6789C108.109 49.4655 108.446 48.2521 108.716 47.0387L95.9753 34.2979L93.3462 38.8144L107.166 52.6339Z" fill="url(#paint39_linear_13572_1639)"/>
<path opacity="0.9" fill-rule="evenodd" clip-rule="evenodd" d="M105.817 56.4089C105.952 56.0044 106.087 55.6 106.222 55.2629L92.0652 41.1064C91.8796 41.4472 91.6532 41.7641 91.3911 42.0502L105.817 56.4089Z" fill="url(#paint40_linear_13572_1639)"/>
<path opacity="0.9" fill-rule="evenodd" clip-rule="evenodd" d="M102.986 35.5112L109.795 42.3198C109.997 41.1064 110.199 39.893 110.334 38.6796L106.02 34.3652C105.075 34.9036 104.051 35.2903 102.986 35.5112Z" fill="url(#paint41_linear_13572_1639)"/>
</g>
<path opacity="0.75" d="M76.0212 43.061L81.4142 46.3642" stroke="url(#paint42_linear_13572_1639)" stroke-width="0.8"/>
<path opacity="0.75" d="M90.8518 31.8032L96.0425 34.8368" stroke="url(#paint43_linear_13572_1639)" stroke-width="0.8"/>
<path opacity="0.75" d="M105.885 26.0732L110.806 28.9045" stroke="url(#paint44_linear_13572_1639)" stroke-width="0.8"/>
<path fill-rule="evenodd" clip-rule="evenodd" d="M106.896 13.1304L134.265 39.758L125.097 76.8345L97.7278 50.2068L106.896 13.1304V13.1304Z" stroke="#B5BDFC" stroke-width="0.28"/>
<path fill-rule="evenodd" clip-rule="evenodd" d="M97.7278 50.207L125.097 76.8347L88.2227 87.3509L60.8535 60.7233L97.7278 50.207V50.207Z" stroke="#B5BDFC" stroke-width="0.28"/>
<path fill-rule="evenodd" clip-rule="evenodd" d="M106.896 13.1304L97.7278 50.2068L60.8535 60.7231L69.9541 23.6466L106.896 13.1304V13.1304Z" stroke="#B5BDFC" stroke-width="0.28"/>
<path fill-rule="evenodd" clip-rule="evenodd" d="M60.5166 61.9365C61.1495 61.9365 61.6626 61.4234 61.6626 60.7905C61.6626 60.1576 61.1495 59.6445 60.5166 59.6445C59.8837 59.6445 59.3706 60.1576 59.3706 60.7905C59.3706 61.4234 59.8837 61.9365 60.5166 61.9365Z" fill="#B6BDFC"/>
<path fill-rule="evenodd" clip-rule="evenodd" d="M69.9541 24.7925C70.587 24.7925 71.1001 24.2794 71.1001 23.6465C71.1001 23.0136 70.587 22.5005 69.9541 22.5005C69.3212 22.5005 68.8081 23.0136 68.8081 23.6465C68.8081 24.2794 69.3212 24.7925 69.9541 24.7925Z" fill="#B6BDFC"/>
<path fill-rule="evenodd" clip-rule="evenodd" d="M97.5256 51.1504C98.1586 51.1504 98.6716 50.6373 98.6716 50.0044C98.6716 49.3715 98.1586 48.8584 97.5256 48.8584C96.8927 48.8584 96.3796 49.3715 96.3796 50.0044C96.3796 50.6373 96.8927 51.1504 97.5256 51.1504Z" fill="#B6BDFC"/>
<path fill-rule="evenodd" clip-rule="evenodd" d="M125.164 77.9131C125.797 77.9131 126.31 77.4 126.31 76.7671C126.31 76.1342 125.797 75.6211 125.164 75.6211C124.531 75.6211 124.018 76.1342 124.018 76.7671C124.018 77.4 124.531 77.9131 125.164 77.9131Z" fill="#B6BDFC"/>
<path fill-rule="evenodd" clip-rule="evenodd" d="M106.896 14.2764C107.529 14.2764 108.042 13.7633 108.042 13.1304C108.042 12.4975 107.529 11.9844 106.896 11.9844C106.263 11.9844 105.75 12.4975 105.75 13.1304C105.75 13.7633 106.263 14.2764 106.896 14.2764Z" fill="#B6BDFC"/>
<path fill-rule="evenodd" clip-rule="evenodd" d="M88.0879 88.564C88.7208 88.564 89.2339 88.0509 89.2339 87.418C89.2339 86.7851 88.7208 86.272 88.0879 86.272C87.455 86.272 86.9419 86.7851 86.9419 87.418C86.9419 88.0509 87.455 88.564 88.0879 88.564Z" fill="#B6BDFC"/>
<path fill-rule="evenodd" clip-rule="evenodd" d="M134.4 40.9038C135.033 40.9038 135.546 40.3907 135.546 39.7578C135.546 39.1249 135.033 38.6118 134.4 38.6118C133.767 38.6118 133.254 39.1249 133.254 39.7578C133.254 40.3907 133.767 40.9038 134.4 40.9038Z" fill="#B6BDFC"/>
<path fill-rule="evenodd" clip-rule="evenodd" d="M91.9979 105.282C91.9979 104.945 91.818 104.633 91.526 104.465C91.234 104.296 90.8742 104.296 90.5822 104.465C90.2902 104.633 90.1104 104.945 90.1104 105.282C90.112 105.617 90.2918 105.925 90.5822 106.091L91.0541 135.752L91.526 106.091C91.8164 105.925 91.9963 105.617 91.9979 105.282Z" fill="url(#paint45_linear_13572_1639)"/>
<path fill-rule="evenodd" clip-rule="evenodd" d="M101.638 89.9122C101.638 89.1304 101.004 88.4966 100.222 88.4966C99.4402 88.4966 98.8064 89.1304 98.8064 89.9122C98.8029 90.4248 99.0902 90.895 99.548 91.1256L100.249 134H100.182L100.856 91.1256C101.329 90.9065 101.634 90.4339 101.638 89.9122Z" fill="url(#paint46_linear_13572_1639)"/>
<path fill-rule="evenodd" clip-rule="evenodd" d="M110.132 101.642C110.132 101.121 109.709 100.698 109.188 100.698C108.667 100.698 108.244 101.121 108.244 101.642C108.246 101.977 108.426 102.285 108.716 102.451L109.188 132.112L109.66 102.451C109.95 102.285 110.13 101.977 110.132 101.642Z" fill="url(#paint47_linear_13572_1639)"/>
<path fill-rule="evenodd" clip-rule="evenodd" d="M130.962 57.5547H68.4038L79.7964 114.585C79.808 114.97 79.8531 115.354 79.9312 115.731C80.4705 118.158 82.358 120.517 85.5938 122.405C93.4136 126.921 105.952 126.921 113.705 122.405C116.873 120.585 118.76 118.225 119.3 115.798C119.378 115.398 119.423 114.993 119.435 114.585L130.962 57.5547Z" fill="url(#paint48_linear_13572_1639)"/>
<g opacity="0.2">
<path fill-rule="evenodd" clip-rule="evenodd" d="M138.782 118.562C143.5 121.124 143.5 125.303 138.849 127.865L108.379 144.583C103.66 147.145 96.0425 147.145 91.3237 144.583L60.6513 127.865C55.9325 125.303 55.9325 121.124 60.5839 118.562L91.0541 101.844C95.7729 99.2824 103.39 99.2824 108.109 101.844L138.782 118.562Z" fill="#606060"/>
</g>
<path fill-rule="evenodd" clip-rule="evenodd" d="M140.332 116.675V117.349C140.332 117.417 140.332 117.484 140.265 117.484C140.197 117.484 140.265 117.551 140.197 117.619C140.19 117.67 140.166 117.717 140.13 117.754C140.13 117.821 140.062 117.821 140.062 117.888C140.062 117.956 139.995 118.023 139.995 118.091C139.995 118.158 139.928 118.158 139.928 118.225C139.928 118.293 139.86 118.36 139.86 118.428C139.86 118.495 139.793 118.495 139.793 118.563C139.793 118.63 139.725 118.697 139.658 118.765C139.591 118.832 139.591 118.832 139.591 118.9C139.591 118.967 139.456 119.034 139.456 119.102L139.388 119.169C139.321 119.304 139.186 119.371 139.119 119.506L139.051 119.574C138.984 119.641 138.916 119.776 138.782 119.843L138.647 119.978C138.579 120.046 138.512 120.046 138.512 120.113C138.512 120.18 138.377 120.18 138.377 120.248C138.377 120.315 138.242 120.315 138.175 120.383C138.107 120.45 138.04 120.45 137.973 120.517C137.905 120.585 137.838 120.585 137.77 120.652C137.703 120.72 137.636 120.72 137.568 120.787C137.501 120.855 137.433 120.855 137.366 120.922C137.292 120.993 137.198 121.04 137.096 121.057L108.338 137.775C108.069 137.91 107.867 138.045 107.597 138.179C107.529 138.179 107.462 138.247 107.395 138.247C107.125 138.382 106.923 138.449 106.653 138.584C106.616 138.584 106.586 138.614 106.586 138.651C106.327 138.771 106.056 138.862 105.777 138.921C105.583 138.998 105.378 139.043 105.17 139.056C105.015 139.11 104.858 139.155 104.698 139.191C104.496 139.258 104.294 139.258 104.091 139.325C103.889 139.393 103.754 139.393 103.62 139.393H103.417C103.148 139.46 102.878 139.46 102.608 139.528H102.406C102.246 139.517 102.085 139.54 101.934 139.595C101.665 139.595 101.395 139.662 101.193 139.662H98.9682C98.7858 139.673 98.603 139.65 98.4289 139.595C98.2267 139.595 98.0244 139.528 97.8896 139.528C97.7548 139.528 97.5525 139.46 97.3503 139.46C97.1422 139.448 96.9374 139.402 96.7436 139.325C96.6088 139.325 96.4065 139.258 96.2717 139.258C96.0021 139.191 95.7998 139.123 95.5976 139.056C95.3954 138.988 95.2605 138.988 95.1257 138.921C94.9909 138.853 94.9909 138.853 94.8561 138.853C94.6207 138.793 94.3941 138.702 94.1819 138.584C94.1145 138.584 94.0471 138.516 93.9797 138.516C93.7659 138.455 93.5617 138.364 93.373 138.247C93.3056 138.179 93.1708 138.179 93.1034 138.112L92.2944 137.707L63.3074 120.989C61.0828 119.709 59.9368 118.023 59.9368 116.271V119.371C59.9368 121.057 61.0828 122.742 63.3074 124.09L92.2944 140.808L93.1034 141.213C93.1708 141.28 93.3056 141.28 93.373 141.348C93.5752 141.415 93.7101 141.483 93.9123 141.55H93.9797C94.0471 141.55 94.1145 141.617 94.1819 141.617C94.4173 141.678 94.6439 141.768 94.8561 141.887C94.9235 141.887 94.9909 141.954 95.1257 141.954C95.1768 141.962 95.2242 141.985 95.2605 142.022C95.3279 142.022 95.4628 142.089 95.5302 142.089C95.7324 142.157 96.0021 142.224 96.2043 142.291C96.2784 142.283 96.3526 142.307 96.4065 142.359C96.5016 142.349 96.5971 142.373 96.6762 142.426C96.8784 142.494 97.0807 142.494 97.2829 142.561C97.3773 142.558 97.4706 142.582 97.5525 142.629H97.8222C98.0244 142.629 98.2267 142.696 98.3615 142.696H101.125C101.375 142.71 101.624 142.687 101.867 142.629H102.541C102.815 142.617 103.087 142.571 103.35 142.494H103.62C103.733 142.478 103.846 142.455 103.957 142.426C104.159 142.359 104.361 142.359 104.563 142.291C104.718 142.238 104.876 142.193 105.035 142.157C105.229 142.08 105.434 142.034 105.642 142.022C105.709 142.022 105.709 142.022 105.777 141.954C106.012 141.894 106.239 141.803 106.451 141.685C106.488 141.685 106.518 141.655 106.518 141.617C106.777 141.533 107.026 141.42 107.26 141.28C107.327 141.28 107.395 141.213 107.462 141.213C107.717 141.092 107.964 140.957 108.204 140.808L136.988 124.09C137.056 124.09 137.056 124.023 137.123 124.023C137.191 124.023 137.191 123.955 137.258 123.955C137.325 123.955 137.393 123.888 137.46 123.821C137.528 123.753 137.595 123.753 137.663 123.686C137.73 123.618 137.797 123.618 137.865 123.551C137.932 123.484 138 123.484 138.067 123.416C138.134 123.349 138.202 123.349 138.269 123.281C138.337 123.214 138.404 123.214 138.404 123.147C138.404 123.079 138.539 123.079 138.539 123.012L138.606 122.944L138.674 122.877L138.943 122.607L139.011 122.54C139.121 122.445 139.212 122.331 139.28 122.203L139.348 122.135C139.415 122.068 139.483 122.001 139.483 121.933C139.483 121.866 139.55 121.866 139.55 121.798C139.55 121.731 139.617 121.663 139.685 121.596C139.73 121.551 139.775 121.506 139.82 121.461C139.82 121.394 139.887 121.326 139.887 121.259C139.887 121.192 139.954 121.192 139.954 121.124C139.954 121.057 140.022 120.989 140.022 120.922V120.787C140.029 120.736 140.053 120.689 140.089 120.652C140.089 120.585 140.089 120.585 140.157 120.518C140.224 120.45 140.157 120.383 140.224 120.383V116.473C140.332 116.54 140.332 116.608 140.332 116.675Z" fill="url(#paint49_linear_13572_1639)"/>
<path fill-rule="evenodd" clip-rule="evenodd" d="M137.029 111.754C141.478 114.315 141.545 118.495 137.096 121.056L108.338 137.775C103.889 140.336 96.6762 140.336 92.227 137.775L63.2399 121.056C58.7907 118.495 58.7233 114.315 63.1725 111.754L91.9573 95.0355C96.4065 92.4738 103.62 92.4738 108.069 95.0355L137.029 111.754Z" fill="url(#paint50_linear_13572_1639)"/>
<path fill-rule="evenodd" clip-rule="evenodd" d="M119.367 115.866C118.828 118.293 116.94 120.585 113.772 122.472C106.02 126.989 93.481 126.989 85.6612 122.472C82.4255 120.585 80.5379 118.225 79.9986 115.798C79.1897 112.36 81.0772 108.787 85.5938 106.158C93.3462 101.642 105.952 101.642 113.705 106.158C118.289 108.787 120.176 112.428 119.367 115.866Z" fill="url(#paint51_linear_13572_1639)"/>
<path fill-rule="evenodd" clip-rule="evenodd" d="M119.367 115.866C118.828 118.293 116.94 120.585 113.772 122.472C106.019 126.989 93.4809 126.989 85.6611 122.472C82.4254 120.585 80.5378 118.225 79.9985 115.798C80.5378 113.372 82.4254 111.08 85.5937 109.192C93.3461 104.676 105.952 104.676 113.704 109.192C116.94 111.08 118.828 113.439 119.367 115.866Z" fill="url(#paint52_linear_13572_1639)"/>
<path opacity="0.6" fill-rule="evenodd" clip-rule="evenodd" d="M106.019 25.7363C106.032 33.2255 104.941 40.6757 102.784 47.8474C100.664 55.031 97.5075 61.8667 93.4134 68.1383L90.9866 71.846C88.9456 71.0462 87.019 69.9809 85.2566 68.6776C83.2611 67.1556 81.5105 65.3369 80.0659 63.2847C77.3853 59.4017 75.9595 54.7903 75.9807 50.072V43.0612C80.478 43.9362 85.033 41.8485 87.3059 37.8704L90.9461 31.5337C92.4426 32.4004 94.1379 32.8649 95.8672 32.882C99.1027 32.9019 102.136 31.3095 103.957 28.635L106.019 25.7363Z" fill="url(#paint53_linear_13572_1639)"/>
<path fill-rule="evenodd" clip-rule="evenodd" d="M111.035 28.6353C111.047 36.1245 109.957 43.5747 107.799 50.7463C105.68 57.9299 102.523 64.7656 98.429 71.0373L96.0022 74.7449C93.9612 73.9452 92.0346 72.8799 90.2722 71.5765C88.2767 70.0545 86.5261 68.2358 85.0814 66.1836C82.3913 62.3038 80.9561 57.6921 80.9693 52.9709V45.9601C85.4666 46.8352 90.0216 44.7475 92.2945 40.7694L95.9347 34.4327C97.4312 35.2993 99.1266 35.7638 100.856 35.7809C104.091 35.8008 107.124 34.2085 108.945 31.534L111.035 28.6353Z" fill="url(#paint54_linear_13572_1639)"/>
<g opacity="0.75">
<path fill-rule="evenodd" clip-rule="evenodd" d="M109.08 31.4665L111.035 28.6353C111.002 36.0673 109.959 43.4604 107.934 50.6115C105.786 57.7842 102.631 64.616 98.5637 70.9024L96.1368 74.6101C94.0889 73.8254 92.1603 72.759 90.4068 71.4417C84.5455 67.0537 81.0976 60.1579 81.104 52.8361V45.8253C81.7698 45.9593 82.4472 46.027 83.1264 46.0275C86.956 46.0417 90.5023 44.0116 92.4292 40.702L96.0694 34.3653C97.5531 35.2622 99.2569 35.729 100.99 35.7135C104.222 35.718 107.248 34.1292 109.08 31.4665ZM110.4 30.4277C110.401 30.4144 110.401 30.4012 110.401 30.388H110.428L110.4 30.4277ZM110.4 30.4277L109.484 31.7362C107.552 34.5632 104.348 36.2536 100.923 36.2528C99.2826 36.2414 97.6672 35.8491 96.2042 35.1068L92.7393 41.039C90.7303 44.4992 87.0331 46.6303 83.032 46.6342C82.5367 46.6454 82.0412 46.6229 81.5489 46.5668V52.9709C81.5291 57.5891 82.9164 62.1038 85.5262 65.914C88.082 69.5817 91.639 72.4366 95.7728 74.1382L97.93 70.7676C101.987 64.5329 105.121 57.7439 107.233 50.6115C109.189 44.056 110.255 37.2672 110.4 30.4277Z" fill="url(#paint55_linear_13572_1639)"/>
</g>
<path fill-rule="evenodd" clip-rule="evenodd" d="M111.035 28.6351L109.08 31.4664C107.249 34.129 104.222 35.7178 100.991 35.7133C99.257 35.7288 97.5532 35.262 96.0696 34.3651L92.4293 40.7018C90.1362 44.6576 85.5979 46.7377 81.1042 45.8925V52.9033C81.0978 60.2251 84.5457 67.1209 90.407 71.5089C81.7771 67.8481 76.1752 59.3789 76.1831 50.0046V42.9938C80.6804 43.8689 85.2354 41.7812 87.5083 37.8031L91.1485 31.4664C95.5933 34.0347 101.267 32.7413 104.159 28.5002L106.114 25.6689L111.035 28.6351Z" fill="url(#paint56_linear_13572_1639)"/>
<path opacity="0.6" fill-rule="evenodd" clip-rule="evenodd" d="M96.5144 58.6332C96.5144 58.6332 96.8515 55.9367 101.503 52.9032C103.641 54.3405 105.362 56.3172 106.491 58.6332C106.491 58.6332 109.013 42.5892 116.468 38.4771L123.951 42.7914C117.682 45.2182 111.345 55.8019 107.233 69.6887C105.211 64.498 101.503 60.3185 96.5144 58.6332Z" fill="#6BE726"/>
<g opacity="0.95">
<path fill-rule="evenodd" clip-rule="evenodd" d="M123.951 42.7914L120.176 40.6343C112.693 44.7464 110.199 60.7904 110.199 60.7904C109.418 59.0946 108.293 57.5795 106.896 56.3412C107.907 51.7572 110.671 41.578 116.468 38.4097L123.951 42.7914Z" fill="url(#paint57_linear_13572_1639)"/>
<path fill-rule="evenodd" clip-rule="evenodd" d="M105.211 54.9931L101.503 52.8359C98.6042 54.8583 96.9863 56.7458 96.5144 58.5659L100.249 60.7231C101.23 58.3207 102.973 56.3073 105.211 54.9931Z" fill="url(#paint58_linear_13572_1639)"/>
<path fill-rule="evenodd" clip-rule="evenodd" d="M101.031 61.0601C103.39 62.8802 105.548 65.5092 107.233 69.6888L110.941 71.8459C108.783 66.2508 105.278 63.015 101.031 61.0601Z" fill="#FF9418"/>
</g>
<path fill-rule="evenodd" clip-rule="evenodd" d="M100.249 60.7904C100.249 60.7904 100.586 58.0939 105.237 55.0604C107.376 56.4977 109.097 58.4744 110.226 60.7904C110.226 60.7904 112.72 44.7464 120.203 40.6343L127.686 44.9486C121.416 47.3755 115.08 57.9591 110.967 71.8459C109.013 66.6552 105.211 62.4757 100.249 60.7904Z" fill="url(#paint59_linear_13572_1639)"/>
<g opacity="0.91">
<path fill-rule="evenodd" clip-rule="evenodd" d="M110.199 60.7904C110.199 60.7904 112.693 44.7464 120.176 40.6343L127.726 44.9486C121.457 47.308 115.12 57.9591 111.008 71.8459C108.986 66.6552 105.211 62.4757 100.222 60.7904C100.222 60.7904 100.559 58.1613 105.211 55.0604C107.364 56.4802 109.089 58.4616 110.199 60.7904ZM127.052 44.8812L120.176 40.9039C113.565 44.7086 110.935 58.3817 110.525 60.5115C110.492 60.6836 110.474 60.7803 110.469 60.7904L110.334 61.6667L109.929 60.8578C108.877 58.6279 107.248 56.7196 105.211 55.33C101.638 57.7569 100.761 59.914 100.559 60.5882C105.008 62.206 108.783 65.9811 110.941 71.037C115.08 57.4872 121.147 47.5777 127.052 44.8812Z" fill="url(#paint60_linear_13572_1639)"/>
</g>
<g opacity="0.75">
<path opacity="0.9" fill-rule="evenodd" clip-rule="evenodd" d="M81.0772 52.6338V52.9034C81.0749 54.3734 81.2103 55.8404 81.4816 57.2852L97.1886 72.9921L98.4694 71.0372L98.8739 70.4305L81.0772 52.6338Z" fill="url(#paint61_linear_13572_1639)"/>
<path opacity="0.9" fill-rule="evenodd" clip-rule="evenodd" d="M87.441 45.2188C85.4531 46.1038 83.2428 46.3625 81.1042 45.9603V47.3759L100.856 67.1276C101.867 65.3075 102.878 63.4199 103.755 61.5324L87.441 45.2188Z" fill="url(#paint62_linear_13572_1639)"/>
<path opacity="0.9" fill-rule="evenodd" clip-rule="evenodd" d="M107.166 52.6339C107.368 52.0271 107.57 51.353 107.772 50.6789C108.109 49.4655 108.446 48.2521 108.716 47.0387L95.9753 34.2979L93.3462 38.8144L107.166 52.6339Z" fill="url(#paint63_linear_13572_1639)"/>
<path opacity="0.9" fill-rule="evenodd" clip-rule="evenodd" d="M105.817 56.4089C105.952 56.0044 106.087 55.6 106.222 55.2629L92.0652 41.1064C91.8796 41.4472 91.6532 41.7641 91.3911 42.0502L105.817 56.4089Z" fill="url(#paint64_linear_13572_1639)"/>
<path opacity="0.9" fill-rule="evenodd" clip-rule="evenodd" d="M102.986 35.5112L109.795 42.3198C109.997 41.1064 110.199 39.893 110.334 38.6796L106.02 34.3652C105.075 34.9036 104.051 35.2903 102.986 35.5112Z" fill="url(#paint65_linear_13572_1639)"/>
</g>
<path opacity="0.75" d="M76.0212 43.061L81.4142 46.3642" stroke="url(#paint66_linear_13572_1639)" stroke-width="0.8"/>
<path opacity="0.75" d="M90.8518 31.8032L96.0425 34.8368" stroke="url(#paint67_linear_13572_1639)" stroke-width="0.8"/>
<path opacity="0.75" d="M105.885 26.0732L110.806 28.9045" stroke="url(#paint68_linear_13572_1639)" stroke-width="0.8"/>
<path fill-rule="evenodd" clip-rule="evenodd" d="M106.896 13.1304L134.265 39.758L125.097 76.8345L97.7278 50.2068L106.896 13.1304V13.1304Z" stroke="#B5BDFC" stroke-width="0.28"/>
<path fill-rule="evenodd" clip-rule="evenodd" d="M97.7278 50.207L125.097 76.8347L88.2227 87.3509L60.8535 60.7233L97.7278 50.207V50.207Z" stroke="#B5BDFC" stroke-width="0.28"/>
<path fill-rule="evenodd" clip-rule="evenodd" d="M106.896 13.1304L97.7278 50.2068L60.8535 60.7231L69.9541 23.6466L106.896 13.1304V13.1304Z" stroke="#B5BDFC" stroke-width="0.28"/>
<path fill-rule="evenodd" clip-rule="evenodd" d="M60.5166 61.9365C61.1495 61.9365 61.6626 61.4234 61.6626 60.7905C61.6626 60.1576 61.1495 59.6445 60.5166 59.6445C59.8837 59.6445 59.3706 60.1576 59.3706 60.7905C59.3706 61.4234 59.8837 61.9365 60.5166 61.9365Z" fill="#B6BDFC"/>
<path fill-rule="evenodd" clip-rule="evenodd" d="M69.9541 24.7925C70.587 24.7925 71.1001 24.2794 71.1001 23.6465C71.1001 23.0136 70.587 22.5005 69.9541 22.5005C69.3212 22.5005 68.8081 23.0136 68.8081 23.6465C68.8081 24.2794 69.3212 24.7925 69.9541 24.7925Z" fill="#B6BDFC"/>
<path fill-rule="evenodd" clip-rule="evenodd" d="M97.5256 51.1504C98.1586 51.1504 98.6716 50.6373 98.6716 50.0044C98.6716 49.3715 98.1586 48.8584 97.5256 48.8584C96.8927 48.8584 96.3796 49.3715 96.3796 50.0044C96.3796 50.6373 96.8927 51.1504 97.5256 51.1504Z" fill="#B6BDFC"/>
<path fill-rule="evenodd" clip-rule="evenodd" d="M125.164 77.9131C125.797 77.9131 126.31 77.4 126.31 76.7671C126.31 76.1342 125.797 75.6211 125.164 75.6211C124.531 75.6211 124.018 76.1342 124.018 76.7671C124.018 77.4 124.531 77.9131 125.164 77.9131Z" fill="#B6BDFC"/>
<path fill-rule="evenodd" clip-rule="evenodd" d="M106.896 14.2764C107.529 14.2764 108.042 13.7633 108.042 13.1304C108.042 12.4975 107.529 11.9844 106.896 11.9844C106.263 11.9844 105.75 12.4975 105.75 13.1304C105.75 13.7633 106.263 14.2764 106.896 14.2764Z" fill="#B6BDFC"/>
<path fill-rule="evenodd" clip-rule="evenodd" d="M88.0879 88.564C88.7208 88.564 89.2339 88.0509 89.2339 87.418C89.2339 86.7851 88.7208 86.272 88.0879 86.272C87.455 86.272 86.9419 86.7851 86.9419 87.418C86.9419 88.0509 87.455 88.564 88.0879 88.564Z" fill="#B6BDFC"/>
<path fill-rule="evenodd" clip-rule="evenodd" d="M134.4 40.9038C135.033 40.9038 135.546 40.3907 135.546 39.7578C135.546 39.1249 135.033 38.6118 134.4 38.6118C133.767 38.6118 133.254 39.1249 133.254 39.7578C133.254 40.3907 133.767 40.9038 134.4 40.9038Z" fill="#B6BDFC"/>
<path fill-rule="evenodd" clip-rule="evenodd" d="M91.9979 105.282C91.9979 104.945 91.818 104.633 91.526 104.465C91.234 104.296 90.8742 104.296 90.5822 104.465C90.2902 104.633 90.1104 104.945 90.1104 105.282C90.112 105.617 90.2918 105.925 90.5822 106.091L91.0541 135.752L91.526 106.091C91.8164 105.925 91.9963 105.617 91.9979 105.282Z" fill="url(#paint69_linear_13572_1639)"/>
<path fill-rule="evenodd" clip-rule="evenodd" d="M101.638 89.9122C101.638 89.1304 101.004 88.4966 100.222 88.4966C99.4402 88.4966 98.8064 89.1304 98.8064 89.9122C98.8029 90.4248 99.0902 90.895 99.548 91.1256L100.249 134H100.182L100.856 91.1256C101.329 90.9065 101.634 90.4339 101.638 89.9122Z" fill="url(#paint70_linear_13572_1639)"/>
<path fill-rule="evenodd" clip-rule="evenodd" d="M110.132 101.642C110.132 101.121 109.709 100.698 109.188 100.698C108.667 100.698 108.244 101.121 108.244 101.642C108.246 101.977 108.426 102.285 108.716 102.451L109.188 132.112L109.66 102.451C109.95 102.285 110.13 101.977 110.132 101.642Z" fill="url(#paint71_linear_13572_1639)"/>
<path fill-rule="evenodd" clip-rule="evenodd" d="M130.962 57.5547H68.4038L79.7964 114.585C79.808 114.97 79.8531 115.354 79.9312 115.731C80.4705 118.158 82.358 120.517 85.5938 122.405C93.4136 126.921 105.952 126.921 113.705 122.405C116.873 120.585 118.76 118.225 119.3 115.798C119.378 115.398 119.423 114.993 119.435 114.585L130.962 57.5547Z" fill="url(#paint72_linear_13572_1639)"/>
<path d="M64.4747 167.077C64.328 167.077 64.2107 167.044 64.1227 166.978C64.0347 166.912 63.9834 166.824 63.9687 166.714C63.954 166.604 63.976 166.479 64.0347 166.34L67.0157 159.652C67.089 159.476 67.1807 159.351 67.2907 159.278C67.408 159.205 67.5364 159.168 67.6757 159.168C67.8077 159.168 67.9287 159.205 68.0387 159.278C68.156 159.351 68.2514 159.476 68.3247 159.652L71.3057 166.34C71.3717 166.479 71.3974 166.608 71.3827 166.725C71.368 166.835 71.3204 166.923 71.2397 166.989C71.159 167.048 71.0454 167.077 70.8987 167.077C70.7374 167.077 70.609 167.037 70.5137 166.956C70.4184 166.875 70.334 166.751 70.2607 166.582L69.4907 164.8L70.0077 165.108H65.3217L65.8277 164.8L65.0687 166.582C64.9954 166.758 64.9147 166.886 64.8267 166.967C64.7387 167.04 64.6214 167.077 64.4747 167.077ZM67.6537 160.51L65.9927 164.448L65.7177 164.184H69.6007L69.3477 164.448L67.6757 160.51H67.6537ZM73.1683 167.077C72.9996 167.077 72.8676 167.029 72.7723 166.934C72.6843 166.839 72.6403 166.707 72.6403 166.538V159.707C72.6403 159.531 72.688 159.399 72.7833 159.311C72.8786 159.216 73.007 159.168 73.1683 159.168C73.3223 159.168 73.4396 159.197 73.5203 159.256C73.6083 159.307 73.689 159.403 73.7623 159.542L76.6443 164.921H76.3033L79.1743 159.542C79.2476 159.403 79.3246 159.307 79.4053 159.256C79.486 159.197 79.6033 159.168 79.7573 159.168C79.9186 159.168 80.0433 159.216 80.1313 159.311C80.2193 159.399 80.2633 159.531 80.2633 159.707V166.538C80.2633 166.707 80.2193 166.839 80.1313 166.934C80.0506 167.029 79.926 167.077 79.7573 167.077C79.5886 167.077 79.4603 167.029 79.3723 166.934C79.2843 166.839 79.2403 166.707 79.2403 166.538V160.862H79.4823L76.9303 165.581C76.8716 165.691 76.8093 165.772 76.7433 165.823C76.6773 165.874 76.5856 165.9 76.4683 165.9C76.351 165.9 76.2556 165.874 76.1823 165.823C76.109 165.764 76.043 165.684 75.9843 165.581L73.4103 160.851H73.6743V166.538C73.6743 166.707 73.6303 166.839 73.5423 166.934C73.4616 167.029 73.337 167.077 73.1683 167.077ZM86.6359 167.077C86.4599 167.077 86.3243 167.026 86.2289 166.923C86.1336 166.82 86.0859 166.677 86.0859 166.494V163.579H85.2389C84.8429 163.579 84.5129 163.671 84.2489 163.854C83.9849 164.037 83.7539 164.334 83.5559 164.745L82.6319 166.714C82.5659 166.853 82.4779 166.949 82.3679 167C82.2579 167.059 82.1443 167.081 82.0269 167.066C81.9169 167.059 81.8143 167.022 81.7189 166.956C81.6309 166.883 81.5723 166.787 81.5429 166.67C81.5136 166.553 81.5393 166.424 81.6199 166.285L82.5989 164.272C82.8263 163.795 83.1049 163.425 83.4349 163.161C83.7723 162.89 84.1646 162.725 84.6119 162.666L84.1829 163.007L82.1699 159.982C82.0893 159.85 82.0526 159.729 82.0599 159.619C82.0746 159.509 82.1186 159.417 82.1919 159.344C82.2653 159.263 82.3569 159.212 82.4669 159.19C82.5769 159.161 82.6869 159.168 82.7969 159.212C82.9143 159.256 83.0096 159.34 83.0829 159.465L85.2499 162.809L84.9969 162.622H86.0859V159.74C86.0859 159.549 86.1336 159.406 86.2289 159.311C86.3243 159.216 86.4599 159.168 86.6359 159.168C86.8119 159.168 86.9476 159.216 87.0429 159.311C87.1383 159.406 87.1859 159.549 87.1859 159.74V162.622H88.2859L88.0219 162.809L90.1889 159.465C90.2696 159.34 90.3649 159.256 90.4749 159.212C90.5849 159.168 90.6913 159.161 90.7939 159.19C90.9039 159.212 90.9956 159.263 91.0689 159.344C91.1496 159.417 91.1936 159.509 91.2009 159.619C91.2156 159.729 91.1789 159.85 91.0909 159.982L89.0889 163.007L88.6489 162.666C88.9569 162.703 89.2319 162.791 89.4739 162.93C89.7159 163.062 89.9359 163.242 90.1339 163.469C90.3319 163.689 90.5079 163.957 90.6619 164.272L91.6409 166.285C91.7143 166.424 91.7363 166.553 91.7069 166.67C91.6849 166.787 91.6263 166.883 91.5309 166.956C91.4429 167.022 91.3403 167.059 91.2229 167.066C91.1056 167.081 90.9919 167.059 90.8819 167C90.7793 166.949 90.6949 166.853 90.6289 166.714L89.6939 164.745C89.4959 164.327 89.2649 164.03 89.0009 163.854C88.7443 163.671 88.4216 163.579 88.0329 163.579H87.1859V166.494C87.1859 166.677 87.1383 166.82 87.0429 166.923C86.9476 167.026 86.8119 167.077 86.6359 167.077ZM93.4588 167.077C93.3854 167.077 93.3158 167.066 93.2498 167.044C93.1911 167.022 93.1398 166.985 93.0958 166.934C93.0591 166.883 93.0298 166.824 93.0078 166.758C92.9858 166.685 92.9748 166.6 92.9748 166.505V159.707C92.9748 159.538 93.0224 159.406 93.1178 159.311C93.2131 159.216 93.3451 159.168 93.5138 159.168C93.6824 159.168 93.8108 159.216 93.8988 159.311C93.9868 159.406 94.0308 159.538 94.0308 159.707V165.471H93.7888L98.2878 159.498C98.3831 159.373 98.4711 159.289 98.5518 159.245C98.6398 159.194 98.7498 159.168 98.8818 159.168C98.9771 159.168 99.0578 159.19 99.1238 159.234C99.1898 159.271 99.2411 159.329 99.2778 159.41C99.3218 159.491 99.3438 159.586 99.3438 159.696V166.527C99.3438 166.703 99.2998 166.839 99.2118 166.934C99.1238 167.029 98.9918 167.077 98.8158 167.077C98.6471 167.077 98.5151 167.029 98.4198 166.934C98.3318 166.839 98.2878 166.703 98.2878 166.527V160.774H98.5298L94.0308 166.736C93.9354 166.861 93.8511 166.949 93.7778 167C93.7044 167.051 93.5981 167.077 93.4588 167.077ZM106.98 167.077C106.796 167.077 106.653 167.026 106.551 166.923C106.455 166.82 106.408 166.677 106.408 166.494V160.202H103.306V161.874C103.306 162.585 103.262 163.212 103.174 163.755C103.086 164.298 102.957 164.774 102.789 165.185C102.627 165.588 102.422 165.937 102.173 166.23C101.931 166.523 101.648 166.776 101.326 166.989C101.194 167.084 101.058 167.117 100.919 167.088C100.787 167.059 100.669 166.978 100.567 166.846C100.479 166.707 100.449 166.571 100.479 166.439C100.515 166.307 100.607 166.193 100.754 166.098C100.996 165.944 101.208 165.75 101.392 165.515C101.582 165.28 101.74 164.991 101.865 164.646C101.989 164.294 102.085 163.869 102.151 163.37C102.217 162.871 102.25 162.277 102.25 161.588V159.861C102.25 159.663 102.301 159.513 102.404 159.41C102.514 159.3 102.668 159.245 102.866 159.245H106.936C107.134 159.245 107.284 159.3 107.387 159.41C107.489 159.513 107.541 159.663 107.541 159.861V166.494C107.541 166.677 107.493 166.82 107.398 166.923C107.302 167.026 107.163 167.077 106.98 167.077ZM111.821 167.077C111.637 167.077 111.494 167.026 111.392 166.923C111.296 166.82 111.249 166.677 111.249 166.494V160.202H108.917C108.763 160.202 108.642 160.162 108.554 160.081C108.466 159.993 108.422 159.872 108.422 159.718C108.422 159.564 108.466 159.447 108.554 159.366C108.642 159.285 108.763 159.245 108.917 159.245H114.714C114.875 159.245 115 159.285 115.088 159.366C115.176 159.447 115.22 159.564 115.22 159.718C115.22 159.872 115.176 159.993 115.088 160.081C115 160.162 114.875 160.202 114.714 160.202H112.382V166.494C112.382 166.677 112.334 166.82 112.239 166.923C112.151 167.026 112.011 167.077 111.821 167.077ZM118.674 167.077C118.491 167.077 118.348 167.026 118.245 166.923C118.15 166.82 118.102 166.677 118.102 166.494V160.202H115.77C115.616 160.202 115.495 160.162 115.407 160.081C115.319 159.993 115.275 159.872 115.275 159.718C115.275 159.564 115.319 159.447 115.407 159.366C115.495 159.285 115.616 159.245 115.77 159.245H121.567C121.728 159.245 121.853 159.285 121.941 159.366C122.029 159.447 122.073 159.564 122.073 159.718C122.073 159.872 122.029 159.993 121.941 160.081C121.853 160.162 121.728 160.202 121.567 160.202H119.235V166.494C119.235 166.677 119.187 166.82 119.092 166.923C119.004 167.026 118.865 167.077 118.674 167.077ZM121.967 167.077C121.82 167.077 121.703 167.044 121.615 166.978C121.527 166.912 121.476 166.824 121.461 166.714C121.446 166.604 121.468 166.479 121.527 166.34L124.508 159.652C124.581 159.476 124.673 159.351 124.783 159.278C124.9 159.205 125.029 159.168 125.168 159.168C125.3 159.168 125.421 159.205 125.531 159.278C125.648 159.351 125.744 159.476 125.817 159.652L128.798 166.34C128.864 166.479 128.89 166.608 128.875 166.725C128.86 166.835 128.813 166.923 128.732 166.989C128.651 167.048 128.538 167.077 128.391 167.077C128.23 167.077 128.101 167.037 128.006 166.956C127.911 166.875 127.826 166.751 127.753 166.582L126.983 164.8L127.5 165.108H122.814L123.32 164.8L122.561 166.582C122.488 166.758 122.407 166.886 122.319 166.967C122.231 167.04 122.114 167.077 121.967 167.077ZM125.146 160.51L123.485 164.448L123.21 164.184H127.093L126.84 164.448L125.168 160.51H125.146ZM130.594 167.077C130.521 167.077 130.451 167.066 130.385 167.044C130.327 167.022 130.275 166.985 130.231 166.934C130.195 166.883 130.165 166.824 130.143 166.758C130.121 166.685 130.11 166.6 130.11 166.505V159.707C130.11 159.538 130.158 159.406 130.253 159.311C130.349 159.216 130.481 159.168 130.649 159.168C130.818 159.168 130.946 159.216 131.034 159.311C131.122 159.406 131.166 159.538 131.166 159.707V165.471H130.924L135.423 159.498C135.519 159.373 135.607 159.289 135.687 159.245C135.775 159.194 135.885 159.168 136.017 159.168C136.113 159.168 136.193 159.19 136.259 159.234C136.325 159.271 136.377 159.329 136.413 159.41C136.457 159.491 136.479 159.586 136.479 159.696V166.527C136.479 166.703 136.435 166.839 136.347 166.934C136.259 167.029 136.127 167.077 135.951 167.077C135.783 167.077 135.651 167.029 135.555 166.934C135.467 166.839 135.423 166.703 135.423 166.527V160.774H135.665L131.166 166.736C131.071 166.861 130.987 166.949 130.913 167C130.84 167.051 130.734 167.077 130.594 167.077ZM133.289 158.64C132.82 158.64 132.409 158.537 132.057 158.332C131.705 158.127 131.441 157.83 131.265 157.441C131.214 157.316 131.207 157.214 131.243 157.133C131.28 157.052 131.346 156.994 131.441 156.957C131.544 156.928 131.628 156.931 131.694 156.968C131.768 157.005 131.834 157.078 131.892 157.188C132.032 157.445 132.215 157.643 132.442 157.782C132.677 157.914 132.963 157.98 133.3 157.98C133.645 157.98 133.931 157.914 134.158 157.782C134.386 157.643 134.569 157.445 134.708 157.188C134.767 157.078 134.833 157.005 134.906 156.968C134.98 156.931 135.064 156.928 135.159 156.957C135.255 156.994 135.317 157.052 135.346 157.133C135.383 157.206 135.372 157.305 135.313 157.43C135.123 157.826 134.851 158.127 134.499 158.332C134.155 158.537 133.751 158.64 133.289 158.64ZM62.766 180C62.568 180 62.414 179.949 62.304 179.846C62.2014 179.736 62.15 179.582 62.15 179.384V172.861C62.15 172.663 62.2014 172.513 62.304 172.41C62.414 172.3 62.568 172.245 62.766 172.245H66.979C67.133 172.245 67.2504 172.285 67.331 172.366C67.4117 172.439 67.452 172.549 67.452 172.696C67.452 172.85 67.4117 172.967 67.331 173.048C67.2504 173.129 67.133 173.169 66.979 173.169H63.25V175.578H65.516C66.3374 175.578 66.9754 175.765 67.43 176.139C67.8847 176.506 68.112 177.052 68.112 177.778C68.112 178.504 67.8847 179.058 67.43 179.439C66.9754 179.813 66.3374 180 65.516 180H62.766ZM63.25 179.076H65.384C65.934 179.076 66.341 178.97 66.605 178.757C66.869 178.544 67.001 178.222 67.001 177.789C67.001 177.349 66.869 177.026 66.605 176.821C66.341 176.608 65.934 176.502 65.384 176.502H63.25V179.076ZM71.9072 180.077C71.7239 180.077 71.5809 180.026 71.4782 179.923C71.3829 179.82 71.3352 179.674 71.3352 179.483V175.996L71.5882 176.722L68.8712 172.949C68.7906 172.839 68.7539 172.725 68.7612 172.608C68.7686 172.483 68.8162 172.381 68.9042 172.3C68.9996 172.212 69.1242 172.168 69.2782 172.168C69.3956 172.168 69.5019 172.197 69.5972 172.256C69.6999 172.315 69.7952 172.406 69.8832 172.531L72.0612 175.556H71.7972L73.9752 172.531C74.0706 172.399 74.1622 172.307 74.2502 172.256C74.3382 172.197 74.4482 172.168 74.5802 172.168C74.7342 172.168 74.8516 172.208 74.9322 172.289C75.0202 172.362 75.0642 172.461 75.0642 172.586C75.0716 172.703 75.0276 172.828 74.9322 172.96L72.2372 176.722L72.4682 175.996V179.483C72.4682 179.879 72.2812 180.077 71.9072 180.077ZM76.7191 180.077C76.5358 180.077 76.3928 180.026 76.2901 179.923C76.1948 179.82 76.1471 179.677 76.1471 179.494V172.828C76.1471 172.637 76.1985 172.494 76.3011 172.399C76.4038 172.296 76.5468 172.245 76.7301 172.245H79.3591C80.1951 172.245 80.8405 172.454 81.2951 172.872C81.7498 173.283 81.9771 173.862 81.9771 174.61C81.9771 175.365 81.7498 175.952 81.2951 176.37C80.8405 176.781 80.1951 176.986 79.3591 176.986H77.2911V179.494C77.2911 179.677 77.2435 179.82 77.1481 179.923C77.0528 180.026 76.9098 180.077 76.7191 180.077ZM77.2911 176.073H79.1941C79.7441 176.073 80.1585 175.952 80.4371 175.71C80.7231 175.461 80.8661 175.094 80.8661 174.61C80.8661 174.133 80.7231 173.774 80.4371 173.532C80.1585 173.283 79.7441 173.158 79.1941 173.158H77.2911V176.073ZM85.4646 180.077C85.2813 180.077 85.1383 180.026 85.0356 179.923C84.9403 179.82 84.8926 179.677 84.8926 179.494V173.202H82.5606C82.4066 173.202 82.2856 173.162 82.1976 173.081C82.1096 172.993 82.0656 172.872 82.0656 172.718C82.0656 172.564 82.1096 172.447 82.1976 172.366C82.2856 172.285 82.4066 172.245 82.5606 172.245H88.3576C88.519 172.245 88.6436 172.285 88.7316 172.366C88.8196 172.447 88.8636 172.564 88.8636 172.718C88.8636 172.872 88.8196 172.993 88.7316 173.081C88.6436 173.162 88.519 173.202 88.3576 173.202H86.0256V179.494C86.0256 179.677 85.978 179.82 85.8826 179.923C85.7946 180.026 85.6553 180.077 85.4646 180.077ZM90.2972 180.077C90.1139 180.077 89.9709 180.026 89.8682 179.923C89.7729 179.82 89.7252 179.677 89.7252 179.494V172.828C89.7252 172.637 89.7766 172.494 89.8792 172.399C89.9819 172.296 90.1286 172.245 90.3192 172.245H94.2902C94.4516 172.245 94.5726 172.285 94.6532 172.366C94.7412 172.447 94.7852 172.564 94.7852 172.718C94.7852 172.872 94.7412 172.993 94.6532 173.081C94.5726 173.162 94.4516 173.202 94.2902 173.202H90.8692V179.494C90.8692 179.677 90.8216 179.82 90.7262 179.923C90.6309 180.026 90.4879 180.077 90.2972 180.077ZM97.9291 180.099C97.4891 180.099 97.0711 180.04 96.6751 179.923C96.2791 179.798 95.9198 179.619 95.5971 179.384C95.4871 179.303 95.4101 179.212 95.3661 179.109C95.3294 178.999 95.3184 178.889 95.3331 178.779C95.3551 178.669 95.3991 178.581 95.4651 178.515C95.5311 178.442 95.6154 178.401 95.7181 178.394C95.8281 178.379 95.9454 178.416 96.0701 178.504C96.3561 178.709 96.6458 178.86 96.9391 178.955C97.2398 179.043 97.5624 179.087 97.9071 179.087C98.4351 179.087 98.8861 178.977 99.2601 178.757C99.6341 178.537 99.9274 178.222 100.14 177.811C100.353 177.393 100.466 176.88 100.481 176.271L100.844 176.513H97.1591C96.9978 176.513 96.8731 176.476 96.7851 176.403C96.7044 176.322 96.6641 176.209 96.6641 176.062C96.6641 175.915 96.7044 175.802 96.7851 175.721C96.8731 175.64 96.9978 175.6 97.1591 175.6H100.833L100.481 175.908C100.452 175.329 100.338 174.834 100.14 174.423C99.9421 174.012 99.6598 173.701 99.2931 173.488C98.9338 173.268 98.4938 173.158 97.9731 173.158C97.6358 173.158 97.3131 173.209 97.0051 173.312C96.7044 173.407 96.4148 173.543 96.1361 173.719C96.0041 173.807 95.8831 173.847 95.7731 173.84C95.6631 173.825 95.5714 173.785 95.4981 173.719C95.4248 173.653 95.3734 173.572 95.3441 173.477C95.3221 173.374 95.3294 173.272 95.3661 173.169C95.4101 173.059 95.4871 172.967 95.5971 172.894C95.9491 172.637 96.3341 172.45 96.7521 172.333C97.1701 172.208 97.5918 172.146 98.0171 172.146C98.7871 172.146 99.4434 172.311 99.9861 172.641C100.536 172.964 100.954 173.422 101.24 174.016C101.526 174.61 101.669 175.31 101.669 176.117C101.669 176.733 101.585 177.287 101.416 177.778C101.247 178.262 101.002 178.68 100.679 179.032C100.364 179.377 99.9751 179.641 99.5131 179.824C99.0511 180.007 98.5231 180.099 97.9291 180.099ZM103.779 180.077C103.595 180.077 103.452 180.026 103.35 179.923C103.254 179.82 103.207 179.677 103.207 179.494V172.828C103.207 172.637 103.258 172.494 103.361 172.399C103.463 172.296 103.61 172.245 103.801 172.245H107.772C107.933 172.245 108.054 172.285 108.135 172.366C108.223 172.447 108.267 172.564 108.267 172.718C108.267 172.872 108.223 172.993 108.135 173.081C108.054 173.162 107.933 173.202 107.772 173.202H104.351V179.494C104.351 179.677 104.303 179.82 104.208 179.923C104.112 180.026 103.969 180.077 103.779 180.077ZM108.691 181.848C108.522 181.848 108.394 181.8 108.306 181.705C108.218 181.617 108.174 181.489 108.174 181.32V179.615C108.174 179.256 108.357 179.076 108.724 179.076H109.461L108.779 179.252C109.204 178.812 109.516 178.185 109.714 177.371C109.919 176.55 110.022 175.512 110.022 174.258V172.861C110.022 172.663 110.073 172.513 110.176 172.41C110.286 172.3 110.44 172.245 110.638 172.245H114.719C114.917 172.245 115.067 172.3 115.17 172.41C115.272 172.513 115.324 172.663 115.324 172.861V179.516L114.895 179.076H115.885C116.061 179.076 116.193 179.124 116.281 179.219C116.376 179.307 116.424 179.439 116.424 179.615V181.32C116.424 181.672 116.259 181.848 115.929 181.848C115.76 181.848 115.632 181.8 115.544 181.705C115.456 181.617 115.412 181.489 115.412 181.32V180H109.197V181.32C109.197 181.672 109.028 181.848 108.691 181.848ZM110.11 179.076H114.191V173.169H111.089V174.346C111.089 175.475 111.008 176.421 110.847 177.184C110.685 177.947 110.44 178.577 110.11 179.076ZM123.41 180.077C123.226 180.077 123.083 180.026 122.981 179.923C122.885 179.82 122.838 179.677 122.838 179.494V173.202H119.736V174.874C119.736 175.585 119.692 176.212 119.604 176.755C119.516 177.298 119.387 177.774 119.219 178.185C119.057 178.588 118.852 178.937 118.603 179.23C118.361 179.523 118.078 179.776 117.756 179.989C117.624 180.084 117.488 180.117 117.349 180.088C117.217 180.059 117.099 179.978 116.997 179.846C116.909 179.707 116.879 179.571 116.909 179.439C116.945 179.307 117.037 179.193 117.184 179.098C117.426 178.944 117.638 178.75 117.822 178.515C118.012 178.28 118.17 177.991 118.295 177.646C118.419 177.294 118.515 176.869 118.581 176.37C118.647 175.871 118.68 175.277 118.68 174.588V172.861C118.68 172.663 118.731 172.513 118.834 172.41C118.944 172.3 119.098 172.245 119.296 172.245H123.366C123.564 172.245 123.714 172.3 123.817 172.41C123.919 172.513 123.971 172.663 123.971 172.861V179.494C123.971 179.677 123.923 179.82 123.828 179.923C123.732 180.026 123.593 180.077 123.41 180.077ZM127.943 180.099C127.503 180.099 127.085 180.04 126.689 179.923C126.293 179.798 125.933 179.619 125.611 179.384C125.501 179.303 125.424 179.212 125.38 179.109C125.343 178.999 125.332 178.889 125.347 178.779C125.369 178.669 125.413 178.581 125.479 178.515C125.545 178.442 125.629 178.401 125.732 178.394C125.842 178.379 125.959 178.416 126.084 178.504C126.37 178.709 126.659 178.86 126.953 178.955C127.253 179.043 127.576 179.087 127.921 179.087C128.449 179.087 128.9 178.977 129.274 178.757C129.648 178.537 129.941 178.222 130.154 177.811C130.366 177.393 130.48 176.88 130.495 176.271L130.858 176.513H127.173C127.011 176.513 126.887 176.476 126.799 176.403C126.718 176.322 126.678 176.209 126.678 176.062C126.678 175.915 126.718 175.802 126.799 175.721C126.887 175.64 127.011 175.6 127.173 175.6H130.847L130.495 175.908C130.465 175.329 130.352 174.834 130.154 174.423C129.956 174.012 129.673 173.701 129.307 173.488C128.947 173.268 128.507 173.158 127.987 173.158C127.649 173.158 127.327 173.209 127.019 173.312C126.718 173.407 126.428 173.543 126.15 173.719C126.018 173.807 125.897 173.847 125.787 173.84C125.677 173.825 125.585 173.785 125.512 173.719C125.438 173.653 125.387 173.572 125.358 173.477C125.336 173.374 125.343 173.272 125.38 173.169C125.424 173.059 125.501 172.967 125.611 172.894C125.963 172.637 126.348 172.45 126.766 172.333C127.184 172.208 127.605 172.146 128.031 172.146C128.801 172.146 129.457 172.311 130 172.641C130.55 172.964 130.968 173.422 131.254 174.016C131.54 174.61 131.683 175.31 131.683 176.117C131.683 176.733 131.598 177.287 131.43 177.778C131.261 178.262 131.015 178.68 130.693 179.032C130.377 179.377 129.989 179.641 129.527 179.824C129.065 180.007 128.537 180.099 127.943 180.099ZM135.376 180.099C134.936 180.099 134.518 180.04 134.122 179.923C133.726 179.798 133.367 179.619 133.044 179.384C132.934 179.303 132.857 179.212 132.813 179.109C132.777 178.999 132.766 178.889 132.78 178.779C132.802 178.669 132.846 178.581 132.912 178.515C132.978 178.442 133.063 178.401 133.165 178.394C133.275 178.379 133.393 178.416 133.517 178.504C133.803 178.709 134.093 178.86 134.386 178.955C134.687 179.043 135.01 179.087 135.354 179.087C135.882 179.087 136.333 178.977 136.707 178.757C137.081 178.537 137.375 178.222 137.587 177.811C137.8 177.393 137.914 176.88 137.928 176.271L138.291 176.513H134.606C134.445 176.513 134.32 176.476 134.232 176.403C134.152 176.322 134.111 176.209 134.111 176.062C134.111 175.915 134.152 175.802 134.232 175.721C134.32 175.64 134.445 175.6 134.606 175.6H138.28L137.928 175.908C137.899 175.329 137.785 174.834 137.587 174.423C137.389 174.012 137.107 173.701 136.74 173.488C136.381 173.268 135.941 173.158 135.42 173.158C135.083 173.158 134.76 173.209 134.452 173.312C134.152 173.407 133.862 173.543 133.583 173.719C133.451 173.807 133.33 173.847 133.22 173.84C133.11 173.825 133.019 173.785 132.945 173.719C132.872 173.653 132.821 173.572 132.791 173.477C132.769 173.374 132.777 173.272 132.813 173.169C132.857 173.059 132.934 172.967 133.044 172.894C133.396 172.637 133.781 172.45 134.199 172.333C134.617 172.208 135.039 172.146 135.464 172.146C136.234 172.146 136.891 172.311 137.433 172.641C137.983 172.964 138.401 173.422 138.687 174.016C138.973 174.61 139.116 175.31 139.116 176.117C139.116 176.733 139.032 177.287 138.863 177.778C138.695 178.262 138.449 178.68 138.126 179.032C137.811 179.377 137.422 179.641 136.96 179.824C136.498 180.007 135.97 180.099 135.376 180.099Z" fill="#3F3356"/>
<defs>
<filter id="filter0_d_13572_1639" x="0" y="0" width="199" height="199" filterUnits="userSpaceOnUse" color-interpolation-filters="sRGB">
<feFlood flood-opacity="0" result="BackgroundImageFix"/>
<feColorMatrix in="SourceAlpha" type="matrix" values="0 0 0 0 0 0 0 0 0 0 0 0 0 0 0 0 0 0 127 0" result="hardAlpha"/>
<feOffset dy="4"/>
<feGaussianBlur stdDeviation="2"/>
<feComposite in2="hardAlpha" operator="out"/>
<feColorMatrix type="matrix" values="0 0 0 0 0 0 0 0 0 0 0 0 0 0 0 0 0 0 0.25 0"/>
<feBlend mode="normal" in2="BackgroundImageFix" result="effect1_dropShadow_13572_1639"/>
<feBlend mode="normal" in="SourceGraphic" in2="effect1_dropShadow_13572_1639" result="shape"/>
</filter>
<filter id="filter1_d_13572_1639" x="0" y="122.839" width="199" height="76.1606" filterUnits="userSpaceOnUse" color-interpolation-filters="sRGB">
<feFlood flood-opacity="0" result="BackgroundImageFix"/>
<feColorMatrix in="SourceAlpha" type="matrix" values="0 0 0 0 0 0 0 0 0 0 0 0 0 0 0 0 0 0 127 0" result="hardAlpha"/>
<feOffset dy="4"/>
<feGaussianBlur stdDeviation="2"/>
<feComposite in2="hardAlpha" operator="out"/>
<feColorMatrix type="matrix" values="0 0 0 0 0 0 0 0 0 0 0 0 0 0 0 0 0 0 0.25 0"/>
<feBlend mode="normal" in2="BackgroundImageFix" result="effect1_dropShadow_13572_1639"/>
<feBlend mode="normal" in="SourceGraphic" in2="effect1_dropShadow_13572_1639" result="shape"/>
</filter>
<linearGradient id="paint0_linear_13572_1639" x1="99.5" y1="122.839" x2="99.5" y2="201.975" gradientUnits="userSpaceOnUse">
<stop stop-color="#E1B5F7" stop-opacity="0"/>
<stop offset="1" stop-color="#E1B5F7"/>
</linearGradient>
<linearGradient id="paint1_linear_13572_1639" x1="59.7817" y1="142.728" x2="140.359" y2="142.728" gradientUnits="userSpaceOnUse">
<stop stop-color="#7348BF"/>
<stop offset="0.25" stop-color="#784AC1"/>
<stop offset="0.54" stop-color="#854FC8"/>
<stop offset="0.85" stop-color="#9C58D4"/>
<stop offset="1" stop-color="#AA5DDB"/>
</linearGradient>
<linearGradient id="paint2_linear_13572_1639" x1="183.821" y1="154.681" x2="183.821" y2="57.8512" gradientUnits="userSpaceOnUse">
<stop stop-color="#DBA5F5"/>
<stop offset="0.19" stop-color="#DDAAF6"/>
<stop offset="0.41" stop-color="#E2B7F7"/>
<stop offset="0.65" stop-color="#EBCEFA"/>
<stop offset="0.89" stop-color="#F8EEFD"/>
<stop offset="1" stop-color="white"/>
</linearGradient>
<linearGradient id="paint3_linear_13572_1639" x1="121.359" y1="-289.414" x2="121.359" y2="-314.605" gradientUnits="userSpaceOnUse">
<stop stop-color="#7348BF"/>
<stop offset="0.25" stop-color="#784AC1"/>
<stop offset="0.54" stop-color="#854FC8"/>
<stop offset="0.85" stop-color="#9C58D4"/>
<stop offset="1" stop-color="#AA5DDB"/>
</linearGradient>
<linearGradient id="paint4_linear_13572_1639" x1="63.5432" y1="-330.535" x2="63.5432" y2="-293.714" gradientUnits="userSpaceOnUse">
<stop stop-color="#7348BF"/>
<stop offset="0.25" stop-color="#784AC1"/>
<stop offset="0.54" stop-color="#854FC8"/>
<stop offset="0.85" stop-color="#9C58D4"/>
<stop offset="1" stop-color="#AA5DDB"/>
</linearGradient>
<linearGradient id="paint5_linear_13572_1639" x1="91.1685" y1="81.2403" x2="124.498" y2="61.579" gradientUnits="userSpaceOnUse">
<stop stop-color="#FFD13E"/>
<stop offset="0.05" stop-color="#FECD3B"/>
<stop offset="0.31" stop-color="#F8BD32"/>
<stop offset="0.6" stop-color="#F5B42C"/>
<stop offset="1" stop-color="#F4B12A"/>
</linearGradient>
<linearGradient id="paint6_linear_13572_1639" x1="81.0435" y1="74.6465" x2="110.981" y2="74.6465" gradientUnits="userSpaceOnUse">
<stop stop-color="#DBA5F5"/>
<stop offset="0.19" stop-color="#DBA0F5"/>
<stop offset="0.41" stop-color="#DB93F5"/>
<stop offset="0.64" stop-color="#DB7CF5"/>
<stop offset="0.87" stop-color="#DB5CF5"/>
<stop offset="1" stop-color="#DB48F5"/>
</linearGradient>
<linearGradient id="paint7_linear_13572_1639" x1="81.0433" y1="74.6101" x2="110.974" y2="74.6101" gradientUnits="userSpaceOnUse">
<stop stop-color="white" stop-opacity="0.01"/>
<stop offset="1" stop-color="white" stop-opacity="0.85"/>
</linearGradient>
<linearGradient id="paint8_linear_13572_1639" x1="75.4757" y1="-223.008" x2="108.351" y2="-210.318" gradientUnits="userSpaceOnUse">
<stop stop-color="#7348BF"/>
<stop offset="0.25" stop-color="#784AC1"/>
<stop offset="0.54" stop-color="#854FC8"/>
<stop offset="0.85" stop-color="#9C58D4"/>
<stop offset="1" stop-color="#AA5DDB"/>
</linearGradient>
<linearGradient id="paint9_linear_13572_1639" x1="108.995" y1="37.7662" x2="104.8" y2="57.5659" gradientUnits="userSpaceOnUse">
<stop stop-color="#FFCF5C"/>
<stop offset="0.22" stop-color="#FFCB57"/>
<stop offset="0.47" stop-color="#FFBF4A"/>
<stop offset="0.74" stop-color="#FFAB33"/>
<stop offset="1" stop-color="#FF9115"/>
</linearGradient>
<linearGradient id="paint10_linear_13572_1639" x1="95.6616" y1="-239.905" x2="104.221" y2="-237.692" gradientUnits="userSpaceOnUse">
<stop stop-color="#FFCF5C"/>
<stop offset="0.22" stop-color="#FFCB57"/>
<stop offset="0.47" stop-color="#FFBF4A"/>
<stop offset="0.74" stop-color="#FFAB33"/>
<stop offset="1" stop-color="#FF9115"/>
</linearGradient>
<linearGradient id="paint11_linear_13572_1639" x1="130.643" y1="-233.181" x2="117.845" y2="-260.365" gradientUnits="userSpaceOnUse">
<stop stop-color="#FFCF5C"/>
<stop offset="0.22" stop-color="#FFCB57"/>
<stop offset="0.47" stop-color="#FFBF4A"/>
<stop offset="0.74" stop-color="#FFAB33"/>
<stop offset="1" stop-color="#FF9115"/>
</linearGradient>
<linearGradient id="paint12_linear_13572_1639" x1="123.316" y1="50.7423" x2="108.739" y2="44.2075" gradientUnits="userSpaceOnUse">
<stop stop-color="white" stop-opacity="0.01"/>
<stop offset="0.93" stop-color="white" stop-opacity="0.79"/>
<stop offset="1" stop-color="white" stop-opacity="0.85"/>
</linearGradient>
<linearGradient id="paint13_linear_13572_1639" x1="84.2692" y1="-257.867" x2="69.7134" y2="-245.31" gradientUnits="userSpaceOnUse">
<stop stop-color="white" stop-opacity="0.01"/>
<stop offset="1" stop-color="white" stop-opacity="0.85"/>
</linearGradient>
<linearGradient id="paint14_linear_13572_1639" x1="89.0221" y1="-251.489" x2="76.6577" y2="-236.562" gradientUnits="userSpaceOnUse">
<stop stop-color="white" stop-opacity="0.01"/>
<stop offset="1" stop-color="white" stop-opacity="0.85"/>
</linearGradient>
<linearGradient id="paint15_linear_13572_1639" x1="100.999" y1="-243.59" x2="86.041" y2="-231.719" gradientUnits="userSpaceOnUse">
<stop stop-color="white" stop-opacity="0.01"/>
<stop offset="1" stop-color="white" stop-opacity="0.85"/>
</linearGradient>
<linearGradient id="paint16_linear_13572_1639" x1="95.9563" y1="-246.174" x2="82.6608" y2="-232.069" gradientUnits="userSpaceOnUse">
<stop stop-color="white" stop-opacity="0.01"/>
<stop offset="1" stop-color="white" stop-opacity="0.85"/>
</linearGradient>
<linearGradient id="paint17_linear_13572_1639" x1="106.432" y1="-237.532" x2="92.5051" y2="-224.116" gradientUnits="userSpaceOnUse">
<stop stop-color="white" stop-opacity="0.01"/>
<stop offset="1" stop-color="white" stop-opacity="0.85"/>
</linearGradient>
<linearGradient id="paint18_linear_13572_1639" x1="75.9134" y1="-229.152" x2="81.5355" y2="-229.152" gradientUnits="userSpaceOnUse">
<stop stop-color="white" stop-opacity="0.01"/>
<stop offset="1" stop-color="white" stop-opacity="0.85"/>
</linearGradient>
<linearGradient id="paint19_linear_13572_1639" x1="90.717" y1="-217.895" x2="96.1436" y2="-217.895" gradientUnits="userSpaceOnUse">
<stop stop-color="white" stop-opacity="0.01"/>
<stop offset="1" stop-color="white" stop-opacity="0.85"/>
</linearGradient>
<linearGradient id="paint20_linear_13572_1639" x1="105.777" y1="-212.168" x2="110.927" y2="-212.168" gradientUnits="userSpaceOnUse">
<stop stop-color="white" stop-opacity="0.01"/>
<stop offset="1" stop-color="white" stop-opacity="0.85"/>
</linearGradient>
<linearGradient id="paint21_linear_13572_1639" x1="92.0118" y1="125.487" x2="87.2121" y2="124.358" gradientUnits="userSpaceOnUse">
<stop stop-color="white" stop-opacity="0.01"/>
<stop offset="1" stop-color="white" stop-opacity="0.8"/>
</linearGradient>
<linearGradient id="paint22_linear_13572_1639" x1="99.8254" y1="-312.68" x2="92.5152" y2="-310.849" gradientUnits="userSpaceOnUse">
<stop stop-color="white" stop-opacity="0.01"/>
<stop offset="1" stop-color="white" stop-opacity="0.8"/>
</linearGradient>
<linearGradient id="paint23_linear_13572_1639" x1="108.931" y1="-313.188" x2="104.132" y2="-312.059" gradientUnits="userSpaceOnUse">
<stop stop-color="white" stop-opacity="0.01"/>
<stop offset="1" stop-color="white" stop-opacity="0.8"/>
</linearGradient>
<linearGradient id="paint24_linear_13572_1639" x1="65.4667" y1="58.9838" x2="65.4667" y2="133.629" gradientUnits="userSpaceOnUse">
<stop stop-color="#DBA5F5" stop-opacity="0.01"/>
<stop offset="0.21" stop-color="#DB9CF5" stop-opacity="0.21"/>
<stop offset="0.55" stop-color="#DB84F5" stop-opacity="0.55"/>
<stop offset="0.99" stop-color="#DB5CF5" stop-opacity="0.99"/>
<stop offset="1" stop-color="#DB5BF5"/>
</linearGradient>
<linearGradient id="paint25_linear_13572_1639" x1="59.7817" y1="142.728" x2="140.359" y2="142.728" gradientUnits="userSpaceOnUse">
<stop stop-color="#7348BF"/>
<stop offset="0.25" stop-color="#784AC1"/>
<stop offset="0.54" stop-color="#854FC8"/>
<stop offset="0.85" stop-color="#9C58D4"/>
<stop offset="1" stop-color="#AA5DDB"/>
</linearGradient>
<linearGradient id="paint26_linear_13572_1639" x1="183.821" y1="154.681" x2="183.821" y2="57.8512" gradientUnits="userSpaceOnUse">
<stop stop-color="#DBA5F5"/>
<stop offset="0.19" stop-color="#DDAAF6"/>
<stop offset="0.41" stop-color="#E2B7F7"/>
<stop offset="0.65" stop-color="#EBCEFA"/>
<stop offset="0.89" stop-color="#F8EEFD"/>
<stop offset="1" stop-color="white"/>
</linearGradient>
<linearGradient id="paint27_linear_13572_1639" x1="121.359" y1="-289.414" x2="121.359" y2="-314.605" gradientUnits="userSpaceOnUse">
<stop stop-color="#7348BF"/>
<stop offset="0.25" stop-color="#784AC1"/>
<stop offset="0.54" stop-color="#854FC8"/>
<stop offset="0.85" stop-color="#9C58D4"/>
<stop offset="1" stop-color="#AA5DDB"/>
</linearGradient>
<linearGradient id="paint28_linear_13572_1639" x1="63.5432" y1="-330.535" x2="63.5432" y2="-293.714" gradientUnits="userSpaceOnUse">
<stop stop-color="#7348BF"/>
<stop offset="0.25" stop-color="#784AC1"/>
<stop offset="0.54" stop-color="#854FC8"/>
<stop offset="0.85" stop-color="#9C58D4"/>
<stop offset="1" stop-color="#AA5DDB"/>
</linearGradient>
<linearGradient id="paint29_linear_13572_1639" x1="91.1685" y1="81.2403" x2="124.498" y2="61.579" gradientUnits="userSpaceOnUse">
<stop stop-color="#FFD13E"/>
<stop offset="0.05" stop-color="#FECD3B"/>
<stop offset="0.31" stop-color="#F8BD32"/>
<stop offset="0.6" stop-color="#F5B42C"/>
<stop offset="1" stop-color="#F4B12A"/>
</linearGradient>
<linearGradient id="paint30_linear_13572_1639" x1="81.0435" y1="74.6465" x2="110.981" y2="74.6465" gradientUnits="userSpaceOnUse">
<stop stop-color="#DBA5F5"/>
<stop offset="0.19" stop-color="#DBA0F5"/>
<stop offset="0.41" stop-color="#DB93F5"/>
<stop offset="0.64" stop-color="#DB7CF5"/>
<stop offset="0.87" stop-color="#DB5CF5"/>
<stop offset="1" stop-color="#DB48F5"/>
</linearGradient>
<linearGradient id="paint31_linear_13572_1639" x1="81.0433" y1="74.6101" x2="110.974" y2="74.6101" gradientUnits="userSpaceOnUse">
<stop stop-color="white" stop-opacity="0.01"/>
<stop offset="1" stop-color="white" stop-opacity="0.85"/>
</linearGradient>
<linearGradient id="paint32_linear_13572_1639" x1="75.4757" y1="-223.008" x2="108.351" y2="-210.318" gradientUnits="userSpaceOnUse">
<stop stop-color="#7348BF"/>
<stop offset="0.25" stop-color="#784AC1"/>
<stop offset="0.54" stop-color="#854FC8"/>
<stop offset="0.85" stop-color="#9C58D4"/>
<stop offset="1" stop-color="#AA5DDB"/>
</linearGradient>
<linearGradient id="paint33_linear_13572_1639" x1="108.995" y1="37.7662" x2="104.8" y2="57.5659" gradientUnits="userSpaceOnUse">
<stop stop-color="#FFCF5C"/>
<stop offset="0.22" stop-color="#FFCB57"/>
<stop offset="0.47" stop-color="#FFBF4A"/>
<stop offset="0.74" stop-color="#FFAB33"/>
<stop offset="1" stop-color="#FF9115"/>
</linearGradient>
<linearGradient id="paint34_linear_13572_1639" x1="95.6616" y1="-239.905" x2="104.221" y2="-237.692" gradientUnits="userSpaceOnUse">
<stop stop-color="#FFCF5C"/>
<stop offset="0.22" stop-color="#FFCB57"/>
<stop offset="0.47" stop-color="#FFBF4A"/>
<stop offset="0.74" stop-color="#FFAB33"/>
<stop offset="1" stop-color="#FF9115"/>
</linearGradient>
<linearGradient id="paint35_linear_13572_1639" x1="130.643" y1="-233.181" x2="117.845" y2="-260.365" gradientUnits="userSpaceOnUse">
<stop stop-color="#FFCF5C"/>
<stop offset="0.22" stop-color="#FFCB57"/>
<stop offset="0.47" stop-color="#FFBF4A"/>
<stop offset="0.74" stop-color="#FFAB33"/>
<stop offset="1" stop-color="#FF9115"/>
</linearGradient>
<linearGradient id="paint36_linear_13572_1639" x1="123.316" y1="50.7423" x2="108.739" y2="44.2075" gradientUnits="userSpaceOnUse">
<stop stop-color="white" stop-opacity="0.01"/>
<stop offset="0.93" stop-color="white" stop-opacity="0.79"/>
<stop offset="1" stop-color="white" stop-opacity="0.85"/>
</linearGradient>
<linearGradient id="paint37_linear_13572_1639" x1="84.2692" y1="-257.867" x2="69.7134" y2="-245.31" gradientUnits="userSpaceOnUse">
<stop stop-color="white" stop-opacity="0.01"/>
<stop offset="1" stop-color="white" stop-opacity="0.85"/>
</linearGradient>
<linearGradient id="paint38_linear_13572_1639" x1="89.0221" y1="-251.489" x2="76.6577" y2="-236.562" gradientUnits="userSpaceOnUse">
<stop stop-color="white" stop-opacity="0.01"/>
<stop offset="1" stop-color="white" stop-opacity="0.85"/>
</linearGradient>
<linearGradient id="paint39_linear_13572_1639" x1="100.999" y1="-243.59" x2="86.041" y2="-231.719" gradientUnits="userSpaceOnUse">
<stop stop-color="white" stop-opacity="0.01"/>
<stop offset="1" stop-color="white" stop-opacity="0.85"/>
</linearGradient>
<linearGradient id="paint40_linear_13572_1639" x1="95.9563" y1="-246.174" x2="82.6608" y2="-232.069" gradientUnits="userSpaceOnUse">
<stop stop-color="white" stop-opacity="0.01"/>
<stop offset="1" stop-color="white" stop-opacity="0.85"/>
</linearGradient>
<linearGradient id="paint41_linear_13572_1639" x1="106.432" y1="-237.532" x2="92.5051" y2="-224.116" gradientUnits="userSpaceOnUse">
<stop stop-color="white" stop-opacity="0.01"/>
<stop offset="1" stop-color="white" stop-opacity="0.85"/>
</linearGradient>
<linearGradient id="paint42_linear_13572_1639" x1="75.9134" y1="-229.152" x2="81.5355" y2="-229.152" gradientUnits="userSpaceOnUse">
<stop stop-color="white" stop-opacity="0.01"/>
<stop offset="1" stop-color="white" stop-opacity="0.85"/>
</linearGradient>
<linearGradient id="paint43_linear_13572_1639" x1="90.717" y1="-217.895" x2="96.1436" y2="-217.895" gradientUnits="userSpaceOnUse">
<stop stop-color="white" stop-opacity="0.01"/>
<stop offset="1" stop-color="white" stop-opacity="0.85"/>
</linearGradient>
<linearGradient id="paint44_linear_13572_1639" x1="105.777" y1="-212.168" x2="110.927" y2="-212.168" gradientUnits="userSpaceOnUse">
<stop stop-color="white" stop-opacity="0.01"/>
<stop offset="1" stop-color="white" stop-opacity="0.85"/>
</linearGradient>
<linearGradient id="paint45_linear_13572_1639" x1="92.0118" y1="125.487" x2="87.2121" y2="124.358" gradientUnits="userSpaceOnUse">
<stop stop-color="white" stop-opacity="0.01"/>
<stop offset="1" stop-color="white" stop-opacity="0.8"/>
</linearGradient>
<linearGradient id="paint46_linear_13572_1639" x1="99.8254" y1="-312.68" x2="92.5152" y2="-310.849" gradientUnits="userSpaceOnUse">
<stop stop-color="white" stop-opacity="0.01"/>
<stop offset="1" stop-color="white" stop-opacity="0.8"/>
</linearGradient>
<linearGradient id="paint47_linear_13572_1639" x1="108.931" y1="-313.188" x2="104.132" y2="-312.059" gradientUnits="userSpaceOnUse">
<stop stop-color="white" stop-opacity="0.01"/>
<stop offset="1" stop-color="white" stop-opacity="0.8"/>
</linearGradient>
<linearGradient id="paint48_linear_13572_1639" x1="65.4667" y1="58.9838" x2="65.4667" y2="133.629" gradientUnits="userSpaceOnUse">
<stop stop-color="#DBA5F5" stop-opacity="0.01"/>
<stop offset="0.21" stop-color="#DB9CF5" stop-opacity="0.21"/>
<stop offset="0.55" stop-color="#DB84F5" stop-opacity="0.55"/>
<stop offset="0.99" stop-color="#DB5CF5" stop-opacity="0.99"/>
<stop offset="1" stop-color="#DB5BF5"/>
</linearGradient>
<linearGradient id="paint49_linear_13572_1639" x1="59.7817" y1="142.728" x2="140.359" y2="142.728" gradientUnits="userSpaceOnUse">
<stop stop-color="#7348BF"/>
<stop offset="0.25" stop-color="#784AC1"/>
<stop offset="0.54" stop-color="#854FC8"/>
<stop offset="0.85" stop-color="#9C58D4"/>
<stop offset="1" stop-color="#AA5DDB"/>
</linearGradient>
<linearGradient id="paint50_linear_13572_1639" x1="183.821" y1="154.681" x2="183.821" y2="57.8512" gradientUnits="userSpaceOnUse">
<stop stop-color="#DBA5F5"/>
<stop offset="0.19" stop-color="#DDAAF6"/>
<stop offset="0.41" stop-color="#E2B7F7"/>
<stop offset="0.65" stop-color="#EBCEFA"/>
<stop offset="0.89" stop-color="#F8EEFD"/>
<stop offset="1" stop-color="white"/>
</linearGradient>
<linearGradient id="paint51_linear_13572_1639" x1="121.359" y1="-289.414" x2="121.359" y2="-314.605" gradientUnits="userSpaceOnUse">
<stop stop-color="#7348BF"/>
<stop offset="0.25" stop-color="#784AC1"/>
<stop offset="0.54" stop-color="#854FC8"/>
<stop offset="0.85" stop-color="#9C58D4"/>
<stop offset="1" stop-color="#AA5DDB"/>
</linearGradient>
<linearGradient id="paint52_linear_13572_1639" x1="63.5432" y1="-330.535" x2="63.5432" y2="-293.714" gradientUnits="userSpaceOnUse">
<stop stop-color="#7348BF"/>
<stop offset="0.25" stop-color="#784AC1"/>
<stop offset="0.54" stop-color="#854FC8"/>
<stop offset="0.85" stop-color="#9C58D4"/>
<stop offset="1" stop-color="#AA5DDB"/>
</linearGradient>
<linearGradient id="paint53_linear_13572_1639" x1="91.1685" y1="81.2403" x2="124.498" y2="61.579" gradientUnits="userSpaceOnUse">
<stop stop-color="#FFD13E"/>
<stop offset="0.05" stop-color="#FECD3B"/>
<stop offset="0.31" stop-color="#F8BD32"/>
<stop offset="0.6" stop-color="#F5B42C"/>
<stop offset="1" stop-color="#F4B12A"/>
</linearGradient>
<linearGradient id="paint54_linear_13572_1639" x1="81.0435" y1="74.6465" x2="110.981" y2="74.6465" gradientUnits="userSpaceOnUse">
<stop stop-color="#DBA5F5"/>
<stop offset="0.19" stop-color="#DBA0F5"/>
<stop offset="0.41" stop-color="#DB93F5"/>
<stop offset="0.64" stop-color="#DB7CF5"/>
<stop offset="0.87" stop-color="#DB5CF5"/>
<stop offset="1" stop-color="#DB48F5"/>
</linearGradient>
<linearGradient id="paint55_linear_13572_1639" x1="81.0433" y1="74.6101" x2="110.974" y2="74.6101" gradientUnits="userSpaceOnUse">
<stop stop-color="white" stop-opacity="0.01"/>
<stop offset="1" stop-color="white" stop-opacity="0.85"/>
</linearGradient>
<linearGradient id="paint56_linear_13572_1639" x1="75.4757" y1="-223.008" x2="108.351" y2="-210.318" gradientUnits="userSpaceOnUse">
<stop stop-color="#7348BF"/>
<stop offset="0.25" stop-color="#784AC1"/>
<stop offset="0.54" stop-color="#854FC8"/>
<stop offset="0.85" stop-color="#9C58D4"/>
<stop offset="1" stop-color="#AA5DDB"/>
</linearGradient>
<linearGradient id="paint57_linear_13572_1639" x1="108.995" y1="37.7662" x2="104.8" y2="57.5659" gradientUnits="userSpaceOnUse">
<stop stop-color="#FFCF5C"/>
<stop offset="0.22" stop-color="#FFCB57"/>
<stop offset="0.47" stop-color="#FFBF4A"/>
<stop offset="0.74" stop-color="#FFAB33"/>
<stop offset="1" stop-color="#FF9115"/>
</linearGradient>
<linearGradient id="paint58_linear_13572_1639" x1="95.6616" y1="-239.905" x2="104.221" y2="-237.692" gradientUnits="userSpaceOnUse">
<stop stop-color="#FFCF5C"/>
<stop offset="0.22" stop-color="#FFCB57"/>
<stop offset="0.47" stop-color="#FFBF4A"/>
<stop offset="0.74" stop-color="#FFAB33"/>
<stop offset="1" stop-color="#FF9115"/>
</linearGradient>
<linearGradient id="paint59_linear_13572_1639" x1="130.643" y1="-233.181" x2="117.845" y2="-260.365" gradientUnits="userSpaceOnUse">
<stop stop-color="#FFCF5C"/>
<stop offset="0.22" stop-color="#FFCB57"/>
<stop offset="0.47" stop-color="#FFBF4A"/>
<stop offset="0.74" stop-color="#FFAB33"/>
<stop offset="1" stop-color="#FF9115"/>
</linearGradient>
<linearGradient id="paint60_linear_13572_1639" x1="123.316" y1="50.7423" x2="108.739" y2="44.2075" gradientUnits="userSpaceOnUse">
<stop stop-color="white" stop-opacity="0.01"/>
<stop offset="0.93" stop-color="white" stop-opacity="0.79"/>
<stop offset="1" stop-color="white" stop-opacity="0.85"/>
</linearGradient>
<linearGradient id="paint61_linear_13572_1639" x1="84.2692" y1="-257.867" x2="69.7134" y2="-245.31" gradientUnits="userSpaceOnUse">
<stop stop-color="white" stop-opacity="0.01"/>
<stop offset="1" stop-color="white" stop-opacity="0.85"/>
</linearGradient>
<linearGradient id="paint62_linear_13572_1639" x1="89.0221" y1="-251.489" x2="76.6577" y2="-236.562" gradientUnits="userSpaceOnUse">
<stop stop-color="white" stop-opacity="0.01"/>
<stop offset="1" stop-color="white" stop-opacity="0.85"/>
</linearGradient>
<linearGradient id="paint63_linear_13572_1639" x1="100.999" y1="-243.59" x2="86.041" y2="-231.719" gradientUnits="userSpaceOnUse">
<stop stop-color="white" stop-opacity="0.01"/>
<stop offset="1" stop-color="white" stop-opacity="0.85"/>
</linearGradient>
<linearGradient id="paint64_linear_13572_1639" x1="95.9563" y1="-246.174" x2="82.6608" y2="-232.069" gradientUnits="userSpaceOnUse">
<stop stop-color="white" stop-opacity="0.01"/>
<stop offset="1" stop-color="white" stop-opacity="0.85"/>
</linearGradient>
<linearGradient id="paint65_linear_13572_1639" x1="106.432" y1="-237.532" x2="92.5051" y2="-224.116" gradientUnits="userSpaceOnUse">
<stop stop-color="white" stop-opacity="0.01"/>
<stop offset="1" stop-color="white" stop-opacity="0.85"/>
</linearGradient>
<linearGradient id="paint66_linear_13572_1639" x1="75.9134" y1="-229.152" x2="81.5355" y2="-229.152" gradientUnits="userSpaceOnUse">
<stop stop-color="white" stop-opacity="0.01"/>
<stop offset="1" stop-color="white" stop-opacity="0.85"/>
</linearGradient>
<linearGradient id="paint67_linear_13572_1639" x1="90.717" y1="-217.895" x2="96.1436" y2="-217.895" gradientUnits="userSpaceOnUse">
<stop stop-color="white" stop-opacity="0.01"/>
<stop offset="1" stop-color="white" stop-opacity="0.85"/>
</linearGradient>
<linearGradient id="paint68_linear_13572_1639" x1="105.777" y1="-212.168" x2="110.927" y2="-212.168" gradientUnits="userSpaceOnUse">
<stop stop-color="white" stop-opacity="0.01"/>
<stop offset="1" stop-color="white" stop-opacity="0.85"/>
</linearGradient>
<linearGradient id="paint69_linear_13572_1639" x1="92.0118" y1="125.487" x2="87.2121" y2="124.358" gradientUnits="userSpaceOnUse">
<stop stop-color="white" stop-opacity="0.01"/>
<stop offset="1" stop-color="white" stop-opacity="0.8"/>
</linearGradient>
<linearGradient id="paint70_linear_13572_1639" x1="99.8254" y1="-312.68" x2="92.5152" y2="-310.849" gradientUnits="userSpaceOnUse">
<stop stop-color="white" stop-opacity="0.01"/>
<stop offset="1" stop-color="white" stop-opacity="0.8"/>
</linearGradient>
<linearGradient id="paint71_linear_13572_1639" x1="108.931" y1="-313.188" x2="104.132" y2="-312.059" gradientUnits="userSpaceOnUse">
<stop stop-color="white" stop-opacity="0.01"/>
<stop offset="1" stop-color="white" stop-opacity="0.8"/>
</linearGradient>
<linearGradient id="paint72_linear_13572_1639" x1="65.4667" y1="58.9838" x2="65.4667" y2="133.629" gradientUnits="userSpaceOnUse">
<stop stop-color="#DBA5F5" stop-opacity="0.01"/>
<stop offset="0.21" stop-color="#DB9CF5" stop-opacity="0.21"/>
<stop offset="0.55" stop-color="#DB84F5" stop-opacity="0.55"/>
<stop offset="0.99" stop-color="#DB5CF5" stop-opacity="0.99"/>
<stop offset="1" stop-color="#DB5BF5"/>
</linearGradient>
</defs>
</svg>
