<svg width="21" height="21" viewBox="0 0 21 21" fill="none" xmlns="http://www.w3.org/2000/svg">
<path d="M0 8.64294V7.37467C0.0419959 7.33267 0.0335967 7.27388 0.0377963 7.21928C0.0881913 6.63974 0.193181 6.0686 0.394761 5.52685C1.58325 2.30576 3.87202 0.441148 7.29469 0.0505864C9.1719 -0.163593 10.9147 0.306757 12.4686 1.37765C14.602 2.84751 15.7695 4.89691 15.992 7.47546C16.0046 7.60984 16.0424 7.67284 16.1768 7.71063C20.2882 8.97471 22.1948 13.7077 20.1118 17.4705C20.0404 17.5965 20.0362 17.7015 20.074 17.8316C20.347 18.806 20.6116 19.7845 20.8888 20.7588C20.935 20.9267 20.9014 20.9267 20.7544 20.8848C19.7969 20.616 18.8394 20.3598 17.8861 20.0868C17.7223 20.0406 17.5879 20.0406 17.4283 20.1288C16.9243 20.4186 16.3826 20.616 15.8199 20.763C15.4755 20.8512 15.1227 20.8722 14.7826 20.9561H13.5941C13.4135 20.889 13.2203 20.9015 13.0355 20.8638C10.373 20.301 8.58396 18.7472 7.71045 16.1644C7.66845 16.0384 7.61386 16.0006 7.48787 15.9922C6.29099 15.904 5.1571 15.5849 4.1114 14.9927C3.98541 14.9213 3.88042 14.9129 3.75023 14.9507C2.57855 15.2783 1.40266 15.5975 0.235177 15.9292C0.071393 15.9754 0.0335967 15.9712 0.0839918 15.7865C0.415759 14.6148 0.734928 13.4431 1.0625 12.2714C1.10029 12.1412 1.09609 12.032 1.0247 11.9102C0.642537 11.2467 0.377963 10.5328 0.20158 9.78523C0.113389 9.40727 0.0881914 9.02091 0.00419959 8.64294H0ZM1.79742 14.2074C1.85202 14.1948 1.88142 14.1864 1.91081 14.178C2.57435 13.9974 3.23788 13.821 3.89722 13.6279C4.0652 13.5775 4.18699 13.6027 4.32978 13.6951C5.86683 14.6694 7.53826 15.0011 9.31889 14.6442C12.9851 13.9134 15.3621 10.3522 14.644 6.69433C13.9258 3.04069 10.3268 0.630126 6.67735 1.36505C3.58225 1.98659 1.30607 4.68273 1.23468 7.83662C1.20108 9.23089 1.56645 10.516 2.32657 11.6876C2.41896 11.8262 2.42736 11.948 2.38537 12.1034C2.18799 12.7921 1.999 13.4893 1.80582 14.2074H1.79742ZM19.1585 19.1629C19.0115 18.6296 18.8772 18.1214 18.7344 17.6217C18.6966 17.4915 18.705 17.3949 18.7806 17.2815C19.5743 16.0678 19.9019 14.7407 19.6457 13.3087C19.2761 11.2257 18.0792 9.78943 16.1222 8.99151C15.9542 8.92432 15.9374 9.00411 15.9248 9.1259C15.8996 9.39887 15.8409 9.66344 15.7737 9.92802C14.9631 13.1281 12.393 15.4421 9.11311 15.9292C8.96192 15.9502 8.94093 15.9964 8.99552 16.1392C9.2181 16.7188 9.52047 17.2479 9.91943 17.7183C11.7673 19.9062 14.812 20.3682 17.2225 18.8228C17.3737 18.7262 17.4997 18.6968 17.6761 18.7514C18.1548 18.8983 18.6462 19.0243 19.1627 19.1671L19.1585 19.1629Z" fill="white"/>
<path d="M7.37865 9.00054C7.21487 8.53859 7.51724 8.19422 7.9162 7.87085C8.23117 7.61888 8.51674 7.3333 8.81071 7.06033C9.19288 6.70756 9.31466 6.2666 9.16348 5.77525C9.01229 5.2881 8.65953 5.01513 8.15978 4.92694C7.53404 4.82195 6.8663 5.3217 6.79911 5.96424C6.78231 6.10283 6.74872 6.14902 6.60593 6.14482C6.29936 6.13222 5.99279 6.13642 5.68622 6.14482C5.56863 6.14482 5.53923 6.10702 5.54763 5.98944C5.64002 4.77155 6.62273 3.75945 7.79021 3.69226C9.09209 3.61667 10.1966 4.44819 10.4234 5.70806C10.5703 6.53958 10.3352 7.27871 9.73882 7.87925C9.42385 8.19842 9.08369 8.49659 8.74772 8.79476C8.65953 8.87455 8.62173 8.95854 8.62593 9.07613C8.63433 9.28611 8.62593 9.50029 8.62593 9.71027C8.62593 9.81526 8.60493 9.86985 8.48315 9.86985C8.16398 9.86145 7.84061 9.86145 7.52144 9.86985C7.39545 9.86985 7.37445 9.81526 7.37865 9.71027C7.38285 9.50449 7.37865 9.30291 7.37865 8.99634V9.00054Z" fill="white"/>
<path d="M8.0422 11.0999C8.20598 11.1251 8.46636 11.0075 8.59234 11.1461C8.70573 11.2679 8.61754 11.524 8.62594 11.7172C8.63014 11.8726 8.62594 12.0322 8.62594 12.1876C8.63014 12.2926 8.59654 12.3304 8.48735 12.3304C8.15979 12.3262 7.83642 12.3262 7.50885 12.3304C7.41226 12.3304 7.37866 12.2968 7.37866 12.2002C7.37866 11.881 7.38286 11.5618 7.37866 11.2427C7.37866 11.1377 7.40806 11.0957 7.51725 11.0999C7.68103 11.1083 7.84482 11.0999 8.0422 11.0999Z" fill="white"/>
</svg>
