<svg width="15" height="13" viewBox="0 0 15 13" fill="none" xmlns="http://www.w3.org/2000/svg">
<g clip-path="url(#clip0_14582_2144)">
<path d="M-2.31359e-05 3.80809C0.0354094 3.5406 0.0863775 3.27544 0.152618 3.01399C0.670578 1.38572 1.75838 0.400942 3.41606 0.0596622C3.54428 0.0334494 3.66334 0.0411557 3.72134 0.181471C3.77934 0.321787 3.69082 0.462102 3.49849 0.489857C2.72116 0.616353 2.00587 0.995261 1.4608 1.56921C0.919632 2.13546 0.570827 2.86096 0.464905 3.64072C0.358982 4.42049 0.501383 5.21408 0.871549 5.90665C0.892919 5.9452 0.915851 5.98066 0.946379 6.03001C1.06417 5.77838 1.23288 5.55452 1.44164 5.37285C1.6504 5.19119 1.89456 5.05577 2.15834 4.97533C1.58746 4.14577 1.61187 3.41644 2.21938 2.88755C2.47567 2.66588 2.80337 2.5465 3.14074 2.55189C3.4781 2.55729 3.80185 2.68709 4.05107 2.91685C4.63721 3.46424 4.64788 4.20282 4.077 4.97379C4.15027 5.00154 4.22204 5.02621 4.29225 5.05705C4.54141 5.16173 4.76559 5.31889 4.94984 5.51805C5.1341 5.7172 5.27418 5.95376 5.36074 6.21195C5.39279 6.30293 5.41416 6.3276 5.51338 6.269C5.75995 6.11941 6.02914 6.01159 6.31019 5.94982C6.29493 5.88352 6.23995 5.86348 6.20332 5.82647C5.63854 5.27138 5.44014 4.59293 5.66453 3.84201C5.7599 3.48609 5.95776 3.16681 6.23305 2.92468C6.50835 2.68255 6.84865 2.52848 7.21076 2.48203C7.64496 2.41388 8.08915 2.49946 8.46803 2.72427C8.84692 2.94908 9.13722 3.29929 9.28974 3.71557C9.36301 3.91448 9.33243 4.03783 9.19658 4.09334C9.06073 4.14885 8.95387 4.07484 8.87907 3.87594C8.77016 3.58749 8.5755 3.3402 8.3218 3.16807C8.0681 2.99595 7.76783 2.90744 7.4623 2.91471C7.15678 2.92197 6.86102 3.02467 6.61562 3.20866C6.37022 3.39266 6.18724 3.64893 6.09189 3.94224C5.97772 4.3098 6.00845 4.70769 6.17775 5.05288C6.34705 5.39807 6.64185 5.66386 7.0005 5.79477C7.35916 5.92569 7.75398 5.91161 8.1026 5.75547C8.45123 5.59934 8.72669 5.31321 8.87147 4.95682C8.88674 4.92136 8.8959 4.88127 8.91269 4.84581C8.921 4.81657 8.93521 4.78938 8.95442 4.76596C8.97364 4.74254 8.99744 4.72338 9.02434 4.7097C9.05123 4.69602 9.08065 4.68812 9.11072 4.68647C9.14079 4.68483 9.17084 4.68949 9.19904 4.70016C9.22724 4.71083 9.25294 4.72727 9.27454 4.74847C9.29614 4.76966 9.31317 4.79513 9.32455 4.82329C9.33593 4.85146 9.34147 4.8817 9.34072 4.91211C9.33998 4.94252 9.33298 4.97244 9.32023 5C9.21718 5.33109 9.02668 5.6275 8.76921 5.85731L8.69438 5.9267C8.69438 5.9267 8.69441 5.93595 8.68678 5.956C8.98298 6.02545 9.26667 6.14092 9.5278 6.2983C9.62396 6.35689 9.60722 6.25821 9.62096 6.2212C9.77989 5.75723 10.1072 5.37147 10.5368 5.14185C10.6528 5.08018 10.7749 5.03392 10.894 4.98766C10.3261 4.14885 10.3506 3.4334 10.9657 2.89835C11.2239 2.67938 11.552 2.56271 11.889 2.57009C12.226 2.57746 12.5489 2.70838 12.7974 2.93844C13.2553 3.35322 13.4995 4.2352 12.8157 4.99075C13.081 5.07118 13.3268 5.20685 13.5371 5.38903C13.7475 5.57121 13.9176 5.79585 14.0368 6.04851C14.2646 5.67551 14.42 5.26211 14.4947 4.83039C14.6713 3.89102 14.4782 2.91914 13.9566 2.12129C13.435 1.32343 12.626 0.762498 11.7014 0.557702C10.433 0.270903 9.3065 0.603956 8.34334 1.49827C8.26244 1.57537 8.19069 1.66018 8.10827 1.74036C7.72972 2.13047 7.23977 2.13355 6.87343 1.74036C6.48318 1.30306 6.00133 0.959104 5.46299 0.733484C5.19684 0.622654 4.91782 0.546483 4.63264 0.506816L4.54715 0.489857C4.39451 0.46056 4.31664 0.364963 4.3319 0.241609C4.33684 0.209879 4.34833 0.179546 4.36559 0.152569C4.38285 0.125593 4.40554 0.102569 4.43215 0.0849877C4.45876 0.0674068 4.48871 0.0556555 4.52009 0.0504957C4.55148 0.045336 4.58355 0.0468825 4.6143 0.0550319C5.28025 0.139719 5.91525 0.389187 6.46283 0.781284C6.71222 0.963004 6.94282 1.16964 7.15121 1.39806C7.39849 1.66173 7.58474 1.66327 7.83049 1.39806C8.4447 0.709234 9.2666 0.24423 10.1689 0.0750778C11.1936 -0.109481 12.2495 0.10644 13.1225 0.679078C13.9955 1.25172 14.6203 2.13823 14.8702 3.15893C15.206 4.61914 14.8703 5.92361 13.8506 7.01376C12.1349 8.84865 10.3979 10.665 8.66084 12.4845C8.51131 12.6486 8.32974 12.7795 8.12757 12.8691C7.9254 12.9587 7.70699 13.0049 7.48623 13.0049C7.26547 13.0049 7.04713 12.9587 6.84496 12.8691C6.64279 12.7795 6.46122 12.6486 6.31168 12.4845C4.58176 10.6681 2.85638 8.84917 1.13561 7.02764C0.499629 6.36853 0.104548 5.51046 0.0152558 4.59447C0.00894383 4.56099 0.000284038 4.52801 -0.0106812 4.49578L-2.31359e-05 3.80809ZM7.49316 6.34919C7.2352 6.34919 6.9757 6.33839 6.71773 6.34919C6.17955 6.38495 5.67212 6.61536 5.28837 6.9982C4.90461 7.38104 4.67022 7.89071 4.62809 8.43388C4.60062 8.94117 4.61739 9.45001 4.61281 9.9573C4.6128 9.98414 4.61819 10.0107 4.62869 10.0354C4.63918 10.06 4.65456 10.0822 4.67385 10.1007C5.34089 10.8007 5.99879 11.51 6.67346 12.2008C6.77975 12.3144 6.90787 12.405 7.04999 12.4668C7.19212 12.5287 7.34526 12.5606 7.50002 12.5606C7.65477 12.5606 7.80791 12.5287 7.95004 12.4668C8.09216 12.405 8.22028 12.3144 8.32657 12.2008C8.99666 11.5116 9.65302 10.8131 10.3109 10.11C10.3321 10.0904 10.3488 10.0666 10.3602 10.04C10.3715 10.0134 10.377 9.9847 10.3765 9.95576C10.3765 9.47776 10.3857 8.99822 10.3689 8.52022C10.3465 8.02912 10.1674 7.5585 9.85849 7.17862C9.54956 6.79874 9.12729 6.52996 8.65473 6.4124C8.27313 6.30909 7.87934 6.35998 7.49316 6.34919ZM10.8191 9.51014C10.9611 9.3837 11.1077 9.26806 11.2359 9.13391C12.0312 8.29973 12.8188 7.46092 13.6156 6.62827C13.6611 6.5889 13.6916 6.53474 13.7019 6.47509C13.7122 6.41543 13.7017 6.35401 13.6721 6.30139C13.5799 6.05597 13.4237 5.84034 13.2199 5.67744C13.0162 5.51454 12.7726 5.41045 12.515 5.37623C12.113 5.32254 11.706 5.31892 11.3031 5.36543C11.021 5.38567 10.751 5.4895 10.527 5.66393C10.303 5.83836 10.1349 6.07565 10.0438 6.3461C9.97356 6.52496 9.95213 6.68532 10.1322 6.80868C10.1582 6.83158 10.1808 6.85806 10.1995 6.88732C10.6095 7.3838 10.8294 8.0125 10.8191 8.65899C10.8176 8.94887 10.8191 9.23876 10.8191 9.51014ZM4.17471 9.4793V8.66824C4.16763 8.3074 4.23266 7.94883 4.36589 7.61396C4.49912 7.27908 4.69783 6.97478 4.95014 6.71925C4.9762 6.69422 4.99486 6.66236 5.00403 6.62723C5.01319 6.5921 5.01248 6.55509 5.00202 6.52034C4.9368 6.22715 4.78524 5.96079 4.56727 5.75629C4.34931 5.5518 4.07515 5.41876 3.78089 5.37469C3.37551 5.32527 2.96594 5.32165 2.55976 5.36389C2.29749 5.38446 2.04589 5.47746 1.83241 5.63274C1.61893 5.78802 1.45185 5.99959 1.34937 6.24434C1.30709 6.31142 1.29072 6.39186 1.30339 6.47035C1.31605 6.54883 1.35683 6.61987 1.41801 6.66991C2.14611 7.42545 2.86199 8.19333 3.59009 8.94888C3.77326 9.14316 3.98544 9.30969 4.17471 9.48084V9.4793ZM3.12911 3.0032C2.94317 3.00351 2.76148 3.05941 2.60694 3.16387C2.4524 3.26832 2.33197 3.41665 2.26074 3.59016C2.18952 3.76366 2.17069 3.95458 2.20671 4.13886C2.24273 4.32313 2.33193 4.49252 2.4631 4.62566C2.59426 4.7588 2.76151 4.84974 2.94375 4.88702C3.126 4.92429 3.31513 4.90624 3.48724 4.83513C3.65934 4.76403 3.80672 4.64304 3.91087 4.48744C4.01502 4.33183 4.07125 4.14857 4.07246 3.96074C4.07388 3.83506 4.05045 3.71035 4.00359 3.59391C3.95673 3.47748 3.88736 3.37166 3.79952 3.28264C3.71168 3.19362 3.60712 3.12318 3.49201 3.07547C3.37689 3.02775 3.25353 3.00371 3.12911 3.00474V3.0032ZM11.8694 3.0032C11.6834 3.0023 11.5012 3.05705 11.346 3.16056C11.1908 3.26407 11.0693 3.41171 10.997 3.58484C10.9248 3.75797 10.9048 3.94884 10.9398 4.13339C10.9748 4.31794 11.063 4.48789 11.1935 4.62182C11.324 4.75575 11.4908 4.84767 11.6729 4.88596C11.855 4.92426 12.0442 4.90722 12.2167 4.83701C12.3893 4.76679 12.5374 4.64654 12.6423 4.49142C12.7473 4.3363 12.8044 4.15325 12.8065 3.96536C12.8085 3.83981 12.7858 3.71512 12.7396 3.59856C12.6934 3.482 12.6246 3.3759 12.5374 3.28647C12.4501 3.19704 12.3461 3.12606 12.2314 3.07769C12.1167 3.02932 11.9937 3.00452 11.8694 3.00474V3.0032Z" fill="black"/>
</g>
<defs>
<clipPath id="clip0_14582_2144">
<rect width="15" height="13" fill="white"/>
</clipPath>
</defs>
</svg>
