<svg xmlns="http://www.w3.org/2000/svg" viewBox="0 0 10 12.042" xmlns:v="https://vecta.io/nano"><defs><clipPath id="A"><path d="M0 0h10v12.042H0z" fill="none"/></clipPath></defs><g clip-path="url(#A)" fill="#1dbf73"><path d="M0 2.042h10v10H0z" opacity="0"/><path d="M5.036 0a4.16 4.16 0 0 1-3.99 1.853v5.043a4.1 4.1 0 1 0 8.2 0V1.853c-2.11.004-3.585-.72-4.21-1.853zm1.873 4.887L5.803 6.339l-.767 1.008a.41.41 0 0 1-.648 0l-1-1.275a.41.41 0 0 1 .648-.5l.668.853 1.549-2.05c.138-.181.397-.216.578-.078s.216.397.078.578z"/></g></svg>