<svg width="19" height="13" viewBox="0 0 19 13" fill="none" xmlns="http://www.w3.org/2000/svg">
<path d="M17.8017 2.25481C17.7785 1.96117 17.6712 1.69809 17.4433 1.50068C17.1032 1.20686 16.6977 1.12327 16.2629 1.17472C15.7473 1.23584 15.265 1.40567 14.8083 1.64891C14.4495 1.84148 14.1152 2.07633 13.8124 2.34842C13.7053 2.44396 13.6589 2.44765 13.5367 2.37547C13.313 2.2434 13.0895 2.11086 12.8661 1.97785C12.2647 1.61853 11.649 1.28818 10.9894 1.04582C10.5535 0.885471 10.1068 0.776408 9.63918 0.771491C9.38321 0.771003 9.12797 0.798685 8.87808 0.854034C8.79191 0.880027 8.70416 0.901629 8.61957 0.932539C8.14793 1.10412 7.75788 1.39865 7.41496 1.75569C7.06783 2.11625 6.76887 2.51263 6.54501 2.96293C6.33627 3.38303 6.18837 3.82578 6.04523 4.27046C5.75436 5.17404 5.48249 6.08343 5.20446 6.9907C5.17052 7.10135 5.16261 7.10679 5.0578 7.05779C4.75625 6.91573 4.43398 6.82253 4.10308 6.78171C3.73994 6.73763 3.38207 6.75572 3.03652 6.88603C2.66494 7.02653 2.3586 7.26397 2.08039 7.5383C1.61543 7.99668 1.32773 8.55411 1.1772 9.18601C1.07028 9.63455 1.06237 10.0798 1.23154 10.5151C1.41513 10.9877 1.70934 11.3681 2.19224 11.565C2.68815 11.7672 3.17122 11.7436 3.61948 11.4284C3.83385 11.2777 3.98878 11.0703 4.13104 10.8541C4.38955 10.4623 4.57297 10.0337 4.74249 9.5989C4.96899 9.01811 5.17228 8.42871 5.37557 7.83949C5.42112 7.70743 5.43765 7.70075 5.54703 7.77487C5.74908 7.90964 5.94061 8.05953 6.11997 8.22323C6.57015 8.64034 7.00592 9.07343 7.48495 9.4591C8.01252 9.88341 8.53657 10.3116 9.18266 10.5518C9.20746 10.5582 9.23243 10.5636 9.25687 10.5713C9.61755 10.6853 9.98579 10.7434 10.3628 10.6902C10.9607 10.6058 11.4355 10.3107 11.7936 9.82879C12.0574 9.47438 12.2213 9.07203 12.3421 8.65211C12.4652 8.22569 12.5283 7.78821 12.5793 7.3481C12.6094 7.08888 12.6393 6.82966 12.6653 6.57008C12.7181 6.049 12.7613 5.52705 12.8484 5.01019C12.9592 4.35072 13.2001 3.74429 13.598 3.20266C13.6728 3.10097 13.7243 3.06954 13.8652 3.13346C14.3957 3.37372 14.9164 3.63575 15.457 3.85352C15.9074 4.03565 16.3676 4.14225 16.8556 4.04179C17.0988 3.99174 17.3128 3.88759 17.4862 3.70495C17.751 3.4264 17.7996 3.07059 17.8455 2.7146C17.8657 2.55917 17.8138 2.40849 17.8017 2.25481ZM4.99097 7.55867C4.7395 8.28453 4.47572 9.00634 4.10888 9.68583C3.9172 10.0411 3.69263 10.3708 3.39896 10.6518C2.97427 11.0566 2.46692 10.7835 2.31393 10.4157C2.20841 10.1632 2.17764 9.89676 2.18731 9.62753C2.2049 9.14913 2.33362 8.70199 2.60426 8.30244C2.83041 7.96876 3.1153 7.69548 3.4744 7.50616C3.67558 7.40004 3.89882 7.34237 4.12629 7.33774C4.40491 7.3365 4.68177 7.38179 4.94543 7.47174C4.98922 7.48614 5.00821 7.50897 4.99097 7.55867ZM13.247 2.97487C12.8179 3.50561 12.5902 4.12978 12.4108 4.7759C12.219 5.46751 12.0535 6.16667 11.8414 6.85284C11.6763 7.38744 11.4966 7.91712 11.2461 8.41941C11.1164 8.67916 10.9692 8.92977 10.762 9.13718C10.5056 9.3936 10.187 9.4865 9.83174 9.46332C9.57445 9.44514 9.32105 9.39062 9.07908 9.30139C8.70469 9.18372 8.35421 9.01302 8.01744 8.81456C7.41426 8.45945 6.81254 8.10176 6.21229 7.7415C6.03766 7.63612 5.86849 7.52302 5.69809 7.41132C5.59258 7.34195 5.57921 7.29875 5.61931 7.1788C5.84458 6.50475 6.07178 5.83105 6.34576 5.17527C6.60796 4.54742 6.87421 3.91851 7.2384 3.34123C7.6376 2.70898 8.16551 2.20687 8.8517 1.88583C8.92483 1.85001 9.00047 1.81955 9.07803 1.79468C9.36326 1.67543 9.66116 1.63662 9.96715 1.66384C10.5214 1.71249 11.0407 1.88987 11.5498 2.1029C12.1179 2.34122 12.6639 2.62679 13.2224 2.88566C13.2664 2.90621 13.2811 2.93255 13.247 2.97487ZM17.1486 2.78555C17.084 3.02739 16.9249 3.15313 16.6808 3.19282C16.4569 3.229 16.2346 3.20881 16.0125 3.18966C15.4792 3.14383 14.9597 3.03371 14.4617 2.83279C14.3737 2.79767 14.2877 2.75938 14.2019 2.72022C14.0929 2.67052 14.0908 2.6519 14.1854 2.57498C14.403 2.39598 14.6378 2.23886 14.8864 2.10589C15.2709 1.90234 15.6763 1.76113 16.1087 1.70195C16.1984 1.69077 16.2887 1.68678 16.379 1.69001C16.4887 1.68976 16.598 1.70273 16.7045 1.72864C17.0135 1.80978 17.1793 2.00876 17.1969 2.32577C17.2053 2.48056 17.1889 2.63587 17.1486 2.78555Z" fill="url(#paint0_linear_129_448)" stroke="url(#paint1_linear_129_448)" stroke-width="0.946739" stroke-miterlimit="10"/>
<defs>
<linearGradient id="paint0_linear_129_448" x1="17.8501" y1="6.23344" x2="1.1001" y2="6.23344" gradientUnits="userSpaceOnUse">
<stop stop-color="#627AF7"/>
<stop offset="1" stop-color="#EF566A"/>
</linearGradient>
<linearGradient id="paint1_linear_129_448" x1="17.8501" y1="6.23344" x2="1.1001" y2="6.23344" gradientUnits="userSpaceOnUse">
<stop stop-color="#627AF7"/>
<stop offset="1" stop-color="#EF566A"/>
</linearGradient>
</defs>
</svg>
