<svg width="20" height="20" viewBox="0 0 20 20" fill="none" xmlns="http://www.w3.org/2000/svg">
<path d="M16.9465 6.95731C16.887 6.70241 16.7042 6.51792 16.446 6.40383C16.1362 6.26748 15.8024 6.26978 15.4679 6.33029C15.3257 6.34266 15.1909 6.3814 15.0586 6.42097C14.5111 6.58585 14.0291 6.84107 13.6004 7.17675C13.5755 7.19604 13.5649 7.20462 13.5222 7.23479C13.518 7.23116 13.5132 7.22805 13.5081 7.22555C12.758 6.85195 12.0365 6.43021 11.2101 6.18306C10.9234 6.09617 10.6411 6.03105 10.3402 6.00632C10.3014 6.00173 10.2623 5.99963 10.2231 6.00005L10.0634 6.00154C10.0234 6.00236 10.0109 6.00318 9.98338 6.00467C9.53029 6.02247 9.11363 6.13657 8.74531 6.37135C8.47269 6.54347 8.24294 6.75352 8.02451 6.97511C7.62239 7.38053 7.4051 7.86889 7.20895 8.36664C7.17119 8.46276 7.13079 8.55723 7.09699 8.65484C6.87252 9.2929 6.65051 9.93161 6.4251 10.5695C6.41823 10.5927 6.40874 10.6153 6.39678 10.6369C6.09321 10.5021 5.74961 10.4107 5.41338 10.3896C4.82039 10.3524 4.3101 10.5268 3.88835 10.895C3.88357 10.898 3.87942 10.9016 3.87608 10.9059C3.46074 11.2795 3.16057 11.7042 3.04541 12.2248C2.98669 12.4969 2.97612 12.7612 3.06674 13.0294C3.24514 13.557 3.73146 13.9921 4.39883 13.9999C4.70863 14.0038 4.97766 13.9255 5.20571 13.7425C5.50664 13.5 5.69656 13.193 5.85722 12.8687C5.87232 12.8446 5.88913 12.8192 5.90253 12.7943C6.07999 12.4383 6.22913 12.0733 6.37828 11.7075C6.46248 11.5012 6.52931 11.2889 6.62861 11.0874C6.84324 11.2042 7.04441 11.339 7.22933 11.4897C7.66883 11.8563 8.11437 12.2151 8.59276 12.5439C8.76135 12.6593 8.92824 12.7772 9.11458 12.8701C9.32601 13.0041 9.5607 13.1074 9.80969 13.1763C10.3919 13.3412 10.959 13.3283 11.4844 13.0228C11.8849 12.7895 12.1263 12.4469 12.2949 12.0647C12.4999 11.5996 12.5745 11.1098 12.633 10.6183H12.6321C12.6472 10.4998 12.6632 10.3812 12.6764 10.2625C12.7227 9.81538 12.7708 9.36808 12.8745 8.92704C12.9757 8.49376 13.1807 8.11702 13.4896 7.75809C13.5082 7.73617 13.529 7.71571 13.5517 7.69693C13.826 7.80541 14.0992 7.91538 14.3744 8.02321C14.4818 8.06591 14.5821 8.12015 14.6976 8.14802C14.7703 8.19286 14.8554 8.21694 14.9372 8.24694C15.3223 8.38642 15.7201 8.48024 16.1417 8.41182C16.5411 8.34735 16.8198 8.14983 16.9346 7.79931C17.0282 7.52018 17.0114 7.23644 16.9465 6.95731ZM6.23612 11.0099C6.00353 11.5841 5.77548 12.1475 5.41866 12.6725C5.41528 12.6797 5.41288 12.6873 5.41149 12.6951C5.29709 12.84 5.19136 12.9918 5.05109 13.1198C5.00937 13.16 4.96331 13.1973 4.91894 13.2352C4.58422 13.5204 4.15473 13.339 4.0188 13.049C3.9244 12.8453 3.92214 12.6321 3.92667 12.4204C3.93554 12.0367 4.12188 11.7096 4.37297 11.4066C4.39184 11.384 4.41072 11.3601 4.4296 11.3368C4.55746 11.1989 4.71258 11.0821 4.8876 10.9919C5.30199 10.7842 5.73507 10.7833 6.17797 10.9059C6.20912 10.9143 6.24027 10.9223 6.27123 10.9306C6.25915 10.9561 6.24575 10.9858 6.23612 11.0099ZM12.5192 8.73629C12.3249 9.31994 12.1705 9.91216 11.9645 10.4928C11.9632 10.4979 11.9632 10.5032 11.9645 10.5083C11.8439 10.8231 11.7276 11.1393 11.5705 11.4423C11.4573 11.661 11.33 11.871 11.1542 12.057C10.9235 12.3012 10.6256 12.3881 10.2737 12.3625C10.0164 12.3439 9.77231 12.2842 9.5335 12.2004C9.50858 12.1919 9.4829 12.1872 9.45798 12.1803C9.05058 12.0319 8.67338 11.8331 8.29958 11.6315C7.85498 11.3896 7.39075 11.1749 6.95767 10.9176C6.89103 10.8788 6.82268 10.8415 6.75529 10.8045C6.78191 10.7253 6.79153 10.692 6.81476 10.6361C6.94691 10.3199 7.06018 9.99756 7.19554 9.68282C7.34997 9.32389 7.52309 8.96958 7.70678 8.62153C7.71279 8.6098 7.71753 8.5976 7.72094 8.5851C7.81684 8.42154 7.91086 8.25815 8.00771 8.09526C8.28986 7.62007 8.71756 7.22264 9.24314 6.94725C9.47403 6.82475 9.71511 6.72022 9.98602 6.68691C10.0891 6.67372 10.1937 6.67043 10.2968 6.6635C10.5337 6.67999 10.7687 6.70703 10.9989 6.76358C11.4667 6.87751 11.9096 7.0465 12.3436 7.23413C12.5992 7.34542 12.6444 7.3619 12.8983 7.46083C12.9239 7.47088 13.1584 7.56767 13.185 7.58481C12.8618 7.92247 12.6604 8.31701 12.5192 8.73629ZM16.4175 7.47731C16.3642 7.64944 16.241 7.74787 16.0376 7.7726C15.766 7.80673 15.4981 7.77887 15.2291 7.7487C15.1003 7.73386 14.9717 7.71292 14.843 7.69445C14.543 7.62686 14.2466 7.54854 13.9651 7.43165C13.9368 7.41911 13.9066 7.40757 13.8773 7.39587C13.9421 7.32316 14.0308 7.27419 14.1133 7.2216C14.5332 6.9578 14.9921 6.77199 15.507 6.70225C15.513 6.70225 15.5175 6.69829 15.5238 6.69598C15.7065 6.68972 15.8911 6.67504 16.0722 6.72154C16.3199 6.78584 16.4477 6.92928 16.453 7.15334C16.4556 7.26298 16.4503 7.3713 16.4175 7.47731Z" fill="white"/>
<circle cx="10" cy="10" r="9.5" stroke="white"/>
</svg>
