<svg xmlns="http://www.w3.org/2000/svg" viewBox="0 0 135.667 32.132">
    <path d="M67.7 24.634a5.681 5.681 0 0 0 .9 1.679 6.114 6.114 0 0 0 3.023 2.087 6.454 6.454 0 0 0 1.926.284 5.7 5.7 0 0 0 4-1.334 3.356 3.356 0 0 1 1.408-.617 2.686 2.686 0 0 1 1.26.1 2.154 2.154 0 0 1 .753.457 3.093 3.093 0 0 1 .556.679 2.883 2.883 0 0 1 .358.852 2.5 2.5 0 0 1 .049.926 2.828 2.828 0 0 1-.3.926 2.539 2.539 0 0 1-.7.827 10.15 10.15 0 0 1-1.235.951 8.226 8.226 0 0 1-1.593.8 11.62 11.62 0 0 1-2.025.556 13.857 13.857 0 0 1-2.532.21 11.481 11.481 0 0 1-4.594-.926 11.932 11.932 0 0 1-3.754-2.529 12.148 12.148 0 0 1-2.544-3.742 11.682 11.682 0 0 1 0-9.175 11.891 11.891 0 0 1 6.3-6.261 11.837 11.837 0 0 1 9.151-.012 12.275 12.275 0 0 1 3.754 2.482 11.75 11.75 0 0 1 3.539 8.237 2.443 2.443 0 0 1-.729 1.84 2.639 2.639 0 0 1-1.914.7Zm12.2-4.446a5.5 5.5 0 0 0-.864-1.828 5.908 5.908 0 0 0-1.408-1.383 6.26 6.26 0 0 0-1.815-.864 7.485 7.485 0 0 0-2.136-.3 6.95 6.95 0 0 0-2.136.321 6.578 6.578 0 0 0-1.8.889 5.673 5.673 0 0 0-2.21 3.161Zm31.12 2.025v.123a12.1 12.1 0 0 1-.445 3.1 11.382 11.382 0 0 1-1.2 2.791 11.953 11.953 0 0 1-7.039 5.372 11.737 11.737 0 0 1-7.681-.506 11.823 11.823 0 0 1-3.729-2.532 12.038 12.038 0 0 1-2.519-3.754 11.794 11.794 0 0 1 0-9.163 11.8 11.8 0 0 1 6.249-6.261 11.73 11.73 0 0 1 7.978-.42 12.25 12.25 0 0 1 3.025 1.42V4.678a3 3 0 0 1 .2-1.1 2.752 2.752 0 0 1 .556-.889 2.513 2.513 0 0 1 .84-.593 2.822 2.822 0 0 1 2.136 0 2.482 2.482 0 0 1 .852.593 2.932 2.932 0 0 1 .568.889 2.841 2.841 0 0 1 .21 1.1Zm-5.359.025a6.258 6.258 0 0 0-.506-2.507 6.378 6.378 0 0 0-1.383-2.038 6.674 6.674 0 0 0-2.038-1.371 6.4 6.4 0 0 0-4.989 0 6.673 6.673 0 0 0-2.045 1.372 6.216 6.216 0 0 0-1.371 2.038 6.546 6.546 0 0 0 0 4.989 6.458 6.458 0 0 0 1.358 2.05 6.378 6.378 0 0 0 2.038 1.383 6.258 6.258 0 0 0 2.507.506 6.171 6.171 0 0 0 2.495-.506 6.518 6.518 0 0 0 3.421-3.433 6.2 6.2 0 0 0 .509-2.482Z" transform="translate(24.651 -1.887)" style="fill:#b691ff"/>
    <path d="M23.528 10.754h8.595a2.5 2.5 0 0 1 1.037.222 2.859 2.859 0 0 1 1.457 1.457 2.5 2.5 0 0 1 .222 1.037 2.537 2.537 0 0 1-.21 1.025 2.6 2.6 0 0 1-.58.84 2.815 2.815 0 0 1-.864.568 2.687 2.687 0 0 1-1.062.21h-8.595v6.249a6.024 6.024 0 0 0 .506 2.457 6.418 6.418 0 0 0 5.916 3.841 6.99 6.99 0 0 0 2.2-.333 5.336 5.336 0 0 0 1.877-1.1 5.842 5.842 0 0 1 .531-.432 2.456 2.456 0 0 1 .605-.309 2.71 2.71 0 0 1 1.284-.136 2.3 2.3 0 0 1 1.26.63 2.377 2.377 0 0 1 .63.951 2.8 2.8 0 0 1 .148 1.111 3.186 3.186 0 0 1-.284 1.124 3.053 3.053 0 0 1-.692.963 9.886 9.886 0 0 1-3.409 2.162 12.053 12.053 0 0 1-8.731-.185 12.01 12.01 0 0 1-3.742-2.495 11.677 11.677 0 0 1-2.532-3.717 11.393 11.393 0 0 1-.926-4.581V6.457a2.7 2.7 0 0 1 2.717-2.717 2.537 2.537 0 0 1 1.025.21 2.6 2.6 0 0 1 .84.58 2.815 2.815 0 0 1 .568.864 2.687 2.687 0 0 1 .21 1.062ZM40.15 22.239a11.264 11.264 0 0 1 .939-4.581 12.148 12.148 0 0 1 2.544-3.742 11.972 11.972 0 0 1 3.742-2.532 11.734 11.734 0 0 1 9.138 0 11.823 11.823 0 0 1 3.729 2.532 12.078 12.078 0 0 1 2.519 3.742 11.393 11.393 0 0 1 .926 4.581v8.743a2.7 2.7 0 0 1-.79 1.926 2.841 2.841 0 0 1-.877.593 2.643 2.643 0 0 1-1.074.222 2.428 2.428 0 0 1-1.63-.568 2.728 2.728 0 0 1-.889-1.432 12.124 12.124 0 0 1-3.05 1.679 9.71 9.71 0 0 1-3.445.617 11.332 11.332 0 0 1-4.557-.926 11.972 11.972 0 0 1-3.742-2.532 12.107 12.107 0 0 1-2.544-3.754 11.29 11.29 0 0 1-.939-4.568Zm5.359 0a6.2 6.2 0 0 0 .506 2.482 6.518 6.518 0 0 0 3.421 3.433 6.171 6.171 0 0 0 2.495.506 6.258 6.258 0 0 0 2.507-.506 6.378 6.378 0 0 0 2.038-1.383 6.458 6.458 0 0 0 1.358-2.05 6.451 6.451 0 0 0-1.358-7.027 6.481 6.481 0 0 0-2.038-1.371 6.4 6.4 0 0 0-4.989 0 6.632 6.632 0 0 0-2.05 1.371 6.378 6.378 0 0 0-1.383 2.038 6.258 6.258 0 0 0-.506 2.507ZM76.8 28.364a2.474 2.474 0 0 1 1.05.222 2.671 2.671 0 0 1 .84.605 2.8 2.8 0 0 1 .753 1.914 2.544 2.544 0 0 1-.741 1.877 2.575 2.575 0 0 1-1.9.741 8.658 8.658 0 0 1-3.149-.568 8.159 8.159 0 0 1-2.581-1.581 7.457 7.457 0 0 1-1.766-2.445 7.791 7.791 0 0 1-.679-3.161V4.58a2.833 2.833 0 0 1 .2-1.062 2.505 2.505 0 0 1 .556-.852 2.744 2.744 0 0 1 .827-.568 2.451 2.451 0 0 1 1.013-.21 2.715 2.715 0 0 1 1.05.21 2.932 2.932 0 0 1 .889.568 2.632 2.632 0 0 1 .605.852 2.558 2.558 0 0 1 .222 1.062V25.8a2.336 2.336 0 0 0 .79 1.926 3.108 3.108 0 0 0 2.021.638Zm17.437-7.187 7.582 8.076a2.4 2.4 0 0 1 .556.864 2.863 2.863 0 0 1 .185 1.013 2.566 2.566 0 0 1-.21 1.013 2.8 2.8 0 0 1-.605.889 2.4 2.4 0 0 1-.864.556 2.677 2.677 0 0 1-1.013.173 2.789 2.789 0 0 1-1-.21 2.288 2.288 0 0 1-.852-.617l-7.508-8.224-2.173 2.075v4.322a2.582 2.582 0 0 1-.778 1.852 2.864 2.864 0 0 1-.827.556 2.451 2.451 0 0 1-1.013.21 2.687 2.687 0 0 1-1.062-.21 2.938 2.938 0 0 1-.864-.556 2.465 2.465 0 0 1-.58-.827A2.537 2.537 0 0 1 83 31.105v-26.6a2.416 2.416 0 0 1 .222-1.025 2.62 2.62 0 0 1 .593-.827 2.939 2.939 0 0 1 .864-.556 2.688 2.688 0 0 1 2.914.556 2.658 2.658 0 0 1 .556.827 2.537 2.537 0 0 1 .21 1.025v15.239l8.424-8.244a2.3 2.3 0 0 1 1.828-.729 2.662 2.662 0 0 1 1.8.852.022.022 0 0 1 .025.025 2.865 2.865 0 0 1 .568.877 2.422 2.422 0 0 1 .185.988 2.761 2.761 0 0 1-.21.988 2.415 2.415 0 0 1-.593.852Z" transform="translate(-18.169 -1.887)" style="fill:#50d1cb"/>
</svg>
