<svg width="73" height="65" viewBox="0 0 73 65" fill="none" xmlns="http://www.w3.org/2000/svg">
<path d="M70.9631 63.52C70.5631 64.27 69.9331 64.49 69.1031 64.49C62.1331 64.47 55.1631 64.48 48.2031 64.48C46.8031 64.48 46.3731 64.05 46.3731 62.64C46.3731 57.52 46.3731 52.39 46.3731 47.27C46.3731 46.82 46.2531 46.45 46.0031 46.07C43.0131 41.58 39.9031 37.18 37.0231 32.62C36.6531 32.03 36.3631 31.38 36.0331 30.76C35.9931 30.76 35.9231 30.76 35.9131 30.79C33.8931 34.81 31.0631 38.32 28.6531 42.08C27.7931 43.42 26.9031 44.75 25.9731 46.04C25.6131 46.53 25.6031 47.03 25.5931 47.58C25.5931 48.35 25.1531 48.89 24.4931 49.02C23.8731 49.14 23.1431 48.83 23.0131 48.21C22.7931 47.18 22.6231 46.11 23.2931 45.12C26.1331 40.92 28.9631 36.71 31.7931 32.49C33.6031 29.79 34.4331 27.37 34.5731 24.41C34.2631 24.45 34.1331 24.72 33.9431 24.9C29.5731 29.26 25.2031 33.62 20.8531 37.99C20.3031 38.54 19.7231 38.81 18.9231 38.8C16.0531 38.76 13.1831 38.77 10.3131 38.79C8.20306 38.8 6.40306 39.52 5.06306 41.22C4.13306 42.4 3.74306 43.76 3.74306 45.22C3.72306 50.55 3.74306 55.88 3.72306 61.21C3.72306 61.69 3.90306 61.77 4.31306 61.76C5.20306 61.73 6.09306 61.72 6.97306 61.76C7.46306 61.78 7.57306 61.62 7.57306 61.15C7.55306 56.35 7.56306 51.54 7.56306 46.74C7.56306 45.48 8.00306 44.84 8.90306 44.82C9.82306 44.8 10.2931 45.46 10.2931 46.75C10.2931 51.53 10.2931 56.31 10.2831 61.1C10.2831 61.65 10.4331 61.77 10.9631 61.77C14.7231 61.75 18.4731 61.75 22.2331 61.77C22.7331 61.77 22.9131 61.67 22.8831 61.14C22.8331 60.32 22.8631 59.5 22.8731 58.68C22.8731 57.73 23.4031 57.13 24.2131 57.12C25.0331 57.11 25.5831 57.71 25.5931 58.65C25.6031 60.08 25.6031 61.52 25.5931 62.95C25.5931 63.94 25.0631 64.48 24.0831 64.48C16.8831 64.48 9.69306 64.48 2.49306 64.48C1.55306 64.48 1.01306 63.93 1.01306 62.99C1.01306 56.82 0.973061 50.65 1.03306 44.48C1.07306 40.53 4.46306 36.8 8.37306 36.2C9.21306 36.07 10.0531 36.1 10.8831 36.06C10.9931 35.87 10.8331 35.75 10.7531 35.63C9.97306 34.43 9.59306 33.12 9.61306 31.69C9.62306 30.62 9.51306 29.55 9.75306 28.49C10.8631 23.51 16.7531 21.15 20.8931 24.47C22.6931 25.91 23.5731 27.81 23.5431 30.12C23.5431 30.48 23.5431 30.83 23.5431 31.33C23.8131 31.08 23.9931 30.92 24.1631 30.75C27.2731 27.64 30.3831 24.54 33.4831 21.43C34.1431 20.77 34.8531 20.3 35.8531 20.6C35.9331 20.63 36.0431 20.62 36.1231 20.6C37.0831 20.3 37.7931 20.75 38.4331 21.39C41.5431 24.5 44.6531 27.6 47.7531 30.72C47.9231 30.89 48.0531 31.12 48.3231 31.47C48.5131 30.36 48.3631 29.48 48.5331 28.62C49.0831 25.74 51.4531 23.46 54.4731 22.99C57.1331 22.57 60.0931 24.06 61.4131 26.49C62.8331 29.1 62.7331 33.12 61.1931 35.64C61.1231 35.75 61.0031 35.84 61.0631 36.06C62.0831 36.08 63.1331 36.04 64.1431 36.32C67.8431 37.37 70.0731 39.77 70.8331 43.54C70.8531 43.65 70.9131 43.74 70.9631 43.85V63.53V63.52ZM37.3931 24.4C37.5231 27.3 38.4431 29.92 40.0531 32.31C42.9031 36.53 45.7331 40.77 48.5931 44.98C48.9431 45.49 49.1031 46.01 49.1031 46.63C49.0831 51.46 49.1031 56.28 49.0831 61.11C49.0831 61.6 49.1831 61.77 49.7131 61.76C53.4931 61.73 57.2731 61.74 61.0531 61.76C61.5731 61.76 61.6931 61.62 61.6931 61.12C61.6631 58.91 61.6831 56.7 61.6831 54.5C61.6831 53.52 61.6631 52.54 61.6931 51.56C61.7231 50.82 62.3231 50.28 63.0331 50.28C63.7531 50.28 64.3231 50.8 64.3931 51.54C64.4131 51.74 64.3931 51.95 64.3931 52.15C64.3931 55.13 64.4131 58.11 64.3831 61.1C64.3831 61.66 64.5531 61.79 65.0731 61.76C65.9131 61.72 66.7631 61.72 67.6031 61.76C68.1131 61.79 68.2531 61.64 68.2431 61.12C68.2231 55.84 68.2431 50.56 68.2231 45.28C68.2231 43.79 67.8331 42.41 66.8931 41.21C65.5531 39.51 63.7531 38.8 61.6431 38.79C58.7531 38.78 55.8631 38.77 52.9731 38.79C52.2231 38.79 51.6831 38.55 51.1631 38.03C46.7931 33.64 42.4131 29.27 38.0331 24.89C37.8531 24.71 37.7131 24.44 37.3931 24.39V24.4ZM20.8031 30.96C20.8131 30.35 20.8031 29.78 20.7131 29.22C20.4031 27.22 18.6031 25.66 16.5631 25.68C14.5131 25.69 12.7531 27.23 12.4331 29.25C12.2931 30.14 12.3031 31.02 12.3631 31.9C12.4731 33.68 13.3131 35.03 14.9931 35.71C16.6131 36.36 18.1231 36.06 19.4331 34.9C20.6231 33.84 20.8731 32.43 20.8031 30.96ZM51.1531 30.79C51.1331 31.4 51.1531 31.99 51.2531 32.58C51.5631 34.53 53.3931 36.07 55.3931 36.05C57.3831 36.03 59.1731 34.53 59.5031 32.62C59.6631 31.69 59.6531 30.76 59.5931 29.83C59.4831 28.05 58.6431 26.7 56.9531 26.02C55.3331 25.37 53.8231 25.67 52.5231 26.83C51.3431 27.89 51.0931 29.31 51.1531 30.79Z" fill="white"/>
<path d="M37.343 5.45047C37.343 6.72047 37.343 7.99047 37.343 9.27047C37.343 10.2205 36.813 10.8305 36.013 10.8505C35.193 10.8705 34.623 10.2405 34.623 9.27047C34.623 6.70047 34.623 4.14047 34.623 1.57047C34.623 0.62047 35.143 0.0204699 35.953 0.000469862C36.783 -0.0195301 37.343 0.60047 37.353 1.57047C37.353 2.86047 37.353 4.16047 37.353 5.45047H37.343Z" fill="white"/>
<path d="M49.3331 9.35992C49.2831 9.78992 49.1131 10.1499 48.8031 10.4499C47.7231 11.5199 46.6631 12.6099 45.5731 13.6699C44.9031 14.3299 44.0831 14.3599 43.5231 13.7899C42.9531 13.2199 42.9531 12.4499 43.5931 11.7899C44.6831 10.6599 45.7931 9.55992 46.9131 8.45992C47.3731 7.99992 47.9331 7.85992 48.5331 8.12992C49.0631 8.35992 49.2831 8.82992 49.3331 9.36992V9.35992Z" fill="white"/>
<path d="M28.613 12.5906C28.623 13.2206 28.323 13.6406 27.803 13.8606C27.233 14.1106 26.683 13.9606 26.243 13.5306C25.523 12.8306 24.823 12.1206 24.113 11.4106C23.763 11.0606 23.393 10.7206 23.053 10.3406C22.503 9.72063 22.503 8.91063 23.023 8.38063C23.523 7.88063 24.353 7.82063 24.933 8.37063C26.073 9.45063 27.163 10.5806 28.263 11.6906C28.503 11.9406 28.633 12.2606 28.603 12.5906H28.613Z" fill="white"/>
<path d="M24.2331 52.05C24.9631 52.05 25.5831 52.66 25.5931 53.39C25.5931 54.15 24.9531 54.78 24.2031 54.76C23.4731 54.74 22.8731 54.11 22.8831 53.38C22.8931 52.65 23.5131 52.04 24.2431 52.04L24.2331 52.05Z" fill="white"/>
<path d="M63.023 47.5307C62.283 47.5307 61.683 46.9207 61.673 46.1807C61.673 45.4507 62.283 44.8307 63.013 44.8107C63.763 44.8007 64.413 45.4407 64.393 46.2007C64.373 46.9407 63.763 47.5307 63.023 47.5307Z" fill="white"/>
</svg>
